<?xml version="1.0" encoding="UTF-8" standalone="no"?>
<!-- Generator: Adobe Illustrator 15.1.0, SVG Export Plug-In . SVG Version: 6.00 Build 0)  -->

<svg
   version="1.1"
   id="Layer_1"
   x="0px"
   y="0px"
   width="48px"
   height="48px"
   viewBox="0 0 48 48"
   enable-background="new 0 0 48.007 48"
   xml:space="preserve"
   xmlns:inkscape="http://www.inkscape.org/namespaces/inkscape"
   xmlns:sodipodi="http://sodipodi.sourceforge.net/DTD/sodipodi-0.dtd"
   xmlns="http://www.w3.org/2000/svg"
   xmlns:svg="http://www.w3.org/2000/svg"><defs
   id="defs1034" /><sodipodi:namedview
   id="namedview1032"
   pagecolor="#ffffff"
   bordercolor="#000000"
   borderopacity="0.25"
   inkscape:showpageshadow="2"
   inkscape:pageopacity="0.0"
   inkscape:pagecheckerboard="0"
   inkscape:deskcolor="#d1d1d1"
   showgrid="false"/>
<path
   fill-rule="evenodd"
   clip-rule="evenodd"
   d="M39.005,27.004v-2.251c0,0,0-9.001,0-9.741  s-0.75-1.51-1.5-1.51c-0.75,0-26.254,0-27.004,0s-1.5,0.75-1.5,1.5c0,0.75,0,18.752,0,19.502s0.75,1.5,1.5,1.5h19.491l0,0  c0,1.054,0.19,2.061,0.523,3c-4.166,0-20.21,0-21.514,0c-1.5,0-3-1.5-3-3c0-1.5,0-3,0-3H4.5c-1.5,0-3-1.5-3-3  c0-1.5,0-19.503,0-21.003c0-1.5,1.5-3,3-3c1.5,0,27.004,0,28.504,0c1.5,0,3,1.5,3,3v1.5c0,0,1.5,0,3,0c1.5,0,3,1.5,3,3  c0,1.255,0,10.91,0,14.03C41.066,27.197,40.06,27.006,39.005,27.004z M33.004,10.501c0-0.75-0.75-1.5-1.5-1.5s-24.753,0-25.503,0  c-0.75,0-1.5,0.75-1.5,1.5c0,0.75,0,17.252,0,18.002c0,0.75,0.75,1.5,1.5,1.5V13.502c0-1.5,1.5-3,3-3H33.004z M15.565,27.006  l3.188,2.998l3.75-6.001l4.501,4.5l6-10.501l4.501,7.501c0,0,0,0.681,0,1.633c-3.772,0.629-6.744,3.597-7.378,7.368  c-7.537,0-19.626,0-19.626,0L15.565,27.006z M16.509,15.752c2.071,0,3.75,1.679,3.75,3.75s-1.679,3.75-3.75,3.75  c-2.072,0-3.751-1.679-3.751-3.75S14.438,15.752,16.509,15.752z M39.019,28.504c4.143,0,7.501,3.358,7.501,7.501  c0,4.143-3.358,7.501-7.501,7.501c-4.143,0-7.501-3.358-7.501-7.501C31.518,31.862,34.876,28.504,39.019,28.504z M43.506,37.505h-3  v3h-3v-3h-3v-3h3v-3h3v3h3V37.505z"
   id="path1029"
   style="fill:#000000" />
</svg>
