<?xml version="1.0" encoding="UTF-8" standalone="no"?>
<!-- Created with Inkscape (http://www.inkscape.org/) -->

<svg
   version="1.1"
   id="svg2"
   width="64"
   height="64"
   viewBox="0 0 64 64"
   xmlns:inkscape="http://www.inkscape.org/namespaces/inkscape"
   xmlns:sodipodi="http://sodipodi.sourceforge.net/DTD/sodipodi-0.dtd"
   xmlns="http://www.w3.org/2000/svg"
   xmlns:svg="http://www.w3.org/2000/svg"
   xmlns:rdf="http://www.w3.org/1999/02/22-rdf-syntax-ns#"
   xmlns:cc="http://creativecommons.org/ns#"
   xmlns:dc="http://purl.org/dc/elements/1.1/">
  <metadata
     id="metadata8">
    <rdf:RDF>
      <cc:Work
         rdf:about="">
        <dc:format>image/svg+xml</dc:format>
        <dc:type
           rdf:resource="http://purl.org/dc/dcmitype/StillImage" />
        <dc:title />
      </cc:Work>
    </rdf:RDF>
  </metadata>
  <defs
     id="defs6" />
  <sodipodi:namedview
     pagecolor="#ffffff"
     bordercolor="#666666"
     borderopacity="1"
     objecttolerance="10"
     gridtolerance="10"
     guidetolerance="10"
     id="namedview4"
     showgrid="false" />
  <path
     style="fill:#000000"
     d="M 28.287214,60.801065 C 27.713874,60.085479 26.943202,58.515303 26.574611,57.311784 25.75105,54.62271 19.419325,52.180675 17.707936,53.892064 16.023372,55.576628 12.50655,55.217212 10.654988,53.171259 8.7080886,51.01996 8.5483069,48.696138 10.168864,46.101213 11.907407,43.317364 9.6307366,38.639872 5.6933488,36.906125 3.3672208,35.881863 2.4124842,34.736757 2.1777424,32.689528 1.8020818,29.413318 3.4644072,27 6.0967646,27 c 1.0718725,0 2.5487308,-1.34757 3.5063436,-3.199389 1.3986858,-2.704759 1.4632758,-3.728125 0.4177848,-6.619378 -1.1394815,-3.15118 -1.0410885,-3.615583 1.251834,-5.908506 2.298172,-2.2981714 2.752054,-2.393222 5.933887,-1.242656 4.35493,1.574763 9.119933,-0.3301501 9.620341,-3.8459396 0.729953,-5.1285296 9.616137,-5.1285296 10.34609,0 0.500408,3.5157895 5.265411,5.4207026 9.620341,3.8459396 3.181833,-1.150566 3.635715,-1.0555154 5.933887,1.242656 2.292922,2.292923 2.391316,2.757326 1.251834,5.908506 -1.045491,2.891253 -0.980901,3.914619 0.417785,6.619378 C 55.354505,25.65243 56.831363,27 57.903235,27 c 2.632358,0 4.294683,2.413318 3.919023,5.689528 -0.234742,2.047229 -1.189479,3.192335 -3.515607,4.216597 -3.937388,1.733747 -6.214058,6.411239 -4.475515,9.195088 1.682411,2.693969 1.441152,5.342395 -0.659877,7.243799 -2.104788,1.904808 -5.269753,2.156494 -6.879195,0.547052 -1.989822,-1.989822 -7.752461,0.703071 -9.370605,4.378902 -1.096477,2.490793 -2.12681,3.297865 -4.506634,3.530099 -1.696846,0.165586 -3.554271,-0.284414 -4.127611,-1 z m 8.723282,-20.466336 c 4.791774,-2.830571 6.209191,-8.075433 3.5645,-13.189704 -3.441533,-6.655191 -13.708459,-6.655191 -17.149992,0 C 21.102837,31.635602 21.658511,34.858511 25.4,38.6 c 3.835911,3.835911 7.20207,4.33885 11.610496,1.734729 z"
     id="path20"
     inkscape:connector-curvature="0" />
</svg>
