<?xml version="1.0" encoding="UTF-8"?>
<svg height="16px" viewBox="0 0 16 16" width="16px" xmlns="http://www.w3.org/2000/svg">
  <path d="M 5.3080354,0 C 4.9107143,0.0044651 4.5312503,0.1607134 4.25,0.4419621 L 0.4419646,4.2499759 C 0.1562503,4.5312246 0,4.9106865 0,5.3124705 v 5.3794335 c 0,0.397319 0.1562503,0.781246 0.4419646,1.062495 l 3.8035714,3.808013 c 0.2812503,0.281248 0.6651783,0.441962 1.0624994,0.437497 h 5.3839296 c 0.397321,0 0.776785,-0.156249 1.058035,-0.437497 l 3.808035,-3.808013 C 15.84375,11.47315 16,11.089223 16,10.691904 V 5.3124705 C 16,4.9106865 15.84375,4.5312246 15.558035,4.2499759 L 11.754464,0.4419621 C 11.473214,0.1607134 11.089286,0 10.691965,0 Z" fill="#222222" style="fill:#cc0000;fill-opacity:1;stroke-width:1.14285" />
</svg>
