<?xml version="1.0" encoding="UTF-8"?>
<svg height="16px" viewBox="0 0 16 16" width="16px" xmlns="http://www.w3.org/2000/svg">
  <path d="M 8 0 C 3.5937544 0 0 3.5937544 0 8 C 0 12.406246 3.5937544 16 8 16 C 12.406246 16 16 12.406246 16 8 C 16 3.5937544 12.406246 0 8 0 z " style="fill:#1ac366;fill-opacity:1" />
  <path d="m 11.398438,4.5039062 c -0.261719,0.027344 -0.503907,0.1601555 -0.671876,0.3632813 l -3.8007808,4.6445313 -1.71875,-1.71875 c -0.3906246,-0.3906247 -1.0234378,-0.3906247 -1.4140624,0 -0.3906247,0.3906246 -0.3906247,1.0234378 0,1.4140624 l 2.5,2.4999998 C 6.4921876,11.90625 6.7695315,12.011719 7.0507812,12 7.332031,11.984375 7.5937497,11.851562 7.7734375,11.632812 L 12.273438,6.1328125 c 0.347655,-0.4257806 0.285156,-1.0546874 -0.140626,-1.40625 -0.20703,-0.1679678 -0.468751,-0.246093 -0.734374,-0.21875 z" fill="#3b4d27" style="fill:#ffffff" />
</svg>
