<?xml version="1.0" encoding="UTF-8" standalone="no"?>
<!-- Generator: Adobe Illustrator 15.1.0, SVG Export Plug-In . SVG Version: 6.00 Build 0)  -->

<svg
   version="1.1"
   id="Layer_1"
   x="0px"
   y="0px"
   width="64px"
   height="64px"
   viewBox="0 0 64 64"
   enable-background="new 0 0 64 64"
   xml:space="preserve"
   xmlns:inkscape="http://www.inkscape.org/namespaces/inkscape"
   xmlns:sodipodi="http://sodipodi.sourceforge.net/DTD/sodipodi-0.dtd"
   xmlns="http://www.w3.org/2000/svg"
   xmlns:svg="http://www.w3.org/2000/svg"><defs
   id="defs1292" /><sodipodi:namedview
   id="namedview1290"
   pagecolor="#ffffff"
   bordercolor="#000000"
   borderopacity="0.25"
   inkscape:showpageshadow="2"
   inkscape:pageopacity="0.0"
   inkscape:pagecheckerboard="0"
   inkscape:deskcolor="#d1d1d1"
   showgrid="false" />
<path
   d="M41,30H21v-2h20V30z M41,24H21v2h20V24z M41,20H21v2h20V20z M41,16H21v2h20V16z M16,51V15  c0-1,1-2,2-2h26c1,0,2,1,2,2v18.631c0.054,0.008,0.1,0.01,0.155,0.018c1.044,0.153,1.88,0.946,2.088,1.981l0.219,1.092  c0.112,0.044,0.224,0.09,0.335,0.138l0.944-0.626c0.081-0.054,0.173-0.078,0.258-0.121V14c0-2-2-4-4-4H16c-2,0-4,1.954-4,3.977  C12,14,12,52,12,52c0,2,2,4,4,4h16.062c-0.338-0.771-0.277-1.675,0.206-2.396L32.673,53H18C17,53,16,52,16,51z M39.203,36.86  c0.111-0.047,0.223-0.093,0.335-0.138L39.683,36H37.76c0.171,0.065,0.342,0.13,0.5,0.234L39.203,36.86z M21,48v2h8.655  c-0.107-0.738-0.159-1.38-0.163-2H21z M30.846,44H21v2h8.635c0.011-0.08,0.015-0.149,0.027-0.231  C29.774,45.017,30.22,44.378,30.846,44z M41,33.941V32H21v2h19.9C40.933,33.979,40.966,33.96,41,33.941z M33.744,37.701  c0.472-0.47,0.996-0.913,1.648-1.395c0.177-0.13,0.37-0.228,0.567-0.306H21v2h12.467C33.56,37.902,33.65,37.795,33.744,37.701z   M31.989,40H21v2h11.138C31.809,41.376,31.758,40.651,31.989,40z M53.213,50.273c-0.227,0.926-0.594,1.813-1.09,2.634l0.002,0.107  l1.399,2.098c-0.386,0.516-0.739,0.931-1.11,1.301c-0.37,0.371-0.785,0.725-1.301,1.11l-2.097-1.399l-0.107-0.002  c-0.819,0.496-1.706,0.863-2.635,1.091l-0.074,0.078l-0.495,2.472C45.065,59.856,44.522,59.9,44,59.9s-1.065-0.043-1.705-0.137  l-0.495-2.472l-0.074-0.078c-0.926-0.227-1.813-0.594-2.634-1.09l-0.107,0.002l-2.098,1.399c-0.516-0.386-0.931-0.739-1.301-1.11  c-0.371-0.37-0.725-0.785-1.11-1.301l1.399-2.098l0.002-0.107c-0.497-0.821-0.863-1.708-1.09-2.634l-0.078-0.074l-2.473-0.494  C32.143,49.062,32.1,48.519,32.1,48c0-0.518,0.043-1.062,0.136-1.705l2.473-0.494l0.078-0.074c0.228-0.93,0.595-1.816,1.091-2.634  l-0.002-0.107l-1.399-2.098c0.386-0.517,0.74-0.932,1.11-1.301c0.37-0.37,0.784-0.724,1.301-1.11l2.098,1.399l0.107,0.002  c0.821-0.497,1.708-0.863,2.634-1.09l0.074-0.078l0.494-2.473C42.938,36.143,43.481,36.1,44,36.1s1.062,0.043,1.705,0.136  l0.494,2.473l0.074,0.078c0.93,0.228,1.816,0.595,2.634,1.091l0.107-0.002l2.098-1.399c0.517,0.386,0.932,0.74,1.301,1.11  c0.37,0.37,0.724,0.784,1.11,1.301l-1.399,2.098l-0.002,0.107c0.496,0.818,0.863,1.705,1.091,2.634l0.078,0.074l2.472,0.495  C55.856,46.935,55.9,47.478,55.9,48c0,0.522-0.043,1.065-0.137,1.705l-2.472,0.495L53.213,50.273z M48.1,48  c0-2.26-1.839-4.1-4.1-4.1s-4.1,1.839-4.1,4.1c0,2.261,1.839,4.101,4.1,4.101S48.1,50.261,48.1,48z"
   id="path1287"
   style="fill:#000000" />
</svg>
