<?xml version="1.0" encoding="UTF-8"?>
<svg height="16px" viewBox="0 0 16 16" width="16px" xmlns="http://www.w3.org/2000/svg">
  <g fill="#222222" transform="translate(0.934715,-1.9204071)">
    <path d="m 6.9882915,3.4204071 c -4.0624999,0 -5.9230065,3.5485931 -5.9230065,3.5485931 l 1.7937798,0.8861895 c 0,0 1.2560386,-2.4705882 4.1292267,-2.4705882 2.0646139,0 3.1126205,1.3695649 3.5012075,2.0370836 H 9.5749462 c -1.3384659,0 -1.5818238,1.2314586 -1.5818238,1.998722 l 6.0289846,-0.046036 0.04318,-5.8925831 c -1.048007,0 -2.041063,0.514066 -2.041063,1.6381067 v 0.9130439 l -0.0628,0.061381 C 11.199946,5.0239872 9.6338222,3.4204071 6.9882915,3.4204071 Z m 0,0" style="stroke-width:0.993397"/>
    <path d="m 7.1422785,16.420407 c 4.0625005,0 5.9230065,-3.548593 5.9230065,-3.548593 l -1.79378,-0.88619 c 0,0 -1.256039,2.470589 -4.1292265,2.470589 -2.0646139,0 -3.1126203,-1.369565 -3.5012075,-2.037084 h 0.9145529 c 1.3384658,0 1.5818238,-1.231459 1.5818238,-1.998722 L 0.10846258,10.466438 0.065285,16.359022 c 1.0480074,0 2.0410627,-0.514066 2.0410627,-1.638107 v -0.913044 l 0.062802,-0.06138 c 0.7614749,1.070337 2.3275982,2.673918 4.9731288,2.673916 z m 0,0" style="stroke-width:0.993397"/>
  </g>
</svg>
