<?xml version="1.0" encoding="UTF-8" standalone="no"?>
<!-- Created with Inkscape (http://www.inkscape.org/) -->

<svg
   version="1.1"
   id="svg3465"
   width="64"
   height="64"
   viewBox="0 0 64 64"
   xmlns="http://www.w3.org/2000/svg"
   xmlns:svg="http://www.w3.org/2000/svg">
  <defs
     id="defs3469">
    <linearGradient
       x1="0"
       y1="0"
       x2="1"
       y2="0"
       gradientUnits="userSpaceOnUse"
       gradientTransform="matrix(0,-48,-48,0,31.999512,56)"
       spreadMethod="pad"
       id="linearGradient3495">
      <stop
         style="stop-opacity:1;stop-color:#f99a9a"
         offset="0"
         id="stop3491" />
      <stop
         style="stop-opacity:1;stop-color:#df281c"
         offset="1"
         id="stop3493" />
    </linearGradient>
    <clipPath
       clipPathUnits="userSpaceOnUse"
       id="clipPath3509">
      <path
         d="M 0,64 H 64 V 0 H 0 Z"
         id="path3507" />
    </clipPath>
    <clipPath
       clipPathUnits="userSpaceOnUse"
       id="clipPath3517">
      <path
         d="M 10.106,42.7568 H 54 V 10 H 10.106 Z"
         id="path3515" />
    </clipPath>
  </defs>
  <g
     id="g3473"
     transform="matrix(1.3333333,0,0,-1.3333333,0,85.333333)">
    <g
       id="g3475"
       transform="matrix(0.92307695,0,0,0.92307695,14.058462,16)"
       style="stroke-width:1.08333">
      <path
         d="M 0,0 -15.23,15.23 V 36.77 L 0,52 H 21.539 L 36.77,36.77 V 15.23 L 21.539,0 Z"
         style="fill:#808080;fill-opacity:1;fill-rule:evenodd;stroke:none;stroke-width:1.08333"
         id="path3477" />
    </g>
    <g
       id="g3479"
       transform="matrix(0.92307695,0,0,0.92307695,-5.5389233,10.461538)"
       style="stroke-width:1.08333">
      <g
         id="g3481"
         style="stroke-width:1.08333">
        <g
           id="g3487"
           style="stroke-width:1.08333">
          <g
             id="g3489"
             style="stroke-width:1.08333">
            <path
               d="M 22.059,8 8,22.059 V 41.942 L 22.059,56 H 41.941 L 56,41.942 V 22.059 L 41.941,8 Z"
               style="fill:url(#linearGradient3495);fill-rule:evenodd;stroke:none;stroke-width:1.08333"
               id="path3497" />
          </g>
        </g>
      </g>
    </g>
    <g
       id="g3499"
       transform="matrix(0.92307695,0,0,0.92307695,15.587723,19.692308)"
       style="stroke-width:1.08333">
      <path
         d="M 0,0 -12.887,12.888 V 31.113 L 0,44 H 18.225 L 31.113,31.113 V 12.888 L 18.225,0 Z"
         style="fill:#ee3333;fill-opacity:1;fill-rule:evenodd;stroke:none;stroke-width:1.08333"
         id="path3501" />
    </g>
    <g
       id="g3503"
       transform="matrix(0.92307695,0,0,0.92307695,-5.5389233,10.461538)"
       style="stroke-width:1.08333">
      <g
         id="g3505"
         clip-path="url(#clipPath3509)"
         style="stroke-width:1.08333">
        <g
           id="g3511"
           style="stroke-width:1.08333">
          <g
             id="g3513"
             style="stroke-width:1.08333" />
          <g
             id="g3525"
             style="stroke-width:1.08333">
            <g
               clip-path="url(#clipPath3517)"
               opacity="0.0899963"
               id="g3523"
               style="stroke-width:1.12757">
              <g
                 transform="translate(22.8872,10)"
                 id="g3521"
                 style="stroke-width:1.08333">
                <path
                   d="m 0,0 h 18.225 l 12.888,12.888 v 18.225 l -1.644,1.644 C 13.427,30.155 -1.097,23.05 -12.781,12.782 Z"
                   style="fill:#000000;fill-opacity:1;fill-rule:evenodd;stroke:none;stroke-width:1.08333"
                   id="path3519" />
              </g>
            </g>
          </g>
        </g>
      </g>
    </g>
  </g>
</svg>
