<?xml version="1.0" encoding="UTF-8"?>
<!--Generator: Apple Native CoreSVG 232.5-->
<!DOCTYPE svg
PUBLIC "-//W3C//DTD SVG 1.1//EN"
       "http://www.w3.org/Graphics/SVG/1.1/DTD/svg11.dtd">
<svg version="1.1" xmlns="http://www.w3.org/2000/svg" xmlns:xlink="http://www.w3.org/1999/xlink" width="3300" height="2200">
 <g id="Notes">
  <rect height="2200" id="artboard" style="fill:white;opacity:1" width="3300" x="0" y="0"/>
  <line style="fill:none;stroke:black;opacity:1;stroke-width:0.5;" x1="263" x2="3036" y1="292" y2="292"/>
  <text style="stroke:none;fill:black;font-family:sans-serif;font-size:13;font-weight:bold;" transform="matrix(1 0 0 1 263 322)">Weight/Scale Variations</text>
  <text style="stroke:none;fill:black;font-family:sans-serif;font-size:13;text-anchor:middle;" transform="matrix(1 0 0 1 559.711 322)">Ultralight</text>
  <text style="stroke:none;fill:black;font-family:sans-serif;font-size:13;text-anchor:middle;" transform="matrix(1 0 0 1 856.422 322)">Thin</text>
  <text style="stroke:none;fill:black;font-family:sans-serif;font-size:13;text-anchor:middle;" transform="matrix(1 0 0 1 1153.13 322)">Light</text>
  <text style="stroke:none;fill:black;font-family:sans-serif;font-size:13;text-anchor:middle;" transform="matrix(1 0 0 1 1449.84 322)">Regular</text>
  <text style="stroke:none;fill:black;font-family:sans-serif;font-size:13;text-anchor:middle;" transform="matrix(1 0 0 1 1746.56 322)">Medium</text>
  <text style="stroke:none;fill:black;font-family:sans-serif;font-size:13;text-anchor:middle;" transform="matrix(1 0 0 1 2043.27 322)">Semibold</text>
  <text style="stroke:none;fill:black;font-family:sans-serif;font-size:13;text-anchor:middle;" transform="matrix(1 0 0 1 2339.98 322)">Bold</text>
  <text style="stroke:none;fill:black;font-family:sans-serif;font-size:13;text-anchor:middle;" transform="matrix(1 0 0 1 2636.69 322)">Heavy</text>
  <text style="stroke:none;fill:black;font-family:sans-serif;font-size:13;text-anchor:middle;" transform="matrix(1 0 0 1 2933.4 322)">Black</text>
  <line style="fill:none;stroke:black;opacity:1;stroke-width:0.5;" x1="263" x2="3036" y1="1903" y2="1903"/>
  <g transform="matrix(0.2 0 0 0.2 263 1933)">
   <path d="m46.2402 4.15039c21.5332 0 39.4531-17.8711 39.4531-39.4043s-17.9688-39.4043-39.502-39.4043c-21.4844 0-39.3555 17.8711-39.3555 39.4043s17.9199 39.4043 39.4043 39.4043Zm0-7.42188c-17.7246 0-31.8848-14.209-31.8848-31.9824s14.1113-31.9824 31.8359-31.9824c17.7734 0 32.0312 14.209 32.0312 31.9824s-14.209 31.9824-31.9824 31.9824Zm-17.9688-31.9824c0 2.14844 1.51367 3.61328 3.75977 3.61328h10.498v10.5957c0 2.19727 1.46484 3.71094 3.61328 3.71094 2.24609 0 3.71094-1.51367 3.71094-3.71094v-10.5957h10.5957c2.19727 0 3.71094-1.46484 3.71094-3.61328 0-2.19727-1.51367-3.71094-3.71094-3.71094h-10.5957v-10.5469c0-2.24609-1.46484-3.75977-3.71094-3.75977-2.14844 0-3.61328 1.51367-3.61328 3.75977v10.5469h-10.498c-2.24609 0-3.75977 1.51367-3.75977 3.71094Z"/>
  </g>
  <g transform="matrix(0.2 0 0 0.2 281.506 1933)">
   <path d="m58.5449 14.5508c27.2461 0 49.8047-22.6074 49.8047-49.8047 0-27.2461-22.6074-49.8047-49.8535-49.8047-27.1973 0-49.7559 22.5586-49.7559 49.8047 0 27.1973 22.6074 49.8047 49.8047 49.8047Zm0-8.30078c-23.0469 0-41.4551-18.457-41.4551-41.5039s18.3594-41.5039 41.4062-41.5039 41.5527 18.457 41.5527 41.5039-18.457 41.5039-41.5039 41.5039Zm-22.6562-41.5039c0 2.39258 1.66016 4.00391 4.15039 4.00391h14.3555v14.4043c0 2.44141 1.66016 4.15039 4.05273 4.15039 2.44141 0 4.15039-1.66016 4.15039-4.15039v-14.4043h14.4043c2.44141 0 4.15039-1.61133 4.15039-4.00391 0-2.44141-1.70898-4.15039-4.15039-4.15039h-14.4043v-14.3555c0-2.49023-1.70898-4.19922-4.15039-4.19922-2.39258 0-4.05273 1.70898-4.05273 4.19922v14.3555h-14.3555c-2.49023 0-4.15039 1.70898-4.15039 4.15039Z"/>
  </g>
  <g transform="matrix(0.2 0 0 0.2 304.924 1933)">
   <path d="m74.8535 28.3203c34.8145 0 63.623-28.8086 63.623-63.5742 0-34.8145-28.8574-63.623-63.6719-63.623-34.7656 0-63.5254 28.8086-63.5254 63.623 0 34.7656 28.8086 63.5742 63.5742 63.5742Zm0-9.08203c-30.1758 0-54.4434-24.3164-54.4434-54.4922 0-30.2246 24.2188-54.4922 54.3945-54.4922 30.2246 0 54.541 24.2676 54.541 54.4922 0 30.1758-24.2676 54.4922-54.4922 54.4922Zm-28.8574-54.4922c0 2.58789 1.85547 4.39453 4.58984 4.39453h19.7266v19.7754c0 2.68555 1.85547 4.58984 4.44336 4.58984 2.68555 0 4.54102-1.85547 4.54102-4.58984v-19.7754h19.7754c2.68555 0 4.58984-1.80664 4.58984-4.39453 0-2.73438-1.85547-4.58984-4.58984-4.58984h-19.7754v-19.7266c0-2.73438-1.85547-4.63867-4.54102-4.63867-2.58789 0-4.44336 1.9043-4.44336 4.63867v19.7266h-19.7266c-2.73438 0-4.58984 1.85547-4.58984 4.58984Z"/>
  </g>
  <text style="stroke:none;fill:black;font-family:sans-serif;font-size:13;font-weight:bold;" transform="matrix(1 0 0 1 263 1953)">Design Variations</text>
  <text style="stroke:none;fill:black;font-family:sans-serif;font-size:13;" transform="matrix(1 0 0 1 263 1971)">Symbols are supported in up to nine weights and three scales.</text>
  <text style="stroke:none;fill:black;font-family:sans-serif;font-size:13;" transform="matrix(1 0 0 1 263 1989)">For optimal layout with text and other symbols, vertically align</text>
  <text style="stroke:none;fill:black;font-family:sans-serif;font-size:13;" transform="matrix(1 0 0 1 263 2007)">symbols with the adjacent text.</text>
  <line style="fill:none;stroke:#00AEEF;stroke-width:0.5;opacity:1.0;" x1="776" x2="776" y1="1919" y2="1933"/>
  <g transform="matrix(0.2 0 0 0.2 776 1933)">
   <path d="m16.5527 0.78125c2.58789 0 3.85742-0.976562 4.78516-3.71094l6.29883-17.2363h28.8086l6.29883 17.2363c0.927734 2.73438 2.19727 3.71094 4.73633 3.71094 2.58789 0 4.24805-1.5625 4.24805-4.00391 0-0.830078-0.146484-1.61133-0.537109-2.63672l-22.9004-60.9863c-1.12305-2.97852-3.125-4.49219-6.25-4.49219-3.02734 0-5.07812 1.46484-6.15234 4.44336l-22.9004 61.084c-0.390625 1.02539-0.537109 1.80664-0.537109 2.63672 0 2.44141 1.5625 3.95508 4.10156 3.95508Zm13.4766-28.3691 11.8652-32.8613h0.244141l11.8652 32.8613Z"/>
  </g>
  <line style="fill:none;stroke:#00AEEF;stroke-width:0.5;opacity:1.0;" x1="792.836" x2="792.836" y1="1919" y2="1933"/>
  <text style="stroke:none;fill:black;font-family:sans-serif;font-size:13;font-weight:bold;" transform="matrix(1 0 0 1 776 1953)">Margins</text>
  <text style="stroke:none;fill:black;font-family:sans-serif;font-size:13;" transform="matrix(1 0 0 1 776 1971)">Leading and trailing margins on the left and right side of each symbol</text>
  <text style="stroke:none;fill:black;font-family:sans-serif;font-size:13;" transform="matrix(1 0 0 1 776 1989)">can be adjusted by modifying the x-location of the margin guidelines.</text>
  <text style="stroke:none;fill:black;font-family:sans-serif;font-size:13;" transform="matrix(1 0 0 1 776 2007)">Modifications are automatically applied proportionally to all</text>
  <text style="stroke:none;fill:black;font-family:sans-serif;font-size:13;" transform="matrix(1 0 0 1 776 2025)">scales and weights.</text>
  <g transform="matrix(0.2 0 0 0.2 1289 1933)">
   <path d="m14.209 9.32617 8.49609 8.54492c4.29688 4.3457 9.22852 4.05273 13.8672-1.07422l53.4668-58.9355-4.83398-4.88281-53.0762 58.3984c-1.75781 2.00195-3.41797 2.49023-5.76172 0.146484l-5.85938-5.81055c-2.34375-2.29492-1.80664-4.00391 0.195312-5.81055l57.373-54.0039-4.88281-4.83398-57.959 54.4434c-4.93164 4.58984-5.32227 9.47266-1.02539 13.8184Zm32.0801-90.9668c-2.09961 2.05078-2.24609 4.93164-1.07422 6.88477 1.17188 1.80664 3.4668 2.97852 6.68945 2.14844 7.32422-1.70898 14.9414-2.00195 22.0703 2.68555l-2.92969 7.27539c-1.70898 4.15039-0.830078 7.08008 1.85547 9.81445l11.4746 11.5723c2.44141 2.44141 4.49219 2.53906 7.32422 2.05078l5.32227-0.976562 3.32031 3.36914-0.195312 2.7832c-0.195312 2.49023 0.439453 4.39453 2.88086 6.78711l3.80859 3.71094c2.39258 2.39258 5.46875 2.53906 7.8125 0.195312l14.5508-14.5996c2.34375-2.34375 2.24609-5.32227-0.146484-7.71484l-3.85742-3.80859c-2.39258-2.39258-4.24805-3.17383-6.64062-2.97852l-2.88086 0.244141-3.22266-3.17383 1.2207-5.61523c0.634766-2.83203-0.146484-5.0293-3.07617-7.95898l-10.9863-10.9375c-16.6992-16.6016-38.8672-16.2109-53.3203-1.75781Zm7.4707 1.85547c12.1582-8.88672 28.6133-7.37305 39.7461 3.75977l12.1582 12.0605c1.17188 1.17188 1.36719 2.09961 1.02539 3.80859l-1.61133 7.42188 7.51953 7.42188 4.93164-0.292969c1.26953-0.0488281 1.66016 0.0488281 2.63672 1.02539l2.88086 2.88086-12.207 12.207-2.88086-2.88086c-0.976562-0.976562-1.12305-1.36719-1.07422-2.68555l0.341797-4.88281-7.4707-7.42188-7.61719 1.26953c-1.61133 0.341797-2.34375 0.195312-3.56445-0.976562l-10.0098-10.0098c-1.26953-1.17188-1.41602-2.00195-0.634766-3.85742l4.39453-10.4492c-7.8125-7.27539-17.9688-10.4004-28.125-7.42188-0.78125 0.195312-1.07422-0.439453-0.439453-0.976562Z"/>
  </g>
  <text style="stroke:none;fill:black;font-family:sans-serif;font-size:13;font-weight:bold;" transform="matrix(1 0 0 1 1289 1953)">Exporting</text>
  <text style="stroke:none;fill:black;font-family:sans-serif;font-size:13;" transform="matrix(1 0 0 1 1289 1971)">Symbols should be outlined when exporting to ensure the</text>
  <text style="stroke:none;fill:black;font-family:sans-serif;font-size:13;" transform="matrix(1 0 0 1 1289 1989)">design is preserved when submitting to Xcode.</text>
  <text id="template-version" style="stroke:none;fill:black;font-family:sans-serif;font-size:13;text-anchor:end;" transform="matrix(1 0 0 1 3036 1933)">Template v.2.0</text>
  <text style="stroke:none;fill:black;font-family:sans-serif;font-size:13;text-anchor:end;" transform="matrix(1 0 0 1 3036 1951)">Requires Xcode 12 or greater</text>
  <text id="descriptive-name" style="stroke:none;fill:black;font-family:sans-serif;font-size:13;text-anchor:end;" transform="matrix(1 0 0 1 3036 1969)">Generated from text.viewfinder</text>
  <text style="stroke:none;fill:black;font-family:sans-serif;font-size:13;text-anchor:end;" transform="matrix(1 0 0 1 3036 1987)">Typeset at 100.0 points</text>
  <text style="stroke:none;fill:black;font-family:sans-serif;font-size:13;" transform="matrix(1 0 0 1 263 726)">Small</text>
  <text style="stroke:none;fill:black;font-family:sans-serif;font-size:13;" transform="matrix(1 0 0 1 263 1156)">Medium</text>
  <text style="stroke:none;fill:black;font-family:sans-serif;font-size:13;" transform="matrix(1 0 0 1 263 1586)">Large</text>
 </g>
 <g id="Guides">
  <g id="H-reference" style="fill:#27AAE1;stroke:none;" transform="matrix(1 0 0 1 339 696)">
   <path d="M0.993654 0L3.63775 0L29.3281-67.1323L30.0303-67.1323L30.0303-70.459L28.1226-70.459ZM11.6885-24.4799L46.9815-24.4799L46.2315-26.7285L12.4385-26.7285ZM55.1196 0L57.7637 0L30.6382-70.459L29.4326-70.459L29.4326-67.1323Z"/>
  </g>
  <line id="Baseline-S" style="fill:none;stroke:#27AAE1;opacity:1;stroke-width:0.5;" x1="263" x2="3036" y1="696" y2="696"/>
  <line id="Capline-S" style="fill:none;stroke:#27AAE1;opacity:1;stroke-width:0.5;" x1="263" x2="3036" y1="625.541" y2="625.541"/>
  <g id="H-reference" style="fill:#27AAE1;stroke:none;" transform="matrix(1 0 0 1 339 1126)">
   <path d="M0.993654 0L3.63775 0L29.3281-67.1323L30.0303-67.1323L30.0303-70.459L28.1226-70.459ZM11.6885-24.4799L46.9815-24.4799L46.2315-26.7285L12.4385-26.7285ZM55.1196 0L57.7637 0L30.6382-70.459L29.4326-70.459L29.4326-67.1323Z"/>
  </g>
  <line id="Baseline-M" style="fill:none;stroke:#27AAE1;opacity:1;stroke-width:0.5;" x1="263" x2="3036" y1="1126" y2="1126"/>
  <line id="Capline-M" style="fill:none;stroke:#27AAE1;opacity:1;stroke-width:0.5;" x1="263" x2="3036" y1="1055.54" y2="1055.54"/>
  <g id="H-reference" style="fill:#27AAE1;stroke:none;" transform="matrix(1 0 0 1 339 1556)">
   <path d="M0.993654 0L3.63775 0L29.3281-67.1323L30.0303-67.1323L30.0303-70.459L28.1226-70.459ZM11.6885-24.4799L46.9815-24.4799L46.2315-26.7285L12.4385-26.7285ZM55.1196 0L57.7637 0L30.6382-70.459L29.4326-70.459L29.4326-67.1323Z"/>
  </g>
  <line id="Baseline-L" style="fill:none;stroke:#27AAE1;opacity:1;stroke-width:0.5;" x1="263" x2="3036" y1="1556" y2="1556"/>
  <line id="Capline-L" style="fill:none;stroke:#27AAE1;opacity:1;stroke-width:0.5;" x1="263" x2="3036" y1="1485.54" y2="1485.54"/>
  <line id="left-margin" style="fill:none;stroke:#00AEEF;stroke-width:0.5;opacity:1.0;" x1="1389.61" x2="1389.61" y1="1030.79" y2="1150.12"/>
  <line id="right-margin" style="fill:none;stroke:#00AEEF;stroke-width:0.5;opacity:1.0;" x1="1510.08" x2="1510.08" y1="1030.79" y2="1150.12"/>
 </g>
 <g id="Symbols">
  <g id="Black-L" transform="matrix(1 0 0 1 2852.32 1556)">
   <path d="M49.9553-57.514C49.9553-54.5348 52.3947-52.0953 55.3739-52.0953L106.779-52.0953C109.757-52.0953 112.197-54.5348 112.197-57.514C112.197-60.4919 109.757-62.9326 106.779-62.9326L55.3739-62.9326C52.3947-62.9326 49.9553-60.4919 49.9553-57.514ZM49.9553-35.6154C49.9553-32.5778 52.3947-30.1383 55.3739-30.1383L106.779-30.1383C109.757-30.1383 112.197-32.5778 112.197-35.6154C112.197-38.5349 109.757-40.9756 106.779-40.9756L55.3739-40.9756C52.3947-40.9756 49.9553-38.5349 49.9553-35.6154ZM49.9553-13.5999C49.9553-10.622 52.4531-8.18132 55.4323-8.18132L88.9484-8.18132C91.9068-8.18132 94.3462-10.622 94.3462-13.5999C94.3462-16.5583 91.9068-18.9977 88.9484-18.9977L55.4323-18.9977C52.4531-18.9977 49.9553-16.5583 49.9553-13.5999ZM26.0745-51.5288C32.5575-51.5288 36.065-55.1168 36.065-61.5997L36.065-73.6469C36.065-78.2589 38.2704-80.1891 42.5864-80.1891L54.7376-80.1891C61.279-80.1891 64.8073-83.7174 64.8073-90.1796C64.8073-96.6625 61.279-100.191 54.7376-100.191L39.8556-100.191C24.7123-100.191 16.084-91.5834 16.084-76.4817L16.084-61.5997C16.084-55.0583 19.6123-51.5288 26.0745-51.5288ZM136.077-51.5288C142.561-51.5288 146.068-55.0583 146.068-61.5997L146.068-76.4817C146.068-91.581 137.461-100.191 122.296-100.191L107.415-100.191C100.873-100.191 97.3442-96.6625 97.3442-90.1796C97.3442-83.7174 100.931-80.1891 107.415-80.1891L119.565-80.1891C123.876-80.1891 126.088-78.2589 126.088-73.6469L126.088-61.5997C126.088-55.0583 129.615-51.5288 136.077-51.5288ZM39.8556 29.8147L54.7376 29.8147C61.279 29.8147 64.8073 26.2864 64.8073 19.8242C64.8073 13.3412 61.2206 9.81289 54.7376 9.81289L42.5864 9.81289C38.2704 9.81289 36.065 7.88272 36.065 3.27071L36.065-8.75563C36.065-15.3178 32.5366-18.8474 26.0745-18.8474C19.5915-18.8474 16.084-15.3178 16.084-8.75563L16.084 6.10552C16.084 21.2072 24.7123 29.8147 39.8556 29.8147ZM107.415 29.8147L122.296 29.8147C137.461 29.8147 146.068 21.2048 146.068 6.10552L146.068-8.75563C146.068-15.3178 142.54-18.8474 136.077-18.8474C129.594-18.8474 126.088-15.2594 126.088-8.75563L126.088 3.27071C126.088 7.88272 123.876 9.81289 119.565 9.81289L107.415 9.81289C100.873 9.81289 97.3442 13.3412 97.3442 19.8242C97.3442 26.2864 100.873 29.8147 107.415 29.8147Z"/>
  </g>
  <g id="Heavy-L" transform="matrix(1 0 0 1 2556.49 1556)">
   <path d="M48.5387-57.9351C48.5387-55.1314 50.8209-52.8492 53.6247-52.8492L106.777-52.8492C109.575-52.8492 111.863-55.1314 111.863-57.9351C111.863-60.7332 109.575-63.021 106.777-63.021L53.6247-63.021C50.8209-63.021 48.5387-60.7332 48.5387-57.9351ZM48.5387-35.515C48.5387-32.6666 50.8209-30.3845 53.6247-30.3845L106.777-30.3845C109.575-30.3845 111.863-32.6666 111.863-35.515C111.863-38.2685 109.575-40.5563 106.777-40.5563L53.6247-40.5563C50.8209-40.5563 48.5387-38.2685 48.5387-35.515ZM48.5387-13.0056C48.5387-10.2075 50.8656-7.91971 53.6693-7.91971L88.4371-7.91971C91.2106-7.91971 93.4928-10.2075 93.4928-13.0056C93.4928-15.7792 91.2106-18.0614 88.4371-18.0614L53.6693-18.0614C50.8656-18.0614 48.5387-15.7792 48.5387-13.0056ZM24.8342-52.7683C30.5147-52.7683 33.5844-55.9184 33.5844-61.5989L33.5844-74.3835C33.5844-79.4902 36.118-81.7849 40.9557-81.7849L53.8912-81.7849C59.6163-81.7849 62.7162-84.8848 62.7162-90.5351C62.7162-96.2157 59.6163-99.3155 53.8912-99.3155L38.8315-99.3155C24.2188-99.3155 16.084-91.2109 16.084-76.6586L16.084-61.5989C16.084-55.8737 19.1838-52.7683 24.8342-52.7683ZM135.562-52.7683C141.248-52.7683 144.312-55.8737 144.312-61.5989L144.312-76.6586C144.312-91.1997 136.213-99.3155 121.564-99.3155L106.51-99.3155C100.78-99.3155 97.6797-96.2157 97.6797-90.5351C97.6797-84.8848 100.824-81.7849 106.51-81.7849L119.44-81.7849C124.255-81.7849 126.817-79.4902 126.817-74.3835L126.817-61.5989C126.817-55.8737 129.911-52.7683 135.562-52.7683ZM38.8315 28.9482L53.8912 28.9482C59.6163 28.9482 62.7162 25.8483 62.7162 20.198C62.7162 14.5174 59.5717 11.4176 53.8912 11.4176L40.9557 11.4176C36.118 11.4176 33.5844 9.12288 33.5844 4.01611L33.5844-8.73825C33.5844-14.4936 30.4845-17.5991 24.8342-17.5991C19.1536-17.5991 16.084-14.4936 16.084-8.73825L16.084 6.29127C16.084 20.8436 24.2188 28.9482 38.8315 28.9482ZM106.51 28.9482L121.564 28.9482C136.213 28.9482 144.312 20.8323 144.312 6.29127L144.312-8.73825C144.312-14.4936 141.218-17.5991 135.562-17.5991C129.881-17.5991 126.817-14.449 126.817-8.73825L126.817 4.01611C126.817 9.12288 124.255 11.4176 119.44 11.4176L106.51 11.4176C100.78 11.4176 97.6797 14.5174 97.6797 20.198C97.6797 25.8483 100.78 28.9482 106.51 28.9482Z"/>
  </g>
  <g id="Bold-L" transform="matrix(1 0 0 1 2260.93 1556)">
   <path d="M46.906-58.3607C46.906-55.8095 48.9587-53.7567 51.5099-53.7567L106.598-53.7567C109.136-53.7567 111.202-55.8095 111.202-58.3607C111.202-60.8987 109.136-62.9647 106.598-62.9647L51.5099-62.9647C48.9587-62.9647 46.906-60.8987 46.906-58.3607ZM46.906-35.392C46.906-32.8116 48.9587-30.7588 51.5099-30.7588L106.598-30.7588C109.136-30.7588 111.202-32.8116 111.202-35.392C111.202-37.9008 109.136-39.9668 106.598-39.9668L51.5099-39.9668C48.9587-39.9668 46.906-37.9008 46.906-35.392ZM46.906-12.3649C46.906-9.82687 48.9879-7.76089 51.5392-7.76089L87.7473-7.76089C90.2605-7.76089 92.3133-9.82687 92.3133-12.3649C92.3133-14.8781 90.2605-16.9309 87.7473-16.9309L51.5392-16.9309C48.9879-16.9309 46.906-14.8781 46.906-12.3649ZM23.3049-54.1709C27.9941-54.1709 30.5257-56.783 30.5257-61.4722L30.5257-75.186C30.5257-80.9372 33.4665-83.6853 38.987-83.6853L52.8907-83.6853C57.6092-83.6853 60.1788-86.2549 60.1788-90.9061C60.1788-95.5954 57.6092-98.165 52.8907-98.165L37.5412-98.165C23.6265-98.165 16.084-90.6604 16.084-76.8217L16.084-61.4722C16.084-56.7538 18.6536-54.1709 23.3049-54.1709ZM134.79-54.1709C139.492-54.1709 142.011-56.7538 142.011-61.4722L142.011-76.8217C142.011-90.634 134.519-98.165 120.553-98.165L105.217-98.165C100.485-98.165 97.9158-95.5954 97.9158-90.9061C97.9158-86.2549 100.515-83.6853 105.217-83.6853L119.108-83.6853C124.575-83.6853 127.582-80.9372 127.582-75.186L127.582-61.4722C127.582-56.7538 130.139-54.1709 134.79-54.1709ZM37.5412 27.8129L52.8907 27.8129C57.6092 27.8129 60.1788 25.2433 60.1788 20.592C60.1788 15.9028 57.58 13.3331 52.8907 13.3331L38.987 13.3331C33.4665 13.3331 30.5257 10.5851 30.5257 4.83389L30.5257-8.84193C30.5257-13.5984 27.9561-16.1812 23.3049-16.1812C18.6156-16.1812 16.084-13.5984 16.084-8.84193L16.084 6.46961C16.084 20.3083 23.6265 27.8129 37.5412 27.8129ZM105.217 27.8129L120.553 27.8129C134.519 27.8129 142.011 20.2819 142.011 6.46961L142.011-8.84193C142.011-13.5984 139.454-16.1812 134.79-16.1812C130.101-16.1812 127.582-13.5692 127.582-8.84193L127.582 4.83389C127.582 10.5851 124.575 13.3331 119.108 13.3331L105.217 13.3331C100.485 13.3331 97.9158 15.9028 97.9158 20.592C97.9158 25.2433 100.485 27.8129 105.217 27.8129Z"/>
  </g>
  <g id="Semibold-L" transform="matrix(1 0 0 1 1965.01 1556)">
   <path d="M45.7803-58.6541C45.7803-56.2769 47.6749-54.3824 50.0521-54.3824L106.475-54.3824C108.833-54.3824 110.746-56.2769 110.746-58.6541C110.746-61.0128 108.833-62.9259 106.475-62.9259L50.0521-62.9259C47.6749-62.9259 45.7803-61.0128 45.7803-58.6541ZM45.7803-35.3072C45.7803-32.9115 47.6749-31.0169 50.0521-31.0169L106.475-31.0169C108.833-31.0169 110.746-32.9115 110.746-35.3072C110.746-37.6473 108.833-39.5604 106.475-39.5604L50.0521-39.5604C47.6749-39.5604 45.7803-37.6473 45.7803-35.3072ZM45.7803-11.9232C45.7803-9.56446 47.6935-7.65141 50.0707-7.65141L87.2717-7.65141C89.6055-7.65141 91.5001-9.56446 91.5001-11.9232C91.5001-14.257 89.6055-16.1516 87.2717-16.1516L50.0707-16.1516C47.6935-16.1516 45.7803-14.257 45.7803-11.9232ZM22.2506-55.1378C26.2564-55.1378 28.4171-57.379 28.4171-61.3848L28.4171-75.7393C28.4171-81.9348 31.6387-84.9953 37.6298-84.9953L52.2011-84.9953C56.2255-84.9953 58.4296-87.1994 58.4296-91.1619C58.4296-95.1677 56.2255-97.3718 52.2011-97.3718L36.6517-97.3718C23.2182-97.3718 16.084-90.2809 16.084-76.9342L16.084-61.3848C16.084-57.3604 18.2881-55.1378 22.2506-55.1378ZM134.258-55.1378C138.282-55.1378 140.424-57.3604 140.424-61.3848L140.424-76.9342C140.424-90.244 133.352-97.3718 119.856-97.3718L104.326-97.3718C100.283-97.3718 98.0786-95.1677 98.0786-91.1619C98.0786-87.1994 100.301-84.9953 104.326-84.9953L118.878-84.9953C124.796-84.9953 128.11-81.9348 128.11-75.7393L128.11-61.3848C128.11-57.3604 130.295-55.1378 134.258-55.1378ZM36.6517 27.0302L52.2011 27.0302C56.2255 27.0302 58.4296 24.8261 58.4296 20.8637C58.4296 16.8578 56.2069 14.6537 52.2011 14.6537L37.6298 14.6537C31.6387 14.6537 28.4171 11.5932 28.4171 5.39766L28.4171-8.91341C28.4171-12.9812 26.213-15.2038 22.2506-15.2038C18.2447-15.2038 16.084-12.9812 16.084-8.91341L16.084 6.59256C16.084 19.9393 23.2182 27.0302 36.6517 27.0302ZM104.326 27.0302L119.856 27.0302C133.352 27.0302 140.424 19.9024 140.424 6.59256L140.424-8.91341C140.424-12.9812 138.239-15.2038 134.258-15.2038C130.252-15.2038 128.11-12.9626 128.11-8.91341L128.11 5.39766C128.11 11.5932 124.796 14.6537 118.878 14.6537L104.326 14.6537C100.283 14.6537 98.0786 16.8578 98.0786 20.8637C98.0786 24.8261 100.283 27.0302 104.326 27.0302Z"/>
  </g>
  <g id="Medium-L" transform="matrix(1 0 0 1 1668.9 1556)">
   <path d="M44.9268-58.8766C44.9268-56.6314 46.7015-54.8567 48.9467-54.8567L106.381-54.8567C108.604-54.8567 110.401-56.6314 110.401-58.8766C110.401-61.0993 108.604-62.8964 106.381-62.8964L48.9467-62.8964C46.7015-62.8964 44.9268-61.0993 44.9268-58.8766ZM44.9268-35.2429C44.9268-32.9872 46.7015-31.2126 48.9467-31.2126L106.381-31.2126C108.604-31.2126 110.401-32.9872 110.401-35.2429C110.401-37.4552 108.604-39.2523 106.381-39.2523L48.9467-39.2523C46.7015-39.2523 44.9268-37.4552 44.9268-35.2429ZM44.9268-11.5882C44.9268-9.36549 46.712-7.56839 48.9572-7.56839L86.9111-7.56839C89.1089-7.56839 90.8835-9.36549 90.8835-11.5882C90.8835-13.786 89.1089-15.5606 86.9111-15.5606L48.9572-15.5606C46.712-15.5606 44.9268-13.786 44.9268-11.5882ZM21.4511-55.871C24.9388-55.871 26.8183-57.8309 26.8183-61.3186L26.8183-76.1588C26.8183-82.6912 30.2527-85.9887 36.6007-85.9887L51.6781-85.9887C55.1763-85.9887 57.1032-87.9156 57.1032-91.3558C57.1032-94.8435 55.1763-96.7704 51.6781-96.7704L35.9773-96.7704C22.9086-96.7704 16.084-89.9932 16.084-77.0194L16.084-61.3186C16.084-57.8204 18.0109-55.871 21.4511-55.871ZM133.854-55.871C137.364-55.871 139.221-57.8204 139.221-61.3186L139.221-77.0194C139.221-89.9483 132.467-96.7704 119.328-96.7704L103.65-96.7704C100.129-96.7704 98.202-94.8435 98.202-91.3558C98.202-87.9156 100.139-85.9887 103.65-85.9887L118.705-85.9887C124.963-85.9887 128.509-82.6912 128.509-76.1588L128.509-61.3186C128.509-57.8204 130.414-55.871 133.854-55.871ZM35.9773 26.4368L51.6781 26.4368C55.1763 26.4368 57.1032 24.5098 57.1032 21.0696C57.1032 17.582 55.1658 15.655 51.6781 15.655L36.6007 15.655C30.2527 15.655 26.8183 12.3576 26.8183 5.82514L26.8183-8.9676C26.8183-12.5132 24.8913-14.4626 21.4511-14.4626C17.9635-14.4626 16.084-12.5132 16.084-8.9676L16.084 6.68578C16.084 19.6596 22.9086 26.4368 35.9773 26.4368ZM103.65 26.4368L119.328 26.4368C132.467 26.4368 139.221 19.6146 139.221 6.68578L139.221-8.9676C139.221-12.5132 137.317-14.4626 133.854-14.4626C130.366-14.4626 128.509-12.5027 128.509-8.9676L128.509 5.82514C128.509 12.3576 124.963 15.655 118.705 15.655L103.65 15.655C100.129 15.655 98.202 17.582 98.202 21.0696C98.202 24.5098 100.129 26.4368 103.65 26.4368Z"/>
  </g>
  <g id="Regular-L" transform="matrix(1 0 0 1 1372.98 1556)">
   <path d="M43.8136-59.1668C43.8136-57.0937 45.4318-55.4755 47.5048-55.4755L106.259-55.4755C108.304-55.4755 109.95-57.0937 109.95-59.1668C109.95-61.2122 108.304-62.858 106.259-62.858L47.5048-62.858C45.4318-62.858 43.8136-61.2122 43.8136-59.1668ZM43.8136-35.1591C43.8136-33.086 45.4318-31.4678 47.5048-31.4678L106.259-31.4678C108.304-31.4678 109.95-33.086 109.95-35.1591C109.95-37.2045 108.304-38.8503 106.259-38.8503L47.5048-38.8503C45.4318-38.8503 43.8136-37.2045 43.8136-35.1591ZM43.8136-11.1514C43.8136-9.10597 45.4318-7.4601 47.5048-7.4601L86.4408-7.4601C88.4611-7.4601 90.0793-9.10597 90.0793-11.1514C90.0793-13.1717 88.4611-14.7899 86.4408-14.7899L47.5048-14.7899C45.4318-14.7899 43.8136-13.1717 43.8136-11.1514ZM20.4084-56.8273C23.2202-56.8273 24.7328-58.4204 24.7328-61.2322L24.7328-76.706C24.7328-83.6778 28.4449-87.2843 35.2584-87.2843L50.996-87.2843C53.8078-87.2843 55.3732-88.8498 55.3732-91.6088C55.3732-94.4205 53.8078-95.986 50.996-95.986L35.0976-95.986C22.5048-95.986 16.084-89.6179 16.084-77.1306L16.084-61.2322C16.084-58.4204 17.6494-56.8273 20.4084-56.8273ZM133.328-56.8273C136.167-56.8273 137.652-58.4204 137.652-61.2322L137.652-77.1306C137.652-89.5626 131.312-95.986 118.639-95.986L102.768-95.986C99.9284-95.986 98.363-94.4205 98.363-91.6088C98.363-88.8498 99.9284-87.2843 102.768-87.2843L118.478-87.2843C125.181-87.2843 129.031-83.6778 129.031-76.706L129.031-61.2322C129.031-58.4204 130.569-56.8273 133.328-56.8273ZM35.0976 25.6627L50.996 25.6627C53.8078 25.6627 55.3732 24.0973 55.3732 21.3383C55.3732 18.5265 53.8078 16.9611 50.996 16.9611L35.2584 16.9611C28.4449 16.9611 24.7328 13.3545 24.7328 6.38272L24.7328-9.0383C24.7328-11.9028 23.1674-13.4959 20.4084-13.4959C17.5967-13.4959 16.084-11.9028 16.084-9.0383L16.084 6.80737C16.084 19.2946 22.5048 25.6627 35.0976 25.6627ZM102.768 25.6627L118.639 25.6627C131.312 25.6627 137.652 19.2393 137.652 6.80737L137.652-9.0383C137.652-11.9028 136.114-13.4959 133.328-13.4959C130.516-13.4959 129.031-11.9028 129.031-9.0383L129.031 6.38272C129.031 13.3545 125.181 16.9611 118.478 16.9611L102.768 16.9611C99.9284 16.9611 98.363 18.5265 98.363 21.3383C98.363 24.0973 99.9284 25.6627 102.768 25.6627Z"/>
  </g>
  <g id="Light-L" transform="matrix(1 0 0 1 1077.47 1556)">
   <path d="M43.47-58.8423C43.47-57.17 44.7065-55.9335 46.3788-55.9335L104.999-55.9335C106.625-55.9335 107.908-57.17 107.908-58.8423C107.908-60.4679 106.625-61.7511 104.999-61.7511L46.3788-61.7511C44.7065-61.7511 43.47-60.4679 43.47-58.8423ZM43.47-35.0827C43.47-33.4105 44.7065-32.174 46.3788-32.174L104.999-32.174C106.625-32.174 107.908-33.4105 107.908-35.0827C107.908-36.7083 106.625-37.9915 104.999-37.9915L46.3788-37.9915C44.7065-37.9915 43.47-36.7083 43.47-35.0827ZM43.47-11.3231C43.47-9.69761 44.7065-8.41437 46.3788-8.41437L85.6011-8.41437C87.2397-8.41437 88.4762-9.69761 88.4762-11.3231C88.4762-12.9617 87.2397-14.1982 85.6011-14.1982L46.3788-14.1982C44.7065-14.1982 43.47-12.9617 43.47-11.3231ZM19.3969-56.9419C21.5407-56.9419 22.7098-58.1914 22.7098-60.3352L22.7098-76.5533C22.7098-84.174 26.7082-88.105 34.2278-88.105L50.6143-88.105C52.7581-88.105 53.9609-89.3078 53.9609-91.4179C53.9609-93.5617 52.7581-94.7645 50.6143-94.7645L34.067-94.7645C22.2185-94.7645 16.084-88.6636 16.084-76.8825L16.084-60.3352C16.084-58.1914 17.2868-56.9419 19.3969-56.9419ZM131.935-56.9419C134.125-56.9419 135.247-58.1914 135.247-60.3352L135.247-76.8825C135.247-88.5701 129.193-94.7645 117.264-94.7645L100.764-94.7645C98.5734-94.7645 97.3705-93.5617 97.3705-91.4179C97.3705-89.3078 98.5734-88.105 100.764-88.105L117.104-88.105C124.436-88.105 128.668-84.174 128.668-76.5533L128.668-60.3352C128.668-58.1914 129.824-56.9419 131.935-56.9419ZM34.067 24.4794L50.6143 24.4794C52.7581 24.4794 53.9609 23.2766 53.9609 21.1665C53.9609 19.0227 52.7581 17.8199 50.6143 17.8199L34.2278 17.8199C26.7082 17.8199 22.7098 13.8889 22.7098 6.26821L22.7098-9.91622C22.7098-12.0937 21.507-13.3432 19.3969-13.3432C17.2531-13.3432 16.084-12.0937 16.084-9.91622L16.084 6.59744C16.084 18.3785 22.2185 24.4794 34.067 24.4794ZM100.764 24.4794L117.264 24.4794C129.193 24.4794 135.247 18.285 135.247 6.59744L135.247-9.91622C135.247-12.0937 134.091-13.3432 131.935-13.3432C129.791-13.3432 128.668-12.0937 128.668-9.91622L128.668 6.26821C128.668 13.8889 124.436 17.8199 117.104 17.8199L100.764 17.8199C98.5734 17.8199 97.3705 19.0227 97.3705 21.1665C97.3705 23.2766 98.5734 24.4794 100.764 24.4794Z"/>
  </g>
  <g id="Thin-L" transform="matrix(1 0 0 1 782.347 1556)">
   <path d="M43.0157-58.4132C43.0157-57.271 43.7473-56.5394 44.8895-56.5394L103.333-56.5394C104.404-56.5394 105.207-57.271 105.207-58.4132C105.207-59.4834 104.404-60.2871 103.333-60.2871L44.8895-60.2871C43.7473-60.2871 43.0157-59.4834 43.0157-58.4132ZM43.0157-34.9818C43.0157-33.8396 43.7473-33.1079 44.8895-33.1079L103.333-33.1079C104.404-33.1079 105.207-33.8396 105.207-34.9818C105.207-36.052 104.404-36.8556 103.333-36.8556L44.8895-36.8556C43.7473-36.8556 43.0157-36.052 43.0157-34.9818ZM43.0157-11.5503C43.0157-10.4801 43.7473-9.67646 44.8895-9.67646L84.4904-9.67646C85.6242-9.67646 86.3559-10.4801 86.3559-11.5503C86.3559-12.6841 85.6242-13.4157 84.4904-13.4157L44.8895-13.4157C43.7473-13.4157 43.0157-12.6841 43.0157-11.5503ZM18.0591-57.0933C19.3194-57.0933 20.0342-57.8885 20.0342-59.1488L20.0342-76.3514C20.0342-84.8303 24.4111-89.1904 32.8648-89.1904L50.1095-89.1904C51.3698-89.1904 52.093-89.9136 52.093-91.1655C52.093-92.4258 51.3698-93.149 50.1095-93.149L32.7039-93.149C21.8399-93.149 16.084-87.4015 16.084-76.5544L16.084-59.1488C16.084-57.8885 16.8072-57.0933 18.0591-57.0933ZM130.092-57.0933C131.424-57.0933 132.067-57.8885 132.067-59.1488L132.067-76.5544C132.067-87.2576 126.391-93.149 115.447-93.149L98.1135-93.149C96.7812-93.149 96.058-92.4258 96.058-91.1655C96.058-89.9136 96.7812-89.1904 98.1135-89.1904L115.286-89.1904C123.452-89.1904 128.189-84.8303 128.189-76.3514L128.189-59.1488C128.189-57.8885 128.84-57.0933 130.092-57.0933ZM32.7039 22.9144L50.1095 22.9144C51.3698 22.9144 52.093 22.1912 52.093 20.9393C52.093 19.679 51.3698 18.9558 50.1095 18.9558L32.8648 18.9558C24.4111 18.9558 20.0342 14.5957 20.0342 6.11675L20.0342-11.0773C20.0342-12.3461 19.3109-13.1413 18.0591-13.1413C16.7988-13.1413 16.084-12.3461 16.084-11.0773L16.084 6.31978C16.084 17.1669 21.8399 22.9144 32.7039 22.9144ZM98.1135 22.9144L115.447 22.9144C126.391 22.9144 132.067 17.023 132.067 6.31978L132.067-11.0773C132.067-12.3461 131.416-13.1413 130.092-13.1413C128.832-13.1413 128.189-12.3461 128.189-11.0773L128.189 6.11675C128.189 14.5957 123.452 18.9558 115.286 18.9558L98.1135 18.9558C96.7812 18.9558 96.058 19.679 96.058 20.9393C96.058 22.1912 96.7812 22.9144 98.1135 22.9144Z"/>
  </g>
  <g id="Ultralight-L" transform="matrix(1 0 0 1 486.45 1556)">
   <path d="M42.783-58.1934C42.783-57.3227 43.256-56.8496 44.1267-56.8496L102.48-56.8496C103.266-56.8496 103.824-57.3227 103.824-58.1934C103.824-58.9792 103.266-59.5372 102.48-59.5372L44.1267-59.5372C43.256-59.5372 42.783-58.9792 42.783-58.1934ZM42.783-34.9301C42.783-34.0594 43.256-33.5863 44.1267-33.5863L102.48-33.5863C103.266-33.5863 103.824-34.0594 103.824-34.9301C103.824-35.7158 103.266-36.2738 102.48-36.2738L44.1267-36.2738C43.256-36.2738 42.783-35.7158 42.783-34.9301ZM42.783-11.6667C42.783-10.8809 43.256-10.3229 44.1267-10.3229L83.9216-10.3229C84.7968-10.3229 85.2698-10.8809 85.2698-11.6667C85.2698-12.5419 84.7968-13.015 83.9216-13.015L44.1267-13.015C43.256-13.015 42.783-12.5419 42.783-11.6667ZM17.3739-57.1709C18.1817-57.1709 18.6637-57.7334 18.6637-58.5412L18.6637-76.2479C18.6637-85.1664 23.2346-89.7463 32.1666-89.7463L49.8509-89.7463C50.6587-89.7463 51.1363-90.2239 51.1363-91.0362C51.1363-91.844 50.6587-92.3216 49.8509-92.3216L32.0058-92.3216C21.646-92.3216 16.084-86.7551 16.084-76.3863L16.084-58.5412C16.084-57.7334 16.5616-57.1709 17.3739-57.1709ZM129.148-57.1709C130.041-57.1709 130.438-57.7334 130.438-58.5412L130.438-76.3863C130.438-86.5853 124.956-92.3216 114.516-92.3216L96.756-92.3216C95.8633-92.3216 95.3857-91.844 95.3857-91.0362C95.3857-90.2239 95.8633-89.7463 96.756-89.7463L114.355-89.7463C122.948-89.7463 127.943-85.1664 127.943-76.2479L127.943-58.5412C127.943-57.7334 128.336-57.1709 129.148-57.1709ZM32.0058 22.1128L49.8509 22.1128C50.6587 22.1128 51.1363 21.6353 51.1363 20.823C51.1363 20.0152 50.6587 19.5376 49.8509 19.5376L32.1666 19.5376C23.2346 19.5376 18.6637 14.9577 18.6637 6.03918L18.6637-11.6721C18.6637-12.4754 18.1861-13.0379 17.3739-13.0379C16.5661-13.0379 16.084-12.4754 16.084-11.6721L16.084 6.17756C16.084 16.5463 21.646 22.1128 32.0058 22.1128ZM96.756 22.1128L114.516 22.1128C124.956 22.1128 130.438 16.3765 130.438 6.17756L130.438-11.6721C130.438-12.4754 130.045-13.0379 129.148-13.0379C128.34-13.0379 127.943-12.4754 127.943-11.6721L127.943 6.03918C127.943 14.9577 122.948 19.5376 114.355 19.5376L96.756 19.5376C95.8633 19.5376 95.3857 20.0152 95.3857 20.823C95.3857 21.6353 95.8633 22.1128 96.756 22.1128Z"/>
  </g>
  <g id="Black-M" transform="matrix(1 0 0 1 2870 1126)">
   <path d="M39.8733-52.0883C39.8733-49.6837 41.8467-47.7104 44.2513-47.7104L82.5572-47.7104C84.962-47.7104 86.9351-49.6837 86.9351-52.0883C86.9351-54.4932 84.962-56.4663 82.5572-56.4663L44.2513-56.4663C41.8467-56.4663 39.8733-54.4932 39.8733-52.0883ZM39.8733-35.6044C39.8733-33.1427 41.8467-31.1693 44.2513-31.1693L82.5572-31.1693C84.962-31.1693 86.9351-33.1427 86.9351-35.6044C86.9351-37.9521 84.962-39.9252 82.5572-39.9252L44.2513-39.9252C41.8467-39.9252 39.8733-37.9521 39.8733-35.6044ZM39.8733-19.0062C39.8733-16.6013 41.9038-14.6283 44.3084-14.6283L69.2378-14.6283C71.6369-14.6283 73.6102-16.6013 73.6102-19.0062C73.6102-21.4053 71.6369-23.3787 69.2378-23.3787L44.3084-23.3787C41.9038-23.3787 39.8733-21.4053 39.8733-19.0062ZM21.1299-46.8075C26.7517-46.8075 29.7989-49.917 29.7989-55.5388L29.7989-64.3393C29.7989-67.5752 31.2643-68.8012 34.2553-68.8012L43.0833-68.8012C48.7621-68.8012 51.8148-71.8539 51.8148-77.4702C51.8148-83.0919 48.7621-86.1446 43.0833-86.1446L31.6184-86.1446C19.5311-86.1446 12.4609-79.08 12.4609-67.0036L12.4609-55.5388C12.4609-49.8599 15.5136-46.8075 21.1299-46.8075ZM105.679-46.8075C111.3-46.8075 114.348-49.8599 114.348-55.5388L114.348-67.0036C114.348-79.0806 107.283-86.1446 95.1903-86.1446L83.7252-86.1446C78.0466-86.1446 74.9939-83.0919 74.9939-77.4702C74.9939-71.8539 78.1037-68.8012 83.7252-68.8012L92.5535-68.8012C95.5455-68.8012 97.0095-67.5752 97.0095-64.3393L97.0095-55.5388C97.0095-49.8599 100.063-46.8075 105.679-46.8075ZM31.6184 15.7474L43.0833 15.7474C48.7621 15.7474 51.8148 12.6947 51.8148 7.07843C51.8148 1.45667 48.705-1.59604 43.0833-1.59604L34.2553-1.59604C31.2643-1.59604 29.7989-2.82209 29.7989-6.0579L29.7989-14.853C29.7989-20.5373 26.7462-23.5897 21.1299-23.5897C15.5082-23.5897 12.4609-20.5373 12.4609-14.853L12.4609-3.3936C12.4609 8.68276 19.5311 15.7474 31.6184 15.7474ZM83.7252 15.7474L95.1903 15.7474C107.283 15.7474 114.348 8.68333 114.348-3.3936L114.348-14.853C114.348-20.5373 111.295-23.5897 105.679-23.5897C100.057-23.5897 97.0095-20.4802 97.0095-14.853L97.0095-6.0579C97.0095-2.82209 95.5455-1.59604 92.5535-1.59604L83.7252-1.59604C78.0466-1.59604 74.9939 1.45667 74.9939 7.07843C74.9939 12.6947 78.0466 15.7474 83.7252 15.7474Z"/>
  </g>
  <g id="Heavy-M" transform="matrix(1 0 0 1 2574.03 1126)">
   <path d="M38.5203-52.5299C38.5203-50.2599 40.3751-48.405 42.6451-48.405L82.6714-48.405C84.9391-48.405 86.7963-50.2599 86.7963-52.5299C86.7963-54.7977 84.9391-56.6548 82.6714-56.6548L42.6451-56.6548C40.3751-56.6548 38.5203-54.7977 38.5203-52.5299ZM38.5203-35.5133C38.5203-33.1996 40.3751-31.3448 42.6451-31.3448L82.6714-31.3448C84.9391-31.3448 86.7963-33.1996 86.7963-35.5133C86.7963-37.7374 84.9391-39.5946 82.6714-39.5946L42.6451-39.5946C40.3751-39.5946 38.5203-37.7374 38.5203-35.5133ZM38.5203-18.4094C38.5203-16.1416 40.4187-14.2845 42.6888-14.2845L68.8154-14.2845C71.069-14.2845 72.9238-16.1416 72.9238-18.4094C72.9238-20.663 71.069-22.5179 68.8154-22.5179L42.6888-22.5179C40.4187-22.5179 38.5203-20.663 38.5203-18.4094ZM20.0107-48.0086C24.9097-48.0086 27.5605-50.7218 27.5605-55.6207L27.5605-65.0735C27.5605-68.7331 29.3203-70.2856 32.7562-70.2856L42.291-70.2856C47.2336-70.2856 49.9009-72.9528 49.9009-77.8354C49.9009-82.7343 47.2336-85.4016 42.291-85.4016L30.7123-85.4016C19.075-85.4016 12.4609-78.8039 12.4609-67.1995L12.4609-55.6207C12.4609-50.6782 15.1282-48.0086 20.0107-48.0086ZM105.304-48.0086C110.205-48.0086 112.853-50.6782 112.853-55.6207L112.853-67.1995C112.853-78.7994 106.258-85.4016 94.602-85.4016L83.0255-85.4016C78.0807-85.4016 75.4134-82.7343 75.4134-77.8354C75.4134-72.9528 78.1243-70.2856 83.0255-70.2856L92.558-70.2856C95.9848-70.2856 97.756-68.7331 97.756-65.0735L97.756-55.6207C97.756-50.6782 100.421-48.0086 105.304-48.0086ZM30.7123 15.0095L42.291 15.0095C47.2336 15.0095 49.9009 12.3422 49.9009 7.45966C49.9009 2.5607 47.19-0.106557 42.291-0.106557L32.7562-0.106557C29.3203-0.106557 27.5605-1.65904 27.5605-5.31866L27.5605-14.755C27.5605-19.714 24.8933-22.3835 20.0107-22.3835C15.1118-22.3835 12.4609-19.714 12.4609-14.755L12.4609-3.19265C12.4609 8.41181 19.075 15.0095 30.7123 15.0095ZM83.0255 15.0095L94.602 15.0095C106.258 15.0095 112.853 8.40726 112.853-3.19265L112.853-14.755C112.853-19.714 110.188-22.3835 105.304-22.3835C100.405-22.3835 97.756-19.6703 97.756-14.755L97.756-5.31866C97.756-1.65904 95.9848-0.106557 92.558-0.106557L83.0255-0.106557C78.0807-0.106557 75.4134 2.5607 75.4134 7.45966C75.4134 12.3422 78.0807 15.0095 83.0255 15.0095Z"/>
  </g>
  <g id="Bold-M" transform="matrix(1 0 0 1 2278.16 1126)">
   <path d="M37.0066-53.024C37.0066-50.9044 38.7289-49.1821 40.8485-49.1821L82.7991-49.1821C84.9135-49.1821 86.641-50.9044 86.641-53.024C86.641-55.1383 84.9135-56.8658 82.7991-56.8658L40.8485-56.8658C38.7289-56.8658 37.0066-55.1383 37.0066-53.024ZM37.0066-35.4114C37.0066-33.2633 38.7289-31.541 40.8485-31.541L82.7991-31.541C84.9135-31.541 86.641-33.2633 86.641-35.4114C86.641-37.4972 84.9135-39.2247 82.7991-39.2247L40.8485-39.2247C38.7289-39.2247 37.0066-37.4972 37.0066-35.4114ZM37.0066-17.7417C37.0066-15.6274 38.7575-13.8999 40.877-13.8999L68.3428-13.8999C70.4337-13.8999 72.156-15.6274 72.156-17.7417C72.156-19.8327 70.4337-21.5549 68.3428-21.5549L40.877-21.5549C38.7575-21.5549 37.0066-19.8327 37.0066-17.7417ZM18.7588-49.3523C22.8492-49.3523 25.0566-51.622 25.0566-55.7124L25.0566-65.8947C25.0566-70.0284 27.1457-71.9461 31.0794-71.9461L41.4048-71.9461C45.5237-71.9461 47.7598-74.1821 47.7598-78.2439C47.7598-82.3343 45.5237-84.5704 41.4048-84.5704L29.6986-84.5704C18.5648-84.5704 12.4609-78.4951 12.4609-67.4185L12.4609-55.7124C12.4609-51.5935 14.697-49.3523 18.7588-49.3523ZM104.884-49.3523C108.979-49.3523 111.182-51.5935 111.182-55.7124L111.182-67.4185C111.182-78.4849 105.111-84.5704 93.9438-84.5704L82.2428-84.5704C78.1188-84.5704 75.8827-82.3343 75.8827-78.2439C75.8827-74.1821 78.1473-71.9461 82.2428-71.9461L92.5631-71.9461C96.4762-71.9461 98.591-70.0284 98.591-65.8947L98.591-55.7124C98.591-51.5935 100.822-49.3523 104.884-49.3523ZM29.6986 14.184L41.4048 14.184C45.5237 14.184 47.7598 11.9479 47.7598 7.88612C47.7598 3.79572 45.4952 1.55964 41.4048 1.55964L31.0794 1.55964C27.1457 1.55964 25.0566-0.358006 25.0566-4.49171L25.0566-14.6454C25.0566-18.7929 22.8206-21.0342 18.7588-21.0342C14.6684-21.0342 12.4609-18.7929 12.4609-14.6454L12.4609-2.96787C12.4609 8.10871 18.5648 14.184 29.6986 14.184ZM82.2428 14.184L93.9438 14.184C105.111 14.184 111.182 8.09844 111.182-2.96787L111.182-14.6454C111.182-18.7929 108.951-21.0342 104.884-21.0342C100.793-21.0342 98.591-18.7644 98.591-14.6454L98.591-4.49171C98.591-0.358006 96.4762 1.55964 92.5631 1.55964L82.2428 1.55964C78.1188 1.55964 75.8827 3.79572 75.8827 7.88612C75.8827 11.9479 78.1188 14.184 82.2428 14.184Z"/>
  </g>
  <g id="Semibold-M" transform="matrix(1 0 0 1 1982.02 1126)">
   <path d="M35.9632-53.3645C35.9632-51.3488 37.5941-49.7179 39.6098-49.7179L82.8872-49.7179C84.8959-49.7179 86.5339-51.3488 86.5339-53.3645C86.5339-55.3732 84.8959-57.0112 82.8872-57.0112L39.6098-57.0112C37.5941-57.0112 35.9632-55.3732 35.9632-53.3645ZM35.9632-35.3412C35.9632-33.3072 37.5941-31.6763 39.6098-31.6763L82.8872-31.6763C84.8959-31.6763 86.5339-33.3072 86.5339-35.3412C86.5339-37.3317 84.8959-38.9697 82.8872-38.9697L39.6098-38.9697C37.5941-38.9697 35.9632-37.3317 35.9632-35.3412ZM35.9632-17.2815C35.9632-15.2728 37.6122-13.6348 39.628-13.6348L68.0171-13.6348C69.9958-13.6348 71.6267-15.2728 71.6267-17.2815C71.6267-19.2602 69.9958-20.8911 68.0171-20.8911L39.628-20.8911C37.6122-20.8911 35.9632-19.2602 35.9632-17.2815ZM17.8957-50.2785C21.4287-50.2785 23.3305-52.2426 23.3305-55.7756L23.3305-66.4609C23.3305-70.9214 25.6466-73.0908 29.9233-73.0908L40.7938-73.0908C44.3449-73.0908 46.2838-75.0296 46.2838-78.5255C46.2838-82.0585 44.3449-83.9974 40.7938-83.9974L28.9998-83.9974C18.2131-83.9974 12.4609-78.2822 12.4609-67.5696L12.4609-55.7756C12.4609-52.2245 14.3998-50.2785 17.8957-50.2785ZM104.594-50.2785C108.134-50.2785 110.029-52.2245 110.029-55.7756L110.029-67.5696C110.029-78.268 104.321-83.9974 93.4901-83.9974L81.7033-83.9974C78.145-83.9974 76.2062-82.0585 76.2062-78.5255C76.2062-75.0296 78.1632-73.0908 81.7033-73.0908L92.5666-73.0908C96.815-73.0908 99.1666-70.9214 99.1666-66.4609L99.1666-55.7756C99.1666-52.2245 101.098-50.2785 104.594-50.2785ZM28.9998 13.6149L40.7938 13.6149C44.3449 13.6149 46.2838 11.6761 46.2838 8.18012C46.2838 4.64714 44.3268 2.70831 40.7938 2.70831L29.9233 2.70831C25.6466 2.70831 23.3305 0.538919 23.3305-3.92161L23.3305-14.5698C23.3305-18.158 21.3916-20.1039 17.8957-20.1039C14.3627-20.1039 12.4609-18.158 12.4609-14.5698L12.4609-2.8129C12.4609 7.89976 18.2131 13.6149 28.9998 13.6149ZM81.7033 13.6149L93.4901 13.6149C104.321 13.6149 110.029 7.88555 110.029-2.8129L110.029-14.5698C110.029-18.158 108.097-20.1039 104.594-20.1039C101.061-20.1039 99.1666-18.1398 99.1666-14.5698L99.1666-3.92161C99.1666 0.538919 96.815 2.70831 92.5666 2.70831L81.7033 2.70831C78.145 2.70831 76.2062 4.64714 76.2062 8.18012C76.2062 11.6761 78.145 13.6149 81.7033 13.6149Z"/>
  </g>
  <g id="Medium-M" transform="matrix(1 0 0 1 1685.75 1126)">
   <path d="M35.172-53.6228C35.172-51.6857 36.7336-50.1241 38.6707-50.1241L82.954-50.1241C84.8825-50.1241 86.4527-51.6857 86.4527-53.6228C86.4527-55.5513 84.8825-57.1215 82.954-57.1215L38.6707-57.1215C36.7336-57.1215 35.172-55.5513 35.172-53.6228ZM35.172-35.2879C35.172-33.3405 36.7336-31.7789 38.6707-31.7789L82.954-31.7789C84.8825-31.7789 86.4527-33.3405 86.4527-35.2879C86.4527-37.2061 84.8825-38.7763 82.954-38.7763L38.6707-38.7763C36.7336-38.7763 35.172-37.2061 35.172-35.2879ZM35.172-16.9325C35.172-15.004 36.7438-13.4338 38.6809-13.4338L67.77-13.4338C69.6637-13.4338 71.2253-15.004 71.2253-16.9325C71.2253-18.8262 69.6637-20.3878 67.77-20.3878L38.6809-20.3878C36.7438-20.3878 35.172-18.8262 35.172-16.9325ZM17.2413-50.9809C20.3516-50.9809 22.0216-52.7132 22.0216-55.8235L22.0216-66.8901C22.0216-71.5985 24.5098-73.9588 29.0468-73.9588L40.3305-73.9588C43.4511-73.9588 45.1646-75.6722 45.1646-78.7391C45.1646-81.8494 43.4511-83.5629 40.3305-83.5629L28.47-83.5629C17.9464-83.5629 12.4609-78.1208 12.4609-67.6841L12.4609-55.8235C12.4609-52.7029 14.1744-50.9809 17.2413-50.9809ZM104.375-50.9809C107.494-50.9809 109.155-52.7029 109.155-55.8235L109.155-67.6841C109.155-78.1036 103.722-83.5629 93.1461-83.5629L81.2941-83.5629C78.1649-83.5629 76.4515-81.8494 76.4515-78.7391C76.4515-75.6722 78.1752-73.9588 81.2941-73.9588L92.5693-73.9588C97.0718-73.9588 99.6031-71.5985 99.6031-66.8901L99.6031-55.8235C99.6031-52.7029 101.308-50.9809 104.375-50.9809ZM28.47 13.1834L40.3305 13.1834C43.4511 13.1834 45.1646 11.4699 45.1646 8.40304C45.1646 5.29272 43.4409 3.57928 40.3305 3.57928L29.0468 3.57928C24.5098 3.57928 22.0216 1.219 22.0216-3.48934L22.0216-14.5125C22.0216-17.6765 20.3082-19.3986 17.2413-19.3986C14.1309-19.3986 12.4609-17.6765 12.4609-14.5125L12.4609-2.6954C12.4609 7.74132 17.9464 13.1834 28.47 13.1834ZM81.2941 13.1834L93.1461 13.1834C103.722 13.1834 109.155 7.72412 109.155-2.6954L109.155-14.5125C109.155-17.6765 107.45-19.3986 104.375-19.3986C101.264-19.3986 99.6031-17.6663 99.6031-14.5125L99.6031-3.48934C99.6031 1.219 97.0718 3.57928 92.5693 3.57928L81.2941 3.57928C78.1649 3.57928 76.4515 5.29272 76.4515 8.40304C76.4515 11.4699 78.1649 13.1834 81.2941 13.1834Z"/>
  </g>
  <g id="Regular-M" transform="matrix(1 0 0 1 1389.61 1126)">
   <path d="M34.14-53.9596C34.14-52.1251 35.6112-50.6539 37.4457-50.6539L83.0411-50.6539C84.8651-50.6539 86.3468-52.1251 86.3468-53.9596C86.3468-55.7835 84.8651-57.2653 83.0411-57.2653L37.4457-57.2653C35.6112-57.2653 34.14-55.7835 34.14-53.9596ZM34.14-35.2184C34.14-33.384 35.6112-31.9128 37.4457-31.9128L83.0411-31.9128C84.8651-31.9128 86.3468-33.384 86.3468-35.2184C86.3468-37.0424 84.8651-38.5241 83.0411-38.5241L37.4457-38.5241C35.6112-38.5241 34.14-37.0424 34.14-35.2184ZM34.14-16.4773C34.14-14.6534 35.6112-13.1716 37.4457-13.1716L67.4479-13.1716C69.2306-13.1716 70.7018-14.6534 70.7018-16.4773C70.7018-18.26 69.2306-19.7312 67.4479-19.7312L37.4457-19.7312C35.6112-19.7312 34.14-18.26 34.14-16.4773ZM16.3877-51.897C18.9467-51.897 20.3144-53.327 20.3144-55.886L20.3144-67.4501C20.3144-72.4817 23.0272-75.0909 27.9035-75.0909L39.7263-75.0909C42.2853-75.0909 43.7048-76.5104 43.7048-79.0176C43.7048-81.5767 42.2853-82.9961 39.7263-82.9961L27.7789-82.9961C17.5986-82.9961 12.4609-77.9102 12.4609-67.8334L12.4609-55.886C12.4609-53.327 13.8804-51.897 16.3877-51.897ZM104.089-51.897C106.658-51.897 108.015-53.327 108.015-55.886L108.015-67.8334C108.015-77.8891 102.94-82.9961 92.6974-82.9961L80.7605-82.9961C78.1909-82.9961 76.7715-81.5767 76.7715-79.0176C76.7715-76.5104 78.1909-75.0909 80.7605-75.0909L92.5727-75.0909C97.4069-75.0909 100.172-72.4817 100.172-67.4501L100.172-55.886C100.172-53.327 101.581-51.897 104.089-51.897ZM27.7789 12.6205L39.7263 12.6205C42.2853 12.6205 43.7048 11.2011 43.7048 8.69381C43.7048 6.13478 42.2853 4.71532 39.7263 4.71532L27.9035 4.71532C23.0272 4.71532 20.3144 2.10607 20.3144-2.92551L20.3144-14.4378C20.3144-17.0486 18.895-18.4786 16.3877-18.4786C13.8286-18.4786 12.4609-17.0486 12.4609-14.4378L12.4609-2.54214C12.4609 7.53466 17.5986 12.6205 27.7789 12.6205ZM80.7605 12.6205L92.6974 12.6205C102.94 12.6205 108.015 7.51356 108.015-2.54214L108.015-14.4378C108.015-17.0486 106.606-18.4786 104.089-18.4786C101.53-18.4786 100.172-17.0486 100.172-14.4378L100.172-2.92551C100.172 2.10607 97.4069 4.71532 92.5727 4.71532L80.7605 4.71532C78.1909 4.71532 76.7715 6.13478 76.7715 8.69381C76.7715 11.2011 78.1909 12.6205 80.7605 12.6205Z"/>
  </g>
  <g id="Light-M" transform="matrix(1 0 0 1 1093.97 1126)">
   <path d="M33.832-53.6687C33.832-52.1936 34.961-51.0646 36.4361-51.0646L81.9118-51.0646C83.3593-51.0646 84.5159-52.1936 84.5159-53.6687C84.5159-55.1162 83.3593-56.2729 81.9118-56.2729L36.4361-56.2729C34.961-56.2729 33.832-55.1162 33.832-53.6687ZM33.832-35.15C33.832-33.6748 34.961-32.5459 36.4361-32.5459L81.9118-32.5459C83.3593-32.5459 84.5159-33.6748 84.5159-35.15C84.5159-36.5975 83.3593-37.7541 81.9118-37.7541L36.4361-37.7541C34.961-37.7541 33.832-36.5975 33.832-35.15ZM33.832-16.6313C33.832-15.1838 34.961-14.0271 36.4361-14.0271L66.695-14.0271C68.1355-14.0271 69.2645-15.1838 69.2645-16.6313C69.2645-18.0718 68.1355-19.2008 66.695-19.2008L36.4361-19.2008C34.961-19.2008 33.832-18.0718 33.832-16.6313ZM15.4808-51.9997C17.4409-51.9997 18.5006-53.1217 18.5006-55.0818L18.5006-67.3132C18.5006-72.9265 21.4701-75.8267 26.9795-75.8267L39.3841-75.8267C41.3442-75.8267 42.4386-76.921 42.4386-78.8465C42.4386-80.8067 41.3442-81.901 39.3841-81.901L26.8549-81.901C17.3419-81.901 12.4609-77.0547 12.4609-67.611L12.4609-55.0818C12.4609-53.1217 13.5553-51.9997 15.4808-51.9997ZM102.839-51.9997C104.827-51.9997 105.859-53.1217 105.859-55.0818L105.859-67.611C105.859-76.9994 101.041-81.901 91.4654-81.901L78.9639-81.901C76.976-81.901 75.8817-80.8067 75.8817-78.8465C75.8817-76.921 76.976-75.8267 78.9639-75.8267L91.3408-75.8267C96.7395-75.8267 99.8473-72.9265 99.8473-67.3132L99.8473-55.0818C99.8473-53.1217 100.914-51.9997 102.839-51.9997ZM26.8549 11.5597L39.3841 11.5597C41.3442 11.5597 42.4386 10.4653 42.4386 8.53981C42.4386 6.57966 41.3442 5.48532 39.3841 5.48532L26.9795 5.48532C21.4701 5.48532 18.5006 2.58518 18.5006-3.02818L18.5006-15.2249C18.5006-17.2197 17.4063-18.3417 15.4808-18.3417C13.5206-18.3417 12.4609-17.2197 12.4609-15.2249L12.4609-2.73036C12.4609 6.71334 17.3419 11.5597 26.8549 11.5597ZM78.9639 11.5597L91.4654 11.5597C101.041 11.5597 105.859 6.65801 105.859-2.73036L105.859-15.2249C105.859-17.2197 104.793-18.3417 102.839-18.3417C100.879-18.3417 99.8473-17.2197 99.8473-15.2249L99.8473-3.02818C99.8473 2.58518 96.7395 5.48532 91.3408 5.48532L78.9639 5.48532C76.976 5.48532 75.8817 6.57966 75.8817 8.53981C75.8817 10.4653 76.976 11.5597 78.9639 11.5597Z"/>
  </g>
  <g id="Thin-M" transform="matrix(1 0 0 1 798.688 1126)">
   <path d="M33.4246-53.284C33.4246-52.2841 34.101-51.6077 35.1009-51.6077L80.4182-51.6077C81.3678-51.6077 82.0945-52.2841 82.0945-53.284C82.0945-54.2336 81.3678-54.9603 80.4182-54.9603L35.1009-54.9603C34.101-54.9603 33.4246-54.2336 33.4246-53.284ZM33.4246-35.0595C33.4246-34.0596 34.101-33.3832 35.1009-33.3832L80.4182-33.3832C81.3678-33.3832 82.0945-34.0596 82.0945-35.0595C82.0945-36.0091 81.3678-36.7358 80.4182-36.7358L35.1009-36.7358C34.101-36.7358 33.4246-36.0091 33.4246-35.0595ZM33.4246-16.835C33.4246-15.8853 34.101-15.1587 35.1009-15.1587L65.6992-15.1587C66.6871-15.1587 67.3635-15.8853 67.3635-16.835C67.3635-17.8229 66.6871-18.4992 65.6992-18.4992L35.1009-18.4992C34.101-18.4992 33.4246-17.8229 33.4246-16.835ZM14.2814-52.1354C15.4494-52.1354 16.1018-52.8501 16.1018-54.0182L16.1018-67.1321C16.1018-73.5149 19.4107-76.7998 25.7574-76.7998L38.9315-76.7998C40.0995-76.7998 40.7639-77.4642 40.7639-78.6202C40.7639-79.7883 40.0995-80.4527 38.9315-80.4527L25.6328-80.4527C17.0024-80.4527 12.4609-75.9232 12.4609-67.3168L12.4609-54.0182C12.4609-52.8501 13.1253-52.1354 14.2814-52.1354ZM101.187-52.1354C102.406-52.1354 103.008-52.8501 103.008-54.0182L103.008-67.3168C103.008-75.8226 98.5287-80.4527 89.836-80.4527L76.5876-80.4527C75.3693-80.4527 74.7049-79.7883 74.7049-78.6202C74.7049-77.4642 75.3693-76.7998 76.5876-76.7998L89.7114-76.7998C95.8569-76.7998 99.4173-73.5149 99.4173-67.1321L99.4173-54.0182C99.4173-52.8501 100.031-52.1354 101.187-52.1354ZM25.6328 10.1566L38.9315 10.1566C40.0995 10.1566 40.7639 9.4922 40.7639 8.33614C40.7639 7.16806 40.0995 6.50369 38.9315 6.50369L25.7574 6.50369C19.4107 6.50369 16.1018 3.21884 16.1018-3.16396L16.1018-16.2659C16.1018-17.446 15.4374-18.1606 14.2814-18.1606C13.1133-18.1606 12.4609-17.446 12.4609-16.2659L12.4609-2.97929C12.4609 5.62707 17.0024 10.1566 25.6328 10.1566ZM76.5876 10.1566L89.836 10.1566C98.5287 10.1566 103.008 5.52648 103.008-2.97929L103.008-16.2659C103.008-17.446 102.394-18.1606 101.187-18.1606C100.019-18.1606 99.4173-17.446 99.4173-16.2659L99.4173-3.16396C99.4173 3.21884 95.8569 6.50369 89.7114 6.50369L76.5876 6.50369C75.3693 6.50369 74.7049 7.16806 74.7049 8.33614C74.7049 9.4922 75.3693 10.1566 76.5876 10.1566Z"/>
  </g>
  <g id="Ultralight-M" transform="matrix(1 0 0 1 502.707 1126)">
   <path d="M33.216-53.0869C33.216-52.3304 33.6605-51.8859 34.417-51.8859L79.6532-51.8859C80.3478-51.8859 80.8542-52.3304 80.8542-53.0869C80.8542-53.7815 80.3478-54.288 79.6532-54.288L34.417-54.288C33.6605-54.288 33.216-53.7815 33.216-53.0869ZM33.216-35.0131C33.216-34.2566 33.6605-33.8121 34.417-33.8121L79.6532-33.8121C80.3478-33.8121 80.8542-34.2566 80.8542-35.0131C80.8542-35.7077 80.3478-36.2142 79.6532-36.2142L34.417-36.2142C33.6605-36.2142 33.216-35.7077 33.216-35.0131ZM33.216-16.9393C33.216-16.2447 33.6605-15.7382 34.417-15.7382L65.1892-15.7382C65.9453-15.7382 66.3898-16.2447 66.3898-16.9393C66.3898-17.6954 65.9453-18.1399 65.1892-18.1399L34.417-18.1399C33.6605-18.1399 33.216-17.6954 33.216-16.9393ZM13.667-52.205C14.4294-52.205 14.8731-52.711 14.8731-53.4734L14.8731-67.0394C14.8731-73.8163 18.3559-77.2982 25.1315-77.2982L38.6996-77.2982C39.462-77.2982 39.9061-77.7423 39.9061-78.5043C39.9061-79.2667 39.462-79.7108 38.6996-79.7108L25.0069-79.7108C16.8286-79.7108 12.4609-75.3436 12.4609-67.1661L12.4609-53.4734C12.4609-52.711 12.9051-52.205 13.667-52.205ZM100.341-52.205C101.166-52.205 101.547-52.711 101.547-53.4734L101.547-67.1661C101.547-75.2198 97.242-79.7108 89.0014-79.7108L75.3706-79.7108C74.5463-79.7108 74.1022-79.2667 74.1022-78.5043C74.1022-77.7423 74.5463-77.2982 75.3706-77.2982L88.8768-77.2982C95.4049-77.2982 99.1971-73.8163 99.1971-67.0394L99.1971-53.4734C99.1971-52.711 99.5793-52.205 100.341-52.205ZM25.0069 9.43791L38.6996 9.43791C39.462 9.43791 39.9061 8.99378 39.9061 8.23181C39.9061 7.46943 39.462 7.0253 38.6996 7.0253L25.1315 7.0253C18.3559 7.0253 14.8731 3.54339 14.8731-3.23351L14.8731-16.7991C14.8731-17.5619 14.429-18.0679 13.667-18.0679C12.9046-18.0679 12.4609-17.5619 12.4609-16.7991L12.4609-3.1068C12.4609 5.07069 16.8286 9.43791 25.0069 9.43791ZM75.3706 9.43791L89.0014 9.43791C97.242 9.43791 101.547 4.94692 101.547-3.1068L101.547-16.7991C101.547-17.5619 101.165-18.0679 100.341-18.0679C99.5789-18.0679 99.1971-17.5619 99.1971-16.7991L99.1971-3.23351C99.1971 3.54339 95.4049 7.0253 88.8768 7.0253L75.3706 7.0253C74.5463 7.0253 74.1022 7.46943 74.1022 8.23181C74.1022 8.99378 74.5463 9.43791 75.3706 9.43791Z"/>
  </g>
  <g id="Black-S" transform="matrix(1 0 0 1 2883.55 696)">
   <path d="M31.6406-48.291C31.6406-46.3867 33.2031-44.8242 35.1074-44.8242L64.5996-44.8242C66.5039-44.8242 68.0664-46.3867 68.0664-48.291C68.0664-50.1953 66.5039-51.7578 64.5996-51.7578L35.1074-51.7578C33.2031-51.7578 31.6406-50.1953 31.6406-48.291ZM31.6406-35.5469C31.6406-33.5938 33.2031-32.0312 35.1074-32.0312L64.5996-32.0312C66.5039-32.0312 68.0664-33.5938 68.0664-35.5469C68.0664-37.4023 66.5039-38.9648 64.5996-38.9648L35.1074-38.9648C33.2031-38.9648 31.6406-37.4023 31.6406-35.5469ZM31.6406-22.7051C31.6406-20.8008 33.252-19.2383 35.1562-19.2383L54.3457-19.2383C56.25-19.2383 57.8125-20.8008 57.8125-22.7051C57.8125-24.6094 56.25-26.1719 54.3457-26.1719L35.1562-26.1719C33.252-26.1719 31.6406-24.6094 31.6406-22.7051ZM16.8457-43.9453C21.4355-43.9453 23.9258-46.4844 23.9258-51.0742L23.9258-57.8125C23.9258-60.2539 25-61.1328 27.2461-61.1328L33.9844-61.1328C38.623-61.1328 41.1133-63.623 41.1133-68.2129C41.1133-72.8027 38.623-75.293 33.9844-75.293L25-75.293C15.4297-75.293 9.76562-69.6289 9.76562-60.0586L9.76562-51.0742C9.76562-46.4355 12.2559-43.9453 16.8457-43.9453ZM82.8613-43.9453C87.4512-43.9453 89.9414-46.4355 89.9414-51.0742L89.9414-60.0586C89.9414-69.6289 84.2773-75.293 74.707-75.293L65.7227-75.293C61.084-75.293 58.5938-72.8027 58.5938-68.2129C58.5938-63.623 61.1328-61.1328 65.7227-61.1328L72.4609-61.1328C74.707-61.1328 75.7812-60.2539 75.7812-57.8125L75.7812-51.0742C75.7812-46.4355 78.2715-43.9453 82.8613-43.9453ZM25 4.88281L33.9844 4.88281C38.623 4.88281 41.1133 2.39258 41.1133-2.19727C41.1133-6.78711 38.5742-9.27734 33.9844-9.27734L27.2461-9.27734C25-9.27734 23.9258-10.1562 23.9258-12.5977L23.9258-19.3359C23.9258-23.9746 21.4355-26.4648 16.8457-26.4648C12.2559-26.4648 9.76562-23.9746 9.76562-19.3359L9.76562-10.3516C9.76562-0.78125 15.4297 4.88281 25 4.88281ZM65.7227 4.88281L74.707 4.88281C84.2773 4.88281 89.9414-0.78125 89.9414-10.3516L89.9414-19.3359C89.9414-23.9746 87.4512-26.4648 82.8613-26.4648C78.2715-26.4648 75.7812-23.9258 75.7812-19.3359L75.7812-12.5977C75.7812-10.1562 74.707-9.27734 72.4609-9.27734L65.7227-9.27734C61.084-9.27734 58.5938-6.78711 58.5938-2.19727C58.5938 2.39258 61.084 4.88281 65.7227 4.88281Z"/>
  </g>
  <g id="Heavy-S" transform="matrix(1 0 0 1 2587.34 696)">
   <path d="M30.5228-48.7059C30.5228-46.8707 32.0276-45.3659 33.8628-45.3659L64.8416-45.3659C66.6768-45.3659 68.1817-46.8707 68.1817-48.7059C68.1817-50.541 66.6768-52.0459 64.8416-52.0459L33.8628-52.0459C32.0276-52.0459 30.5228-50.541 30.5228-48.7059ZM30.5228-35.4777C30.5228-33.6053 32.0276-32.1004 33.8628-32.1004L64.8416-32.1004C66.6768-32.1004 68.1817-33.6053 68.1817-35.4777C68.1817-37.2756 66.6768-38.7805 64.8416-38.7805L33.8628-38.7805C32.0276-38.7805 30.5228-37.2756 30.5228-35.4777ZM30.5228-22.175C30.5228-20.3398 32.0649-18.8349 33.9001-18.8349L54.0806-18.8349C55.9043-18.8349 57.4091-20.3398 57.4091-22.175C57.4091-23.9986 55.9043-25.5035 54.0806-25.5035L33.9001-25.5035C32.0649-25.5035 30.5228-23.9986 30.5228-22.175ZM16.0044-44.9595C20.0526-44.9595 22.2432-47.1989 22.2432-51.2471L22.2432-58.4579C22.2432-61.1874 23.5364-62.3083 26.0821-62.3083L33.3505-62.3083C37.436-62.3083 39.6381-64.5104 39.6381-68.5471C39.6381-72.5953 37.436-74.7974 33.3505-74.7974L24.3431-74.7974C15.0724-74.7974 9.76562-69.5021 9.76562-60.2545L9.76562-51.2471C9.76562-47.1616 11.9677-44.9595 16.0044-44.9595ZM82.7-44.9595C86.7482-44.9595 88.9388-47.1616 88.9388-51.2471L88.9388-60.2545C88.9388-69.5021 83.6435-74.7974 74.3613-74.7974L65.3539-74.7974C61.2684-74.7974 59.0663-72.5953 59.0663-68.5471C59.0663-64.5104 61.3057-62.3083 65.3539-62.3083L72.6223-62.3083C75.168-62.3083 76.4612-61.1874 76.4612-58.4579L76.4612-51.2471C76.4612-47.1616 78.6633-44.9595 82.7-44.9595ZM24.3431 4.38726L33.3505 4.38726C37.436 4.38726 39.6381 2.18514 39.6381-1.85153C39.6381-5.89973 37.3987-8.10185 33.3505-8.10185L26.0821-8.10185C23.5364-8.10185 22.2432-9.22277 22.2432-11.9523L22.2432-19.1515C22.2432-23.2486 20.0411-25.4507 16.0044-25.4507C11.9562-25.4507 9.76562-23.2486 9.76562-19.1515L9.76562-10.1556C9.76562-0.908019 15.0724 4.38726 24.3431 4.38726ZM65.3539 4.38726L74.3613 4.38726C83.6435 4.38726 88.9388-0.908019 88.9388-10.1556L88.9388-19.1515C88.9388-23.2486 86.7367-25.4507 82.7-25.4507C78.6518-25.4507 76.4612-23.2113 76.4612-19.1515L76.4612-11.9523C76.4612-9.22277 75.168-8.10185 72.6223-8.10185L65.3539-8.10185C61.2684-8.10185 59.0663-5.89973 59.0663-1.85153C59.0663 2.18514 61.2684 4.38726 65.3539 4.38726Z"/>
  </g>
  <g id="Bold-S" transform="matrix(1 0 0 1 2291.19 696)">
   <path d="M29.2725-49.1699C29.2725-47.4121 30.7129-45.9717 32.4707-45.9717L65.1123-45.9717C66.8701-45.9717 68.3105-47.4121 68.3105-49.1699C68.3105-50.9277 66.8701-52.3682 65.1123-52.3682L32.4707-52.3682C30.7129-52.3682 29.2725-50.9277 29.2725-49.1699ZM29.2725-35.4004C29.2725-33.6182 30.7129-32.1777 32.4707-32.1777L65.1123-32.1777C66.8701-32.1777 68.3105-33.6182 68.3105-35.4004C68.3105-37.1338 66.8701-38.5742 65.1123-38.5742L32.4707-38.5742C30.7129-38.5742 29.2725-37.1338 29.2725-35.4004ZM29.2725-21.582C29.2725-19.8242 30.7373-18.3838 32.4951-18.3838L53.7842-18.3838C55.5176-18.3838 56.958-19.8242 56.958-21.582C56.958-23.3154 55.5176-24.7559 53.7842-24.7559L32.4951-24.7559C30.7373-24.7559 29.2725-23.3154 29.2725-21.582ZM15.0635-46.0938C18.5059-46.0938 20.3613-47.998 20.3613-51.4404L20.3613-59.1797C20.3613-62.2314 21.8994-63.623 24.7803-63.623L32.6416-63.623C36.1084-63.623 37.9883-65.5029 37.9883-68.9209C37.9883-72.3633 36.1084-74.2432 32.6416-74.2432L23.6084-74.2432C14.6729-74.2432 9.76562-69.3604 9.76562-60.4736L9.76562-51.4404C9.76562-47.9736 11.6455-46.0938 15.0635-46.0938ZM82.5195-46.0938C85.9619-46.0938 87.8174-47.9736 87.8174-51.4404L87.8174-60.4736C87.8174-69.3604 82.9346-74.2432 73.9746-74.2432L64.9414-74.2432C61.4746-74.2432 59.5947-72.3633 59.5947-68.9209C59.5947-65.5029 61.499-63.623 64.9414-63.623L72.8027-63.623C75.6836-63.623 77.2217-62.2314 77.2217-59.1797L77.2217-51.4404C77.2217-47.9736 79.1016-46.0938 82.5195-46.0938ZM23.6084 3.83301L32.6416 3.83301C36.1084 3.83301 37.9883 1.95312 37.9883-1.46484C37.9883-4.90723 36.084-6.78711 32.6416-6.78711L24.7803-6.78711C21.8994-6.78711 20.3613-8.17871 20.3613-11.2305L20.3613-18.9453C20.3613-22.4365 18.4814-24.3164 15.0635-24.3164C11.6211-24.3164 9.76562-22.4365 9.76562-18.9453L9.76562-9.93652C9.76562-1.0498 14.6729 3.83301 23.6084 3.83301ZM64.9414 3.83301L73.9746 3.83301C82.9346 3.83301 87.8174-1.0498 87.8174-9.93652L87.8174-18.9453C87.8174-22.4365 85.9375-24.3164 82.5195-24.3164C79.0771-24.3164 77.2217-22.4121 77.2217-18.9453L77.2217-11.2305C77.2217-8.17871 75.6836-6.78711 72.8027-6.78711L64.9414-6.78711C61.4746-6.78711 59.5947-4.90723 59.5947-1.46484C59.5947 1.95312 61.4746 3.83301 64.9414 3.83301Z"/>
  </g>
  <g id="Semibold-S" transform="matrix(1 0 0 1 1994.86 696)">
   <path d="M28.4104-49.4898C28.4104-47.7854 29.8064-46.3894 31.5109-46.3894L65.2989-46.3894C67.0034-46.3894 68.3994-47.7854 68.3994-49.4898C68.3994-51.1943 67.0034-52.5903 65.2989-52.5903L31.5109-52.5903C29.8064-52.5903 28.4104-51.1943 28.4104-49.4898ZM28.4104-35.3471C28.4104-33.6271 29.8064-32.2311 31.5109-32.2311L65.2989-32.2311C67.0034-32.2311 68.3994-33.6271 68.3994-35.3471C68.3994-37.036 67.0034-38.432 65.2989-38.432L31.5109-38.432C29.8064-38.432 28.4104-37.036 28.4104-35.3471ZM28.4104-21.1732C28.4104-19.4688 29.822-18.0728 31.5265-18.0728L53.5798-18.0728C55.251-18.0728 56.647-19.4688 56.647-21.1732C56.647-22.8444 55.251-24.2404 53.5798-24.2404L31.5265-24.2404C29.822-24.2404 28.4104-22.8444 28.4104-21.1732ZM14.4147-46.8758C17.4395-46.8758 19.0639-48.549 19.0639-51.5737L19.0639-59.6773C19.0639-62.9513 20.7708-64.5295 23.8827-64.5295L32.1528-64.5295C35.1931-64.5295 36.8508-66.1872 36.8508-69.1786C36.8508-72.2033 35.1931-73.861 32.1528-73.861L23.1019-73.861C14.3974-73.861 9.76562-69.2626 9.76562-60.6247L9.76562-51.5737C9.76562-48.5335 11.4233-46.8758 14.4147-46.8758ZM82.3951-46.8758C85.4198-46.8758 87.0442-48.5335 87.0442-51.5737L87.0442-60.6247C87.0442-69.2626 82.4458-73.861 73.708-73.861L64.657-73.861C61.6168-73.861 59.9591-72.2033 59.9591-69.1786C59.9591-66.1872 61.6323-64.5295 64.657-64.5295L72.9271-64.5295C76.0391-64.5295 77.746-62.9513 77.746-59.6773L77.746-51.5737C77.746-48.5335 79.4037-46.8758 82.3951-46.8758ZM23.1019 3.45088L32.1528 3.45088C35.1931 3.45088 36.8508 1.79316 36.8508-1.19824C36.8508-4.22295 35.1775-5.88066 32.1528-5.88066L23.8827-5.88066C20.7708-5.88066 19.0639-7.45889 19.0639-10.7328L19.0639-18.8031C19.0639-21.8767 17.4062-23.5344 14.4147-23.5344C11.39-23.5344 9.76562-21.8767 9.76562-18.8031L9.76562-9.78545C9.76562-1.14756 14.3974 3.45088 23.1019 3.45088ZM64.657 3.45088L73.708 3.45088C82.4458 3.45088 87.0442-1.14756 87.0442-9.78545L87.0442-18.8031C87.0442-21.8767 85.3865-23.5344 82.3951-23.5344C79.3704-23.5344 77.746-21.8611 77.746-18.8031L77.746-10.7328C77.746-7.45889 76.0391-5.88066 72.9271-5.88066L64.657-5.88066C61.6168-5.88066 59.9591-4.22295 59.9591-1.19824C59.9591 1.79316 61.6168 3.45088 64.657 3.45088Z"/>
  </g>
  <g id="Medium-S" transform="matrix(1 0 0 1 1698.44 696)">
   <path d="M27.7568-49.7324C27.7568-48.0684 29.1191-46.7061 30.7832-46.7061L65.4404-46.7061C67.1045-46.7061 68.4668-48.0684 68.4668-49.7324C68.4668-51.3965 67.1045-52.7588 65.4404-52.7588L30.7832-52.7588C29.1191-52.7588 27.7568-51.3965 27.7568-49.7324ZM27.7568-35.3066C27.7568-33.6338 29.1191-32.2715 30.7832-32.2715L65.4404-32.2715C67.1045-32.2715 68.4668-33.6338 68.4668-35.3066C68.4668-36.9619 67.1045-38.3242 65.4404-38.3242L30.7832-38.3242C29.1191-38.3242 27.7568-36.9619 27.7568-35.3066ZM27.7568-20.8633C27.7568-19.1992 29.1279-17.8369 30.792-17.8369L53.4248-17.8369C55.0488-17.8369 56.4111-19.1992 56.4111-20.8633C56.4111-22.4873 55.0488-23.8496 53.4248-23.8496L30.792-23.8496C29.1279-23.8496 27.7568-22.4873 27.7568-20.8633ZM13.9229-47.4688C16.6309-47.4688 18.0801-48.9668 18.0801-51.6748L18.0801-60.0547C18.0801-63.4971 19.915-65.2168 23.2021-65.2168L31.7822-65.2168C34.499-65.2168 35.9883-66.7061 35.9883-69.374C35.9883-72.082 34.499-73.5713 31.7822-73.5713L22.7178-73.5713C14.1885-73.5713 9.76562-69.1885 9.76562-60.7393L9.76562-51.6748C9.76562-48.958 11.2549-47.4688 13.9229-47.4688ZM82.3008-47.4688C85.0088-47.4688 86.458-48.958 86.458-51.6748L86.458-60.7393C86.458-69.1885 82.0752-73.5713 73.5059-73.5713L64.4414-73.5713C61.7246-73.5713 60.2354-72.082 60.2354-69.374C60.2354-66.7061 61.7334-65.2168 64.4414-65.2168L73.0215-65.2168C76.3086-65.2168 78.1436-63.4971 78.1436-60.0547L78.1436-51.6748C78.1436-48.958 79.6328-47.4688 82.3008-47.4688ZM22.7178 3.16113L31.7822 3.16113C34.499 3.16113 35.9883 1.67188 35.9883-0.996094C35.9883-3.7041 34.4902-5.19336 31.7822-5.19336L23.2021-5.19336C19.915-5.19336 18.0801-6.91309 18.0801-10.3555L18.0801-18.6953C18.0801-21.4521 16.5908-22.9414 13.9229-22.9414C11.2148-22.9414 9.76562-21.4521 9.76562-18.6953L9.76562-9.6709C9.76562-1.22168 14.1885 3.16113 22.7178 3.16113ZM64.4414 3.16113L73.5059 3.16113C82.0752 3.16113 86.458-1.22168 86.458-9.6709L86.458-18.6953C86.458-21.4521 84.9688-22.9414 82.3008-22.9414C79.5928-22.9414 78.1436-21.4434 78.1436-18.6953L78.1436-10.3555C78.1436-6.91309 76.3086-5.19336 73.0215-5.19336L64.4414-5.19336C61.7246-5.19336 60.2354-3.7041 60.2354-0.996094C60.2354 1.67188 61.7246 3.16113 64.4414 3.16113Z"/>
  </g>
  <g id="Regular-S" transform="matrix(1 0 0 1 1402.11 696)">
   <path d="M26.9043-50.0488C26.9043-48.4375 28.2227-47.1191 29.834-47.1191L65.625-47.1191C67.2363-47.1191 68.5547-48.4375 68.5547-50.0488C68.5547-51.6602 67.2363-52.9785 65.625-52.9785L29.834-52.9785C28.2227-52.9785 26.9043-51.6602 26.9043-50.0488ZM26.9043-35.2539C26.9043-33.6426 28.2227-32.3242 29.834-32.3242L65.625-32.3242C67.2363-32.3242 68.5547-33.6426 68.5547-35.2539C68.5547-36.8652 67.2363-38.1836 65.625-38.1836L29.834-38.1836C28.2227-38.1836 26.9043-36.8652 26.9043-35.2539ZM26.9043-20.459C26.9043-18.8477 28.2227-17.5293 29.834-17.5293L53.2227-17.5293C54.7852-17.5293 56.1035-18.8477 56.1035-20.459C56.1035-22.0215 54.7852-23.3398 53.2227-23.3398L29.834-23.3398C28.2227-23.3398 26.9043-22.0215 26.9043-20.459ZM13.2812-48.2422C15.5762-48.2422 16.7969-49.5117 16.7969-51.8066L16.7969-60.5469C16.7969-64.209 18.7988-66.1133 22.3145-66.1133L31.2988-66.1133C33.5938-66.1133 34.8633-67.3828 34.8633-69.6289C34.8633-71.9238 33.5938-73.1934 31.2988-73.1934L22.2168-73.1934C13.916-73.1934 9.76562-69.0918 9.76562-60.8887L9.76562-51.8066C9.76562-49.5117 11.0352-48.2422 13.2812-48.2422ZM82.1777-48.2422C84.4727-48.2422 85.6934-49.5117 85.6934-51.8066L85.6934-60.8887C85.6934-69.0918 81.5918-73.1934 73.2422-73.1934L64.1602-73.1934C61.8652-73.1934 60.5957-71.9238 60.5957-69.6289C60.5957-67.3828 61.8652-66.1133 64.1602-66.1133L73.1445-66.1133C76.6602-66.1133 78.6621-64.209 78.6621-60.5469L78.6621-51.8066C78.6621-49.5117 79.9316-48.2422 82.1777-48.2422ZM22.2168 2.7832L31.2988 2.7832C33.5938 2.7832 34.8633 1.51367 34.8633-0.732422C34.8633-3.02734 33.5938-4.29688 31.2988-4.29688L22.3145-4.29688C18.7988-4.29688 16.7969-6.20117 16.7969-9.86328L16.7969-18.5547C16.7969-20.8984 15.5273-22.168 13.2812-22.168C10.9863-22.168 9.76562-20.8984 9.76562-18.5547L9.76562-9.52148C9.76562-1.31836 13.916 2.7832 22.2168 2.7832ZM64.1602 2.7832L73.2422 2.7832C81.5918 2.7832 85.6934-1.31836 85.6934-9.52148L85.6934-18.5547C85.6934-20.8984 84.4238-22.168 82.1777-22.168C79.8828-22.168 78.6621-20.8984 78.6621-18.5547L78.6621-9.86328C78.6621-6.20117 76.6602-4.29688 73.1445-4.29688L64.1602-4.29688C61.8652-4.29688 60.5957-3.02734 60.5957-0.732422C60.5957 1.51367 61.8652 2.7832 64.1602 2.7832Z"/>
  </g>
  <g id="Light-S" transform="matrix(1 0 0 1 1106.36 696)">
   <path d="M26.6318-49.7915C26.6318-48.498 27.6475-47.4824 28.9409-47.4824L64.626-47.4824C65.9043-47.4824 66.9351-48.498 66.9351-49.7915C66.9351-51.0698 65.9043-52.1006 64.626-52.1006L28.9409-52.1006C27.6475-52.1006 26.6318-51.0698 26.6318-49.7915ZM26.6318-35.1934C26.6318-33.8999 27.6475-32.8843 28.9409-32.8843L64.626-32.8843C65.9043-32.8843 66.9351-33.8999 66.9351-35.1934C66.9351-36.4717 65.9043-37.5024 64.626-37.5024L28.9409-37.5024C27.6475-37.5024 26.6318-36.4717 26.6318-35.1934ZM26.6318-20.5952C26.6318-19.3169 27.6475-18.2861 28.9409-18.2861L52.5566-18.2861C53.8164-18.2861 54.832-19.3169 54.832-20.5952C54.832-21.855 53.8164-22.8706 52.5566-22.8706L28.9409-22.8706C27.6475-22.8706 26.6318-21.855 26.6318-20.5952ZM12.479-48.333C14.2442-48.333 15.1924-49.3301 15.1924-51.0952L15.1924-60.4258C15.1924-64.6025 17.4214-66.7642 21.4971-66.7642L30.9961-66.7642C32.7612-66.7642 33.7432-67.7461 33.7432-69.4775C33.7432-71.2427 32.7612-72.2246 30.9961-72.2246L21.3994-72.2246C13.689-72.2246 9.76562-68.335 9.76562-60.6919L9.76562-51.0952C9.76562-49.3301 10.7476-48.333 12.479-48.333ZM81.0728-48.333C82.853-48.333 83.7861-49.3301 83.7861-51.0952L83.7861-60.6919C83.7861-68.3047 79.9116-72.2246 72.1524-72.2246L62.5708-72.2246C60.7905-72.2246 59.8086-71.2427 59.8086-69.4775C59.8086-67.7461 60.7905-66.7642 62.5708-66.7642L72.0547-66.7642C76.0698-66.7642 78.3745-64.6025 78.3745-60.4258L78.3745-51.0952C78.3745-49.3301 79.3413-48.333 81.0728-48.333ZM21.3994 1.84473L30.9961 1.84473C32.7612 1.84473 33.7432 0.862798 33.7432-0.868651C33.7432-2.63379 32.7612-3.61573 30.9961-3.61573L21.4971-3.61573C17.4214-3.61573 15.1924-5.77735 15.1924-9.9541L15.1924-19.251C15.1924-21.0498 14.2105-22.0469 12.479-22.0469C10.7139-22.0469 9.76562-21.0498 9.76562-19.251L9.76562-9.68799C9.76562-2.04492 13.689 1.84473 21.3994 1.84473ZM62.5708 1.84473L72.1524 1.84473C79.9116 1.84473 83.7861-2.07519 83.7861-9.68799L83.7861-19.251C83.7861-21.0498 82.8193-22.0469 81.0728-22.0469C79.3076-22.0469 78.3745-21.0498 78.3745-19.251L78.3745-9.9541C78.3745-5.77735 76.0698-3.61573 72.0547-3.61573L62.5708-3.61573C60.7905-3.61573 59.8086-2.63379 59.8086-0.868651C59.8086 0.862798 60.7905 1.84473 62.5708 1.84473Z"/>
  </g>
  <g id="Thin-S" transform="matrix(1 0 0 1 810.908 696)">
   <path d="M26.2715-49.4512C26.2715-48.5781 26.8867-47.9629 27.7598-47.9629L63.3047-47.9629C64.1426-47.9629 64.793-48.5781 64.793-49.4512C64.793-50.2891 64.1426-50.9395 63.3047-50.9395L27.7598-50.9395C26.8867-50.9395 26.2715-50.2891 26.2715-49.4512ZM26.2715-35.1133C26.2715-34.2402 26.8867-33.625 27.7598-33.625L63.3047-33.625C64.1426-33.625 64.793-34.2402 64.793-35.1133C64.793-35.9512 64.1426-36.6016 63.3047-36.6016L27.7598-36.6016C26.8867-36.6016 26.2715-35.9512 26.2715-35.1133ZM26.2715-20.7754C26.2715-19.9375 26.8867-19.2871 27.7598-19.2871L51.6758-19.2871C52.5352-19.2871 53.1504-19.9375 53.1504-20.7754C53.1504-21.6348 52.5352-22.25 51.6758-22.25L27.7598-22.25C26.8867-22.25 26.2715-21.6348 26.2715-20.7754ZM11.418-48.4531C12.4824-48.4531 13.0703-49.0898 13.0703-50.1543L13.0703-60.2656C13.0703-65.123 15.5996-67.625 20.416-67.625L30.5957-67.625C31.6602-67.625 32.2617-68.2266 32.2617-69.2773C32.2617-70.3418 31.6602-70.9434 30.5957-70.9434L20.3184-70.9434C13.3887-70.9434 9.76562-67.334 9.76562-60.4316L9.76562-50.1543C9.76562-49.0898 10.3672-48.4531 11.418-48.4531ZM79.6113-48.4531C80.711-48.4531 81.2637-49.0898 81.2637-50.1543L81.2637-60.4316C81.2637-67.2637 77.6895-70.9434 70.711-70.9434L60.4688-70.9434C59.3692-70.9434 58.7676-70.3418 58.7676-69.2773C58.7676-68.2266 59.3692-67.625 60.4688-67.625L70.6133-67.625C75.2891-67.625 77.9941-65.123 77.9941-60.2656L77.9941-50.1543C77.9941-49.0898 78.5606-48.4531 79.6113-48.4531ZM20.3184 0.603533L30.5957 0.603533C31.6602 0.603533 32.2617 0.00196503 32.2617-1.04883C32.2617-2.11329 31.6602-2.71486 30.5957-2.71486L20.416-2.71486C15.5996-2.71486 13.0703-5.2168 13.0703-10.0742L13.0703-20.1719C13.0703-21.25 12.4688-21.8867 11.418-21.8867C10.3535-21.8867 9.76562-21.25 9.76562-20.1719L9.76562-9.9082C9.76562-3.00585 13.3887 0.603533 20.3184 0.603533ZM60.4688 0.603533L70.711 0.603533C77.6895 0.603533 81.2637-3.07616 81.2637-9.9082L81.2637-20.1719C81.2637-21.25 80.6973-21.8867 79.6113-21.8867C78.5469-21.8867 77.9941-21.25 77.9941-20.1719L77.9941-10.0742C77.9941-5.2168 75.2891-2.71486 70.6133-2.71486L60.4688-2.71486C59.3692-2.71486 58.7676-2.11329 58.7676-1.04883C58.7676 0.00196503 59.3692 0.603533 60.4688 0.603533Z"/>
  </g>
  <g id="Ultralight-S" transform="matrix(1 0 0 1 514.842 696)">
   <path d="M26.0869-49.2769C26.0869-48.6191 26.4971-48.209 27.1548-48.209L62.628-48.209C63.2403-48.209 63.6958-48.6191 63.6958-49.2769C63.6958-49.8892 63.2403-50.3447 62.628-50.3447L27.1548-50.3447C26.4971-50.3447 26.0869-49.8892 26.0869-49.2769ZM26.0869-35.0723C26.0869-34.4145 26.4971-34.0044 27.1548-34.0044L62.628-34.0044C63.2403-34.0044 63.6958-34.4145 63.6958-35.0723C63.6958-35.6846 63.2403-36.1402 62.628-36.1402L27.1548-36.1402C26.4971-36.1402 26.0869-35.6846 26.0869-35.0723ZM26.0869-20.8677C26.0869-20.2554 26.4971-19.7998 27.1548-19.7998L51.2246-19.7998C51.8789-19.7998 52.2891-20.2554 52.2891-20.8677C52.2891-21.522 51.8789-21.9321 51.2246-21.9321L27.1548-21.9321C26.4971-21.9321 26.0869-21.522 26.0869-20.8677ZM10.8745-48.5146C11.5801-48.5146 11.9834-48.9668 11.9834-49.6724L11.9834-60.1836C11.9834-65.3896 14.6665-68.0659 19.8623-68.0659L30.3906-68.0659C31.0962-68.0659 31.503-68.4726 31.503-69.1748C31.503-69.8804 31.0962-70.2871 30.3906-70.2871L19.7647-70.2871C13.2349-70.2871 9.76562-66.8213 9.76562-60.2983L9.76562-49.6724C9.76562-48.9668 10.1724-48.5146 10.8745-48.5146ZM78.8628-48.5146C79.6138-48.5146 79.9717-48.9668 79.9717-49.6724L79.9717-60.2983C79.9717-66.7305 76.5513-70.2871 69.9727-70.2871L59.3921-70.2871C58.6411-70.2871 58.2344-69.8804 58.2344-69.1748C58.2344-68.4726 58.6411-68.0659 59.3921-68.0659L69.875-68.0659C74.8892-68.0659 77.7993-65.3896 77.7993-60.1836L77.7993-49.6724C77.7993-48.9668 78.1607-48.5146 78.8628-48.5146ZM19.7647-0.0322044L30.3906-0.0322044C31.0962-0.0322044 31.503-0.438949 31.503-1.14111C31.503-1.84669 31.0962-2.25343 30.3906-2.25343L19.8623-2.25343C14.6665-2.25343 11.9834-4.9297 11.9834-10.1357L11.9834-20.6435C11.9834-21.3525 11.5767-21.8047 10.8745-21.8047C10.169-21.8047 9.76562-21.3525 9.76562-20.6435L9.76562-10.021C9.76562-3.49803 13.2349-0.0322044 19.7647-0.0322044ZM59.3921-0.0322044L69.9727-0.0322044C76.5513-0.0322044 79.9717-3.58885 79.9717-10.021L79.9717-20.6435C79.9717-21.3525 79.6104-21.8047 78.8628-21.8047C78.1572-21.8047 77.7993-21.3525 77.7993-20.6435L77.7993-10.1357C77.7993-4.9297 74.8892-2.25343 69.875-2.25343L59.3921-2.25343C58.6411-2.25343 58.2344-1.84669 58.2344-1.14111C58.2344-0.438949 58.6411-0.0322044 59.3921-0.0322044Z"/>
  </g>
 </g>
</svg>
