<?xml version="1.0" encoding="UTF-8"?>
<!--Generator: Apple Native CoreSVG 232.5-->
<!DOCTYPE svg
PUBLIC "-//W3C//DTD SVG 1.1//EN"
       "http://www.w3.org/Graphics/SVG/1.1/DTD/svg11.dtd">
<svg version="1.1" xmlns="http://www.w3.org/2000/svg" xmlns:xlink="http://www.w3.org/1999/xlink" width="3300" height="2200">
 <g id="Notes">
  <rect height="2200" id="artboard" style="fill:white;opacity:1" width="3300" x="0" y="0"/>
  <line style="fill:none;stroke:black;opacity:1;stroke-width:0.5;" x1="263" x2="3036" y1="292" y2="292"/>
  <text style="stroke:none;fill:black;font-family:sans-serif;font-size:13;font-weight:bold;" transform="matrix(1 0 0 1 263 322)">Weight/Scale Variations</text>
  <text style="stroke:none;fill:black;font-family:sans-serif;font-size:13;text-anchor:middle;" transform="matrix(1 0 0 1 559.711 322)">Ultralight</text>
  <text style="stroke:none;fill:black;font-family:sans-serif;font-size:13;text-anchor:middle;" transform="matrix(1 0 0 1 856.422 322)">Thin</text>
  <text style="stroke:none;fill:black;font-family:sans-serif;font-size:13;text-anchor:middle;" transform="matrix(1 0 0 1 1153.13 322)">Light</text>
  <text style="stroke:none;fill:black;font-family:sans-serif;font-size:13;text-anchor:middle;" transform="matrix(1 0 0 1 1449.84 322)">Regular</text>
  <text style="stroke:none;fill:black;font-family:sans-serif;font-size:13;text-anchor:middle;" transform="matrix(1 0 0 1 1746.56 322)">Medium</text>
  <text style="stroke:none;fill:black;font-family:sans-serif;font-size:13;text-anchor:middle;" transform="matrix(1 0 0 1 2043.27 322)">Semibold</text>
  <text style="stroke:none;fill:black;font-family:sans-serif;font-size:13;text-anchor:middle;" transform="matrix(1 0 0 1 2339.98 322)">Bold</text>
  <text style="stroke:none;fill:black;font-family:sans-serif;font-size:13;text-anchor:middle;" transform="matrix(1 0 0 1 2636.69 322)">Heavy</text>
  <text style="stroke:none;fill:black;font-family:sans-serif;font-size:13;text-anchor:middle;" transform="matrix(1 0 0 1 2933.4 322)">Black</text>
  <line style="fill:none;stroke:black;opacity:1;stroke-width:0.5;" x1="263" x2="3036" y1="1903" y2="1903"/>
  <g transform="matrix(0.2 0 0 0.2 263 1933)">
   <path d="m46.2402 4.15039c21.5332 0 39.4531-17.8711 39.4531-39.4043s-17.9688-39.4043-39.502-39.4043c-21.4844 0-39.3555 17.8711-39.3555 39.4043s17.9199 39.4043 39.4043 39.4043Zm0-7.42188c-17.7246 0-31.8848-14.209-31.8848-31.9824s14.1113-31.9824 31.8359-31.9824c17.7734 0 32.0312 14.209 32.0312 31.9824s-14.209 31.9824-31.9824 31.9824Zm-17.9688-31.9824c0 2.14844 1.51367 3.61328 3.75977 3.61328h10.498v10.5957c0 2.19727 1.46484 3.71094 3.61328 3.71094 2.24609 0 3.71094-1.51367 3.71094-3.71094v-10.5957h10.5957c2.19727 0 3.71094-1.46484 3.71094-3.61328 0-2.19727-1.51367-3.71094-3.71094-3.71094h-10.5957v-10.5469c0-2.24609-1.46484-3.75977-3.71094-3.75977-2.14844 0-3.61328 1.51367-3.61328 3.75977v10.5469h-10.498c-2.24609 0-3.75977 1.51367-3.75977 3.71094Z"/>
  </g>
  <g transform="matrix(0.2 0 0 0.2 281.506 1933)">
   <path d="m58.5449 14.5508c27.2461 0 49.8047-22.6074 49.8047-49.8047 0-27.2461-22.6074-49.8047-49.8535-49.8047-27.1973 0-49.7559 22.5586-49.7559 49.8047 0 27.1973 22.6074 49.8047 49.8047 49.8047Zm0-8.30078c-23.0469 0-41.4551-18.457-41.4551-41.5039s18.3594-41.5039 41.4062-41.5039 41.5527 18.457 41.5527 41.5039-18.457 41.5039-41.5039 41.5039Zm-22.6562-41.5039c0 2.39258 1.66016 4.00391 4.15039 4.00391h14.3555v14.4043c0 2.44141 1.66016 4.15039 4.05273 4.15039 2.44141 0 4.15039-1.66016 4.15039-4.15039v-14.4043h14.4043c2.44141 0 4.15039-1.61133 4.15039-4.00391 0-2.44141-1.70898-4.15039-4.15039-4.15039h-14.4043v-14.3555c0-2.49023-1.70898-4.19922-4.15039-4.19922-2.39258 0-4.05273 1.70898-4.05273 4.19922v14.3555h-14.3555c-2.49023 0-4.15039 1.70898-4.15039 4.15039Z"/>
  </g>
  <g transform="matrix(0.2 0 0 0.2 304.924 1933)">
   <path d="m74.8535 28.3203c34.8145 0 63.623-28.8086 63.623-63.5742 0-34.8145-28.8574-63.623-63.6719-63.623-34.7656 0-63.5254 28.8086-63.5254 63.623 0 34.7656 28.8086 63.5742 63.5742 63.5742Zm0-9.08203c-30.1758 0-54.4434-24.3164-54.4434-54.4922 0-30.2246 24.2188-54.4922 54.3945-54.4922 30.2246 0 54.541 24.2676 54.541 54.4922 0 30.1758-24.2676 54.4922-54.4922 54.4922Zm-28.8574-54.4922c0 2.58789 1.85547 4.39453 4.58984 4.39453h19.7266v19.7754c0 2.68555 1.85547 4.58984 4.44336 4.58984 2.68555 0 4.54102-1.85547 4.54102-4.58984v-19.7754h19.7754c2.68555 0 4.58984-1.80664 4.58984-4.39453 0-2.73438-1.85547-4.58984-4.58984-4.58984h-19.7754v-19.7266c0-2.73438-1.85547-4.63867-4.54102-4.63867-2.58789 0-4.44336 1.9043-4.44336 4.63867v19.7266h-19.7266c-2.73438 0-4.58984 1.85547-4.58984 4.58984Z"/>
  </g>
  <text style="stroke:none;fill:black;font-family:sans-serif;font-size:13;font-weight:bold;" transform="matrix(1 0 0 1 263 1953)">Design Variations</text>
  <text style="stroke:none;fill:black;font-family:sans-serif;font-size:13;" transform="matrix(1 0 0 1 263 1971)">Symbols are supported in up to nine weights and three scales.</text>
  <text style="stroke:none;fill:black;font-family:sans-serif;font-size:13;" transform="matrix(1 0 0 1 263 1989)">For optimal layout with text and other symbols, vertically align</text>
  <text style="stroke:none;fill:black;font-family:sans-serif;font-size:13;" transform="matrix(1 0 0 1 263 2007)">symbols with the adjacent text.</text>
  <line style="fill:none;stroke:#00AEEF;stroke-width:0.5;opacity:1.0;" x1="776" x2="776" y1="1919" y2="1933"/>
  <g transform="matrix(0.2 0 0 0.2 776 1933)">
   <path d="m16.5527 0.78125c2.58789 0 3.85742-0.976562 4.78516-3.71094l6.29883-17.2363h28.8086l6.29883 17.2363c0.927734 2.73438 2.19727 3.71094 4.73633 3.71094 2.58789 0 4.24805-1.5625 4.24805-4.00391 0-0.830078-0.146484-1.61133-0.537109-2.63672l-22.9004-60.9863c-1.12305-2.97852-3.125-4.49219-6.25-4.49219-3.02734 0-5.07812 1.46484-6.15234 4.44336l-22.9004 61.084c-0.390625 1.02539-0.537109 1.80664-0.537109 2.63672 0 2.44141 1.5625 3.95508 4.10156 3.95508Zm13.4766-28.3691 11.8652-32.8613h0.244141l11.8652 32.8613Z"/>
  </g>
  <line style="fill:none;stroke:#00AEEF;stroke-width:0.5;opacity:1.0;" x1="792.836" x2="792.836" y1="1919" y2="1933"/>
  <text style="stroke:none;fill:black;font-family:sans-serif;font-size:13;font-weight:bold;" transform="matrix(1 0 0 1 776 1953)">Margins</text>
  <text style="stroke:none;fill:black;font-family:sans-serif;font-size:13;" transform="matrix(1 0 0 1 776 1971)">Leading and trailing margins on the left and right side of each symbol</text>
  <text style="stroke:none;fill:black;font-family:sans-serif;font-size:13;" transform="matrix(1 0 0 1 776 1989)">can be adjusted by modifying the x-location of the margin guidelines.</text>
  <text style="stroke:none;fill:black;font-family:sans-serif;font-size:13;" transform="matrix(1 0 0 1 776 2007)">Modifications are automatically applied proportionally to all</text>
  <text style="stroke:none;fill:black;font-family:sans-serif;font-size:13;" transform="matrix(1 0 0 1 776 2025)">scales and weights.</text>
  <g transform="matrix(0.2 0 0 0.2 1289 1933)">
   <path d="m14.209 9.32617 8.49609 8.54492c4.29688 4.3457 9.22852 4.05273 13.8672-1.07422l53.4668-58.9355-4.83398-4.88281-53.0762 58.3984c-1.75781 2.00195-3.41797 2.49023-5.76172 0.146484l-5.85938-5.81055c-2.34375-2.29492-1.80664-4.00391 0.195312-5.81055l57.373-54.0039-4.88281-4.83398-57.959 54.4434c-4.93164 4.58984-5.32227 9.47266-1.02539 13.8184Zm32.0801-90.9668c-2.09961 2.05078-2.24609 4.93164-1.07422 6.88477 1.17188 1.80664 3.4668 2.97852 6.68945 2.14844 7.32422-1.70898 14.9414-2.00195 22.0703 2.68555l-2.92969 7.27539c-1.70898 4.15039-0.830078 7.08008 1.85547 9.81445l11.4746 11.5723c2.44141 2.44141 4.49219 2.53906 7.32422 2.05078l5.32227-0.976562 3.32031 3.36914-0.195312 2.7832c-0.195312 2.49023 0.439453 4.39453 2.88086 6.78711l3.80859 3.71094c2.39258 2.39258 5.46875 2.53906 7.8125 0.195312l14.5508-14.5996c2.34375-2.34375 2.24609-5.32227-0.146484-7.71484l-3.85742-3.80859c-2.39258-2.39258-4.24805-3.17383-6.64062-2.97852l-2.88086 0.244141-3.22266-3.17383 1.2207-5.61523c0.634766-2.83203-0.146484-5.0293-3.07617-7.95898l-10.9863-10.9375c-16.6992-16.6016-38.8672-16.2109-53.3203-1.75781Zm7.4707 1.85547c12.1582-8.88672 28.6133-7.37305 39.7461 3.75977l12.1582 12.0605c1.17188 1.17188 1.36719 2.09961 1.02539 3.80859l-1.61133 7.42188 7.51953 7.42188 4.93164-0.292969c1.26953-0.0488281 1.66016 0.0488281 2.63672 1.02539l2.88086 2.88086-12.207 12.207-2.88086-2.88086c-0.976562-0.976562-1.12305-1.36719-1.07422-2.68555l0.341797-4.88281-7.4707-7.42188-7.61719 1.26953c-1.61133 0.341797-2.34375 0.195312-3.56445-0.976562l-10.0098-10.0098c-1.26953-1.17188-1.41602-2.00195-0.634766-3.85742l4.39453-10.4492c-7.8125-7.27539-17.9688-10.4004-28.125-7.42188-0.78125 0.195312-1.07422-0.439453-0.439453-0.976562Z"/>
  </g>
  <text style="stroke:none;fill:black;font-family:sans-serif;font-size:13;font-weight:bold;" transform="matrix(1 0 0 1 1289 1953)">Exporting</text>
  <text style="stroke:none;fill:black;font-family:sans-serif;font-size:13;" transform="matrix(1 0 0 1 1289 1971)">Symbols should be outlined when exporting to ensure the</text>
  <text style="stroke:none;fill:black;font-family:sans-serif;font-size:13;" transform="matrix(1 0 0 1 1289 1989)">design is preserved when submitting to Xcode.</text>
  <text id="template-version" style="stroke:none;fill:black;font-family:sans-serif;font-size:13;text-anchor:end;" transform="matrix(1 0 0 1 3036 1933)">Template v.2.0</text>
  <text style="stroke:none;fill:black;font-family:sans-serif;font-size:13;text-anchor:end;" transform="matrix(1 0 0 1 3036 1951)">Requires Xcode 12 or greater</text>
  <text id="descriptive-name" style="stroke:none;fill:black;font-family:sans-serif;font-size:13;text-anchor:end;" transform="matrix(1 0 0 1 3036 1969)">Generated from photo.stack</text>
  <text style="stroke:none;fill:black;font-family:sans-serif;font-size:13;text-anchor:end;" transform="matrix(1 0 0 1 3036 1987)">Typeset at 100.0 points</text>
  <text style="stroke:none;fill:black;font-family:sans-serif;font-size:13;" transform="matrix(1 0 0 1 263 726)">Small</text>
  <text style="stroke:none;fill:black;font-family:sans-serif;font-size:13;" transform="matrix(1 0 0 1 263 1156)">Medium</text>
  <text style="stroke:none;fill:black;font-family:sans-serif;font-size:13;" transform="matrix(1 0 0 1 263 1586)">Large</text>
 </g>
 <g id="Guides">
  <g id="H-reference" style="fill:#27AAE1;stroke:none;" transform="matrix(1 0 0 1 339 696)">
   <path d="M0.993654 0L3.63775 0L29.3281-67.1323L30.0303-67.1323L30.0303-70.459L28.1226-70.459ZM11.6885-24.4799L46.9815-24.4799L46.2315-26.7285L12.4385-26.7285ZM55.1196 0L57.7637 0L30.6382-70.459L29.4326-70.459L29.4326-67.1323Z"/>
  </g>
  <line id="Baseline-S" style="fill:none;stroke:#27AAE1;opacity:1;stroke-width:0.5;" x1="263" x2="3036" y1="696" y2="696"/>
  <line id="Capline-S" style="fill:none;stroke:#27AAE1;opacity:1;stroke-width:0.5;" x1="263" x2="3036" y1="625.541" y2="625.541"/>
  <g id="H-reference" style="fill:#27AAE1;stroke:none;" transform="matrix(1 0 0 1 339 1126)">
   <path d="M0.993654 0L3.63775 0L29.3281-67.1323L30.0303-67.1323L30.0303-70.459L28.1226-70.459ZM11.6885-24.4799L46.9815-24.4799L46.2315-26.7285L12.4385-26.7285ZM55.1196 0L57.7637 0L30.6382-70.459L29.4326-70.459L29.4326-67.1323Z"/>
  </g>
  <line id="Baseline-M" style="fill:none;stroke:#27AAE1;opacity:1;stroke-width:0.5;" x1="263" x2="3036" y1="1126" y2="1126"/>
  <line id="Capline-M" style="fill:none;stroke:#27AAE1;opacity:1;stroke-width:0.5;" x1="263" x2="3036" y1="1055.54" y2="1055.54"/>
  <g id="H-reference" style="fill:#27AAE1;stroke:none;" transform="matrix(1 0 0 1 339 1556)">
   <path d="M0.993654 0L3.63775 0L29.3281-67.1323L30.0303-67.1323L30.0303-70.459L28.1226-70.459ZM11.6885-24.4799L46.9815-24.4799L46.2315-26.7285L12.4385-26.7285ZM55.1196 0L57.7637 0L30.6382-70.459L29.4326-70.459L29.4326-67.1323Z"/>
  </g>
  <line id="Baseline-L" style="fill:none;stroke:#27AAE1;opacity:1;stroke-width:0.5;" x1="263" x2="3036" y1="1556" y2="1556"/>
  <line id="Capline-L" style="fill:none;stroke:#27AAE1;opacity:1;stroke-width:0.5;" x1="263" x2="3036" y1="1485.54" y2="1485.54"/>
  <line id="left-margin" style="fill:none;stroke:#00AEEF;stroke-width:0.5;opacity:1.0;" x1="1386.27" x2="1386.27" y1="1030.79" y2="1150.12"/>
  <line id="right-margin" style="fill:none;stroke:#00AEEF;stroke-width:0.5;opacity:1.0;" x1="1513.42" x2="1513.42" y1="1030.79" y2="1150.12"/>
 </g>
 <g id="Symbols">
  <g id="Black-L" transform="matrix(1 0 0 1 2848.78 1556)">
   <path d="M44.8287 33.723L124.593 33.723C135.688 33.723 140.969 28.1738 140.969 16.4919L140.969 14.4852L110.222-13.9974C108.013-16.0655 105.361-17.0794 102.426-17.0794C99.7243-17.0794 97.026-16.0875 94.7118-14.0194L70.8502 7.00791L61.284-1.63279C59.1766-3.55852 56.7195-4.45316 54.2469-4.45316C51.8391-4.45316 49.3884-3.5377 47.3407-1.71321L28.3929 15.4602C28.3929 28.2322 33.3828 33.723 44.8287 33.723ZM67.6958-12.7914C75.0721-12.7914 81.1565-18.9173 81.1565-26.3544C81.1565-33.7475 75.0721-39.7967 67.6958-39.7967C60.2015-39.7967 54.1768-33.7475 54.1768-26.3544C54.1768-18.9173 60.2015-12.7914 67.6958-12.7914ZM39.8556 41.6673L129.391 41.6673C144.535 41.6673 153.163 33.0782 153.163 17.9789L153.163-47.0914C153.163-62.1711 144.535-70.7798 129.391-70.7798L39.8556-70.7798C24.6915-70.7798 16.084-62.1943 16.084-47.0914L16.084 17.9789C16.084 33.0805 24.6915 41.6673 39.8556 41.6673ZM42.5864 21.6862C38.2704 21.6862 36.065 19.7561 36.065 15.1232L36.065-44.237C36.065-48.8686 38.2704-50.8 42.5864-50.8L126.661-50.8C130.972-50.8 133.182-48.8686 133.182-44.237L133.182 15.1232C133.182 19.7561 130.972 21.6862 126.661 21.6862ZM31.8535-81.3642L137.434-81.3642C136.656-88.2349 132.713-92.5016 124.625-92.5016L44.6637-92.5016C36.5531-92.5016 32.6122-88.2349 31.8535-81.3642ZM44.202-102.062L125.066-102.062C124.474-108.573 120.195-112.307 113.302-112.307L55.9655-112.307C49.0936-112.307 44.7941-108.573 44.202-102.062Z"/>
  </g>
  <g id="Heavy-L" transform="matrix(1 0 0 1 2552.68 1556)">
   <path d="M42.8397 33.3304L125.336 33.3304C136.556 33.3304 142.035 27.6998 142.035 16.0214L142.035 13.4218L111.151-15.301C108.842-17.4739 106.046-18.533 103.008-18.533C100.142-18.533 97.3875-17.5097 94.9509-15.3368L70.2441 6.43647L60.3681-2.47108C58.146-4.50213 55.6327-5.46074 53.0465-5.46074C50.562-5.46074 48.1059-4.47195 45.934-2.5515L26.0904 15.2427C26.0904 27.7444 31.351 33.3304 42.8397 33.3304ZM66.7133-14.0421C74.223-14.0421 80.3945-20.2739 80.3945-27.8395C80.3945-35.3335 74.223-41.5018 66.7133-41.5018C59.1087-41.5018 52.9875-35.3335 52.9875-27.8395C52.9875-20.2739 59.1087-14.0421 66.7133-14.0421ZM38.8315 39.8219L129.186 39.8219C143.799 39.8219 151.934 31.7363 151.934 17.1952L151.934-47.8334C151.934-62.3499 143.799-70.4601 129.186-70.4601L38.8315-70.4601C24.1886-70.4601 16.084-62.3913 16.084-47.8334L16.084 17.1952C16.084 31.7475 24.1886 39.8219 38.8315 39.8219ZM40.9557 22.3215C36.118 22.3215 33.5844 20.0268 33.5844 14.8898L33.5844-45.5337C33.5844-50.665 36.118-52.9653 40.9557-52.9653L127.062-52.9653C131.877-52.9653 134.433-50.665 134.433-45.5337L134.433 14.8898C134.433 20.0268 131.877 22.3215 127.062 22.3215ZM31.2868-80.984L136.786-80.984C135.982-87.4982 132.371-91.4708 124.812-91.4708L43.266-91.4708C35.6713-91.4708 32.0663-87.4982 31.2868-80.984ZM43.7443-100.833L124.304-100.833C123.766-106.982 119.831-110.466 113.281-110.466L54.7668-110.466C48.247-110.466 44.2824-106.982 43.7443-100.833Z"/>
  </g>
  <g id="Bold-L" transform="matrix(1 0 0 1 2256.67 1556)">
   <path d="M40.4701 32.6451L126.258 32.6451C137.528 32.6451 143.162 26.9741 143.162 15.3853L143.162 12.0556L112.184-16.8476C109.744-19.1511 106.795-20.2715 103.618-20.2715C100.545-20.2715 97.7439-19.2023 95.1461-16.8988L69.4911 5.6848L59.298-3.5159C56.945-5.67012 54.3849-6.70564 51.6528-6.70564C49.0611-6.70564 46.6122-5.63213 44.3016-3.59632L23.5228 14.8844C23.5228 27.0033 29.0245 32.6451 40.4701 32.6451ZM65.6035-15.5644C73.2598-15.5644 79.5314-21.9119 79.5314-29.6239C79.5314-37.2334 73.2598-43.5403 65.6035-43.5403C57.8755-43.5403 51.6464-37.2334 51.6464-29.6239C51.6464-21.9119 57.8755-15.5644 65.6035-15.5644ZM37.5412 37.5248L129.067 37.5248C142.982 37.5248 150.524 30.0317 150.524 16.2195L150.524-48.8373C150.524-62.6248 142.982-70.1426 129.067-70.1426L37.5412-70.1426C23.5885-70.1426 16.084-62.6893 16.084-48.8373L16.084 16.2195C16.084 30.0582 23.5885 37.5248 37.5412 37.5248ZM38.987 23.083C33.4665 23.083 30.5257 20.335 30.5257 14.5458L30.5257-47.1769C30.5257-52.9529 33.4665-55.7141 38.987-55.7141L127.621-55.7141C133.089-55.7141 136.082-52.9529 136.082-47.1769L136.082 14.5458C136.082 20.335 133.089 23.083 127.621 23.083ZM30.6769-80.6792L135.994-80.6792C135.204-86.6286 132.023-90.2027 125.244-90.2027L41.4402-90.2027C34.61-90.2027 31.4423-86.6286 30.6769-80.6792ZM43.2055-99.4229L123.441-99.4229C122.979-105.014 119.505-108.169 113.504-108.169L53.1421-108.169C47.1795-108.169 43.6671-105.014 43.2055-99.4229Z"/>
  </g>
  <g id="Semibold-L" transform="matrix(1 0 0 1 1960.45 1556)">
   <path d="M38.8365 32.1726L126.893 32.1726C138.198 32.1726 143.94 26.4738 143.94 14.9467L143.94 11.1138L112.896-17.9138C110.367-20.3073 107.311-21.47 104.039-21.47C100.823-21.47 97.9895-20.3692 95.2807-17.9756L68.972 5.16661L58.5603-4.23619C56.117-6.47532 53.5246-7.56387 50.692-7.56387C48.0264-7.56387 45.5825-6.43195 43.1762-4.31661L21.7528 14.6373C21.7528 26.4924 27.4206 32.1726 38.8365 32.1726ZM64.8384-16.6138C72.5957-16.6138 78.9364-23.0412 78.9364-30.8541C78.9364-38.5433 72.5957-44.9456 64.8384-44.9456C57.0254-44.9456 50.7218-38.5433 50.7218-30.8541C50.7218-23.0412 57.0254-16.6138 64.8384-16.6138ZM36.6517 35.9411L128.985 35.9411C142.418 35.9411 149.552 28.8567 149.552 15.5468L149.552-49.5295C149.552-62.8144 142.418-69.9238 128.985-69.9238L36.6517-69.9238C23.1749-69.9238 16.084-62.8947 16.084-49.5295L16.084 15.5468C16.084 28.8936 23.1749 35.9411 36.6517 35.9411ZM37.6298 23.608C31.6387 23.608 28.4171 20.5475 28.4171 14.3086L28.4171-48.3097C28.4171-54.5301 31.6387-57.6091 37.6298-57.6091L128.007-57.6091C133.924-57.6091 137.219-54.5301 137.219-48.3097L137.219 14.3086C137.219 20.5475 133.924 23.608 128.007 23.608ZM30.2564-80.469L135.448-80.469C134.668-86.0291 131.783-89.3285 125.542-89.3285L40.1814-89.3285C33.8783-89.3285 31.0121-86.0291 30.2564-80.469ZM42.8341-98.4511L122.846-98.4511C122.437-103.658 119.28-106.586 113.658-106.586L52.0221-106.586C46.4436-106.586 43.2429-103.658 42.8341-98.4511Z"/>
  </g>
  <g id="Medium-L" transform="matrix(1 0 0 1 1664.11 1556)">
   <path d="M37.5978 31.8143L127.375 31.8143C138.705 31.8143 144.529 26.0945 144.529 14.6142L144.529 10.3996L113.436-18.7222C110.839-21.184 107.702-22.3788 104.358-22.3788C101.034-22.3788 98.1757-21.254 95.3828-18.7921L68.5784 4.7737L58.0009-4.78234C55.4891-7.08586 52.8723-8.21461 49.9634-8.21461C47.2418-8.21461 44.8017-7.03841 42.3229-4.86276L20.4106 14.45C20.4106 26.105 26.2045 31.8143 37.5978 31.8143ZM64.2582-17.4095C72.0922-17.4095 78.4852-23.8974 78.4852-31.7868C78.4852-39.5364 72.0922-46.0112 64.2582-46.0112C56.3808-46.0112 50.0208-39.5364 50.0208-31.7868C50.0208-23.8974 56.3808-17.4095 64.2582-17.4095ZM35.9773 34.7404L128.922 34.7404C141.991 34.7404 148.816 27.9657 148.816 15.0368L148.816-50.0543C148.816-62.9581 141.991-69.7578 128.922-69.7578L35.9773-69.7578C22.8612-69.7578 16.084-63.0505 16.084-50.0543L16.084 15.0368C16.084 28.0106 22.8612 34.7404 35.9773 34.7404ZM36.6007 24.0061C30.2527 24.0061 26.8183 20.7086 26.8183 14.1287L26.8183-49.1686C26.8183-55.726 30.2527-59.046 36.6007-59.046L128.299-59.046C134.557-59.046 138.081-55.726 138.081-49.1686L138.081 14.1287C138.081 20.7086 134.557 24.0061 128.299 24.0061ZM29.9376-80.3097L135.034-80.3097C134.261-85.5745 131.601-88.6656 125.767-88.6656L39.227-88.6656C33.3235-88.6656 30.6859-85.5745 29.9376-80.3097ZM42.5525-97.7142L122.394-97.7142C122.026-102.63 119.109-105.385 113.774-105.385L51.1728-105.385C45.8856-105.385 42.9213-102.63 42.5525-97.7142Z"/>
  </g>
  <g id="Regular-L" transform="matrix(1 0 0 1 1367.88 1556)">
   <path d="M35.9822 31.347L128.004 31.347C139.368 31.347 145.298 25.5997 145.298 14.1805L145.298 9.46809L114.141-19.7767C111.454-22.3276 108.212-23.5641 104.774-23.5641C101.309-23.5641 98.4187-22.408 95.5159-19.8571L68.0651 4.2612L57.2713-5.49472C54.6702-7.88221 52.0215-9.0634 49.0132-9.0634C46.2185-9.0634 43.7834-7.82945 41.2099-5.57514L18.66 14.2056C18.66 25.5997 24.6183 31.347 35.9822 31.347ZM63.5015-18.4474C71.4354-18.4474 77.8967-25.0142 77.8967-33.0034C77.8967-40.8318 71.4354-47.4011 63.5015-47.4011C55.54-47.4011 49.1064-40.8318 49.1064-33.0034C49.1064-25.0142 55.54-18.4474 63.5015-18.4474ZM35.0976 33.1741L128.841 33.1741C141.434 33.1741 147.854 26.8035 147.854 14.3716L147.854-50.7388C147.854-63.1456 141.434-69.5413 128.841-69.5413L35.0976-69.5413C22.4521-69.5413 16.084-63.2537 16.084-50.7388L16.084 14.3716C16.084 26.8588 22.4521 33.1741 35.0976 33.1741ZM35.2584 24.5253C28.4449 24.5253 24.7328 20.9187 24.7328 13.8941L24.7328-50.289C24.7328-57.2859 28.4449-60.9201 35.2584-60.9201L128.68-60.9201C135.383-60.9201 139.206-57.2859 139.206-50.289L139.206 13.8941C139.206 20.9187 135.383 24.5253 128.68 24.5253ZM29.5218-80.1018L134.494-80.1018C133.731-84.9816 131.364-87.801 126.062-87.801L37.9821-87.801C32.5999-87.801 30.2604-84.9816 29.5218-80.1018ZM42.1852-96.7531L121.806-96.7531C121.489-101.289 118.886-103.819 113.926-103.819L50.0651-103.819C45.1577-103.819 42.5017-101.289 42.1852-96.7531Z"/>
  </g>
  <g id="Light-L" transform="matrix(1 0 0 1 1071.29 1556)">
   <path d="M34.9516 29.5912L128.653 29.5912C139.368 29.5912 144.84 24.2065 144.84 13.398L144.84 8.20846L114.103-20.4065C111.283-23.0528 108.079-24.3657 104.488-24.3657C100.851-24.3657 98.0751-23.1332 95.0006-20.4869L67.5307 3.45962L56.9469-6.25813C54.3267-8.68379 51.7925-9.90315 48.6506-9.90315C45.7032-9.90315 43.3635-8.65011 40.79-6.33855L18.7172 13.3849C18.7172 24.2065 24.2366 29.5912 34.9516 29.5912ZM63.4252-19.3253C71.34-19.3253 77.8204-25.873 77.8204-33.8814C77.8204-41.7288 71.34-48.3363 63.4252-48.3363C55.4636-48.3363 49.03-41.7288 49.03-33.8814C49.03-25.873 55.4636-19.3253 63.4252-19.3253ZM34.067 31.5137L129.623 31.5137C141.472 31.5137 147.606 25.353 147.606 13.6654L147.606-51.9793C147.606-63.68 141.472-69.8276 129.623-69.8276L34.067-69.8276C22.1849-69.8276 16.084-63.8072 16.084-51.9793L16.084 13.6654C16.084 25.4465 22.1849 31.5137 34.067 31.5137ZM34.2278 24.8879C26.7082 24.8879 22.7098 20.9569 22.7098 13.3025L22.7098-51.6631C22.7098-59.2708 26.7082-63.2485 34.2278-63.2485L129.462-63.2485C136.795-63.2485 140.98-59.2708 140.98-51.6631L140.98 13.3025C140.98 20.9569 136.795 24.8879 129.462 24.8879ZM29.6935-80.9607L134.017-80.9607C133.559-84.6571 131.612-86.9803 127.646-86.9803L36.1118-86.9803C32.0655-86.9803 30.165-84.6571 29.6935-80.9607ZM41.9943-96.505L121.73-96.505C121.528-99.9526 119.459-102.12 115.682-102.12L48.0421-102.12C44.2989-102.12 42.1964-99.9526 41.9943-96.505Z"/>
  </g>
  <g id="Thin-L" transform="matrix(1 0 0 1 774.741 1556)">
   <path d="M33.5886 27.2689L129.511 27.2689C139.368 27.2689 144.235 22.3639 144.235 12.3631L144.235 6.5425L114.052-21.2395C111.055-24.012 107.902-25.4258 104.11-25.4258C100.245-25.4258 97.6208-24.0924 94.3191-21.3199L66.8239 2.39946L56.5178-7.2678C53.8724-9.74395 51.4896-11.0138 48.171-11.0138C45.0217-11.0138 42.8082-9.73551 40.2347-7.34822L18.793 12.2995C18.793 22.3639 23.7318 27.2689 33.5886 27.2689ZM63.3242-20.4865C71.2138-20.4865 77.7194-27.0089 77.7194-35.0425C77.7194-42.9152 71.2138-49.5732 63.3242-49.5732C55.3627-49.5732 48.9291-42.9152 48.9291-35.0425C48.9291-27.0089 55.3627-20.4865 63.3242-20.4865ZM32.7039 29.3177L130.658 29.3177C141.522 29.3177 147.278 23.4346 147.278 12.7314L147.278-53.62C147.278-64.3868 141.522-70.2062 130.658-70.2062L32.7039-70.2062C21.8315-70.2062 16.084-64.5392 16.084-53.62L16.084 12.7314C16.084 23.5786 21.8315 29.3177 32.7039 29.3177ZM32.8648 25.3675C24.4111 25.3675 20.0342 21.0074 20.0342 12.52L20.0342-53.4806C20.0342-61.896 24.4111-66.328 32.8648-66.328L130.497-66.328C138.663-66.328 143.328-61.896 143.328-53.4806L143.328 12.52C143.328 21.0074 138.663 25.3675 130.497 25.3675ZM29.9207-82.0966L133.386-82.0966C133.332-84.228 131.94-85.8949 129.741-85.8949L33.6381-85.8949C31.3587-85.8949 30.0388-84.228 29.9207-82.0966ZM41.7419-96.1768L121.629-96.1768C121.578-98.1857 120.216-99.8739 118.004-99.8739L45.3664-99.8739C43.163-99.8739 41.7925-98.1857 41.7419-96.1768Z"/>
  </g>
  <g id="Ultralight-L" transform="matrix(1 0 0 1 478.114 1556)">
   <path d="M32.8904 26.0795L129.951 26.0795C139.368 26.0795 143.924 21.4201 143.924 11.833L143.924 5.68921L114.026-21.6662C110.939-24.5033 107.812-25.9688 103.916-25.9688C99.9346-25.9688 97.3881-24.5837 93.97-21.7466L66.4619 1.85645L56.298-7.78495C53.6396-10.287 51.3344-11.5827 47.9253-11.5827C44.6726-11.5827 42.5237-10.2914 39.9503-7.86537L18.8317 11.7436C18.8317 21.4201 23.4732 26.0795 32.8904 26.0795ZM63.2725-21.0812C71.1492-21.0812 77.6677-27.5907 77.6677-35.6372C77.6677-43.5228 71.1492-50.2067 63.2725-50.2067C55.3109-50.2067 48.8773-43.5228 48.8773-35.6372C48.8773-27.5907 55.3109-21.0812 63.2725-21.0812ZM32.0058 28.1929L131.188 28.1929C141.548 28.1929 147.11 22.452 147.11 12.2531L147.11-54.4604C147.11-64.7488 141.548-70.4002 131.188-70.4002L32.0058-70.4002C21.6505-70.4002 16.084-64.9141 16.084-54.4604L16.084 12.2531C16.084 22.6219 21.6505 28.1929 32.0058 28.1929ZM32.1666 25.6131C23.2346 25.6131 18.6637 21.0332 18.6637 12.1192L18.6637-54.4114C18.6637-63.2405 23.2346-67.9053 32.1666-67.9053L131.027-67.9053C139.62-67.9053 144.53-63.2405 144.53-54.4114L144.53 12.1192C144.53 21.0332 139.62 25.6131 131.027 25.6131ZM30.0371-82.6784L133.063-82.6784C133.215-84.0082 132.108-85.339 130.814-85.339L32.3711-85.339C30.9967-85.339 29.9742-84.0082 30.0371-82.6784ZM41.6126-96.0088L121.577-96.0088C121.604-97.2807 120.604-98.7233 119.194-98.7233L43.996-98.7233C42.5812-98.7233 41.5856-97.2807 41.6126-96.0088Z"/>
  </g>
  <g id="Black-M" transform="matrix(1 0 0 1 2867.33 1126)">
   <path d="M36.3005 18.2903L95.9766 18.2903C104.377 18.2903 108.237 14.1103 108.237 5.13963L108.237 4.02985L84.5907-17.7451C82.9467-19.2702 81.0197-20.0271 78.8152-20.0271C76.8395-20.0271 74.8128-19.2754 73.1018-17.7503L55.3391-2.12389L48.2225-8.5837C46.6858-9.99029 44.846-10.6336 43.0099-10.6336C41.1897-10.6336 39.3087-9.9848 37.8288-8.646L23.9837 4.11767C23.9837 14.1674 27.5576 18.2903 36.3005 18.2903ZM53.2809-16.8897C58.8784-16.8897 63.5199-21.5422 63.5199-27.1963C63.5199-32.8399 58.8784-37.4292 53.2809-37.4292C47.5695-37.4292 42.9848-32.8399 42.9848-27.1963C42.9848-21.5422 47.5695-16.8897 53.2809-16.8897ZM31.6184 25.7066L100.527 25.7066C112.614 25.7066 119.684 18.648 119.684 6.57112L119.684-43.9499C119.684-56.021 112.614-63.0854 100.527-63.0854L31.6184-63.0854C19.5256-63.0854 12.4609-56.0259 12.4609-43.9499L12.4609 6.57112C12.4609 18.6475 19.5256 25.7066 31.6184 25.7066ZM34.2553 8.36868C31.2643 8.36868 29.7989 7.14263 29.7989 3.90132L29.7989-41.2798C29.7989-44.5214 31.2643-45.7471 34.2553-45.7471L97.8901-45.7471C100.882-45.7471 102.346-44.5214 102.346-41.2798L102.346 3.90132C102.346 7.14263 100.882 8.36868 97.8901 8.36868ZM25.1886-71.4151L106.968-71.4151C106.429-76.8842 103.146-80.3752 96.6057-80.3752L35.5507-80.3752C29.0047-80.3752 25.7222-76.8842 25.1886-71.4151ZM34.6126-88.0298L97.5382-88.0298C97.0485-93.2379 93.5103-96.296 88.0359-96.296L44.1149-96.296C38.6461-96.296 35.1023-93.2379 34.6126-88.0298Z"/>
  </g>
  <g id="Heavy-M" transform="matrix(1 0 0 1 2571.21 1126)">
   <path d="M34.4511 18.0686L96.643 18.0686C105.226 18.0686 109.321 13.7755 109.321 4.75183L109.321 3.10651L85.5018-18.9613C83.7726-20.5801 81.7025-21.3742 79.4102-21.3742C77.2902-21.3742 75.1979-20.5988 73.3832-18.98L54.7959-2.60857L47.357-9.33276C45.71-10.8388 43.8047-11.5411 41.8698-11.5411C39.9888-11.5411 38.0936-10.8224 36.4925-9.39506L21.7276 3.98078C21.7276 13.8191 25.6065 18.0686 34.4511 18.0686ZM52.3274-18.0314C58.0571-18.0314 62.782-22.7892 62.782-28.567C62.782-34.3075 58.0571-39.0098 52.3274-39.0098C46.5082-39.0098 41.8292-34.3075 41.8292-28.567C41.8292-22.7892 46.5082-18.0314 52.3274-18.0314ZM30.7123 24.0559L100.254 24.0559C111.892 24.0559 118.506 17.4701 118.506 5.87015L118.506-44.5607C118.506-56.1465 111.892-62.7464 100.254-62.7464L30.7123-62.7464C19.0586-62.7464 12.4609-56.1675 12.4609-44.5607L12.4609 5.87015C12.4609 17.4746 19.0586 24.0559 30.7123 24.0559ZM32.7562 8.95625C29.3203 8.95625 27.5605 7.40376 27.5605 3.72773L27.5605-42.4206C27.5605-46.0943 29.3203-47.6491 32.7562-47.6491L98.2105-47.6491C101.637-47.6491 103.406-46.0943 103.406-42.4206L103.406 3.72773C103.406 7.40376 101.637 8.95625 98.2105 8.95625ZM24.6187-70.9642L106.379-70.9642C105.786-76.194 102.789-79.4433 96.6427-79.4433L34.3569-79.4433C28.192-79.4433 25.1974-76.194 24.6187-70.9642ZM34.1828-86.8512L96.8004-86.8512C96.3529-91.8058 93.1019-94.6536 87.8535-94.6536L43.1297-94.6536C37.8977-94.6536 34.6302-91.8058 34.1828-86.8512Z"/>
  </g>
  <g id="Bold-M" transform="matrix(1 0 0 1 2275.15 1126)">
   <path d="M32.3824 17.8205L97.3884 17.8205C106.175 17.8205 110.533 13.4009 110.533 4.31802L110.533 2.07362L86.5211-20.3219C84.6965-22.0454 82.4663-22.8811 80.0758-22.8811C77.7943-22.8811 75.6288-22.0791 73.6978-20.3556L54.1882-3.15075L46.3889-10.1707C44.6184-11.788 42.6399-12.5563 40.5945-12.5563C38.6454-12.5563 36.7344-11.7593 34.9976-10.233L19.2039 3.82764C19.2039 13.4294 23.424 17.8205 32.3824 17.8205ZM51.2608-19.3086C57.1384-19.3086 61.9566-24.1841 61.9566-30.1004C61.9566-35.9493 57.1384-40.7778 51.2608-40.7778C45.3211-40.7778 40.5365-35.9493 40.5365-30.1004C40.5365-24.1841 45.3211-19.3086 51.2608-19.3086ZM29.6986 22.2092L99.9497 22.2092C111.084 22.2092 117.187 16.1523 117.187 5.08602L117.187-45.2441C117.187-56.2869 111.084-62.3673 99.9497-62.3673L29.6986-62.3673C18.5362-62.3673 12.4609-56.3258 12.4609-45.2441L12.4609 5.08602C12.4609 16.1626 18.5362 22.2092 29.6986 22.2092ZM31.0794 9.61353C27.1457 9.61353 25.0566 7.69588 25.0566 3.53355L25.0566-43.6967C25.0566-47.8539 27.1457-49.7767 31.0794-49.7767L98.569-49.7767C102.482-49.7767 104.592-47.8539 104.592-43.6967L104.592 3.53355C104.592 7.69588 102.482 9.61353 98.569 9.61353ZM23.9812-70.4598L105.719-70.4598C105.067-75.4218 102.389-78.4009 96.6842-78.4009L33.0214-78.4009C27.2828-78.4009 24.6103-75.4218 23.9812-70.4598ZM33.702-85.5328L95.975-85.5328C95.5749-90.2037 92.645-92.8163 87.6493-92.8163L42.0276-92.8163C37.0605-92.8163 34.1021-90.2037 33.702-85.5328Z"/>
  </g>
  <g id="Semibold-M" transform="matrix(1 0 0 1 1978.9 1126)">
   <path d="M30.9562 17.6495L97.9023 17.6495C106.83 17.6495 111.369 13.1426 111.369 4.01896L111.369 1.36156L87.2238-21.2598C85.3334-23.0556 82.9928-23.9199 80.5346-23.9199C78.1419-23.9199 75.9258-23.0997 73.9148-21.304L53.7693-3.52453L45.7215-10.7484C43.8659-12.4423 41.8368-13.2562 39.7154-13.2562C37.7192-13.2562 35.7973-12.4053 33.967-10.8107L17.464 3.72207C17.464 13.1608 21.9193 17.6495 30.9562 17.6495ZM50.5255-20.1891C56.505-20.1891 61.3876-25.1457 61.3876-31.1575C61.3876-37.0811 56.505-41.9967 50.5255-41.9967C44.5026-41.9967 39.6454-37.0811 39.6454-31.1575C39.6454-25.1457 44.5026-20.1891 50.5255-20.1891ZM28.9998 20.9362L99.7396 20.9362C110.526 20.9362 116.278 15.2439 116.278 4.54544L116.278-45.7151C116.278-56.3837 110.526-62.1059 99.7396-62.1059L28.9998-62.1059C18.1761-62.1059 12.4609-56.4349 12.4609-45.7151L12.4609 4.54544C12.4609 15.2581 18.1761 20.9362 28.9998 20.9362ZM29.9233 10.0667C25.6466 10.0667 23.3305 7.89726 23.3305 3.39969L23.3305-44.5765C23.3305-49.067 25.6466-51.2435 29.9233-51.2435L98.8161-51.2435C103.064-51.2435 105.409-49.067 105.409-44.5765L105.409 3.39969C105.409 7.89726 103.064 10.0667 98.8161 10.0667ZM23.5418-70.1121L105.265-70.1121C104.571-74.8895 102.113-77.6822 96.7127-77.6822L32.1008-77.6822C26.6561-77.6822 24.2056-74.8895 23.5418-70.1121ZM33.3705-84.6239L95.4059-84.6239C95.0384-89.0993 92.3301-91.5497 87.5086-91.5497L41.2679-91.5497C36.4834-91.5497 33.738-89.0993 33.3705-84.6239Z"/>
  </g>
  <g id="Medium-M" transform="matrix(1 0 0 1 1682.53 1126)">
   <path d="M29.8748 17.5198L98.2919 17.5198C107.327 17.5198 112.003 12.9468 112.003 3.79219L112.003 0.821641L87.7566-21.971C85.8163-23.8215 83.3921-24.7076 80.8825-24.7076C78.4054-24.7076 76.1511-23.8735 74.0793-22.023L53.4517-3.80794L45.2155-11.1864C43.2953-12.9385 41.2279-13.7868 39.0487-13.7868C37.017-13.7868 35.0868-12.895 33.1856-11.2487L16.1448 3.64202C16.1448 12.9571 20.7785 17.5198 29.8748 17.5198ZM49.968-20.8567C56.0248-20.8567 60.9561-25.8748 60.9561-31.9591C60.9561-37.9393 56.0248-42.921 49.968-42.921C43.8821-42.921 38.9696-37.9393 38.9696-31.9591C38.9696-25.8748 43.8821-20.8567 49.968-20.8567ZM28.47 19.9709L99.5802 19.9709C110.104 19.9709 115.589 14.5551 115.589 4.13556L115.589-46.0723C115.589-56.457 110.104-61.9077 99.5802-61.9077L28.47-61.9077C17.903-61.9077 12.4609-56.5177 12.4609-46.0723L12.4609 4.13556C12.4609 14.5723 17.903 19.9709 28.47 19.9709ZM29.0468 10.4102C24.5098 10.4102 22.0216 8.04996 22.0216 3.29818L22.0216-45.2436C22.0216-49.9868 24.5098-52.3556 29.0468-52.3556L99.0034-52.3556C103.506-52.3556 106.029-49.9868 106.029-45.2436L106.029 3.29818C106.029 8.04996 103.506 10.4102 99.0034 10.4102ZM23.2085-69.8485L104.92-69.8485C104.195-74.4859 101.904-77.1373 96.7344-77.1373L31.4027-77.1373C26.1809-77.1373 23.8987-74.4859 23.2085-69.8485ZM33.1192-83.9347L94.9745-83.9347C94.6317-88.2618 92.0913-90.5893 87.4019-90.5893L40.6918-90.5893C36.0458-90.5893 33.462-88.2618 33.1192-83.9347Z"/>
  </g>
  <g id="Regular-M" transform="matrix(1 0 0 1 1386.27 1126)">
   <path d="M28.4642 17.3507L98.8001 17.3507C107.974 17.3507 112.83 12.6914 112.83 3.49641L112.83 0.117401L88.4516-22.8987C86.4463-24.8206 83.9129-25.735 81.3363-25.735C78.7491-25.735 76.4448-24.8829 74.2938-22.961L53.0374-4.17762L44.5554-11.7577C42.5511-13.5856 40.4337-14.479 38.1792-14.479C36.1011-14.479 34.1601-13.5339 32.1663-11.82L14.424 3.53761C14.424 12.6914 19.2903 17.3507 28.4642 17.3507ZM49.2408-21.7274C55.3984-21.7274 60.3933-26.8259 60.3933-33.0046C60.3933-39.0587 55.3984-44.1265 49.2408-44.1265C43.0726-44.1265 38.0883-39.0587 38.0883-33.0046C38.0883-26.8259 43.0726-21.7274 49.2408-21.7274ZM27.7789 18.7118L99.3724 18.7118C109.553 18.7118 114.69 13.6566 114.69 3.60092L114.69-46.5383C114.69-56.5528 109.553-61.6492 99.3724-61.6492L27.7789-61.6492C17.5468-61.6492 12.4609-56.6256 12.4609-46.5383L12.4609 3.60092C12.4609 13.6777 17.5468 18.7118 27.7789 18.7118ZM27.9035 10.8584C23.0272 10.8584 20.3144 8.24913 20.3144 3.16579L20.3144-46.1137C20.3144-51.1865 23.0272-53.8063 27.9035-53.8063L99.2478-53.8063C104.082-53.8063 106.837-51.1865 106.837-46.1137L106.837 3.16579C106.837 8.24913 104.082 10.8584 99.2478 10.8584ZM22.7739-69.5046L104.47-69.5046C103.705-73.9594 101.631-76.4265 96.7627-76.4265L30.4922-76.4265C25.561-76.4265 23.4984-73.9594 22.7739-69.5046ZM32.7914-83.0358L94.4117-83.0358C94.1012-87.1695 91.7798-89.3366 87.2627-89.3366L39.9404-89.3366C35.475-89.3366 33.1019-87.1695 32.7914-83.0358Z"/>
  </g>
  <g id="Light-M" transform="matrix(1 0 0 1 1089.67 1126)">
   <path d="M27.5402 15.7765L99.3819 15.7765C107.974 15.7765 112.419 11.4423 112.419 2.79486L112.419-1.01192L88.4173-23.4633C86.2923-25.4708 83.7931-26.4537 81.0796-26.4537C78.3385-26.4537 76.1369-25.5331 73.8318-23.5256L52.5583-4.89628L44.2645-12.4421C42.2431-14.3043 40.2284-15.2319 37.8541-15.2319C35.6391-15.2319 33.7836-14.2696 31.7899-12.5044L14.4754 2.80184C14.4754 11.4423 18.9481 15.7765 27.5402 15.7765ZM49.1724-22.5145C55.3129-22.5145 60.3249-27.5959 60.3249-33.7917C60.3249-39.8629 55.3129-44.9649 49.1724-44.9649C43.0042-44.9649 38.0198-39.8629 38.0198-33.7917C38.0198-27.5959 43.0042-22.5145 49.1724-22.5145ZM26.8549 17.2232L100.074 17.2232C109.587 17.2232 114.468 12.3562 114.468 2.96782L114.468-47.6505C114.468-57.0319 109.587-61.9058 100.074-61.9058L26.8549-61.9058C17.3073-61.9058 12.4609-57.1218 12.4609-47.6505L12.4609 2.96782C12.4609 12.4115 17.3073 17.2232 26.8549 17.2232ZM26.9795 11.1835C21.4701 11.1835 18.5006 8.28335 18.5006 2.63535L18.5006-47.3457C18.5006-52.966 21.4701-55.8938 26.9795-55.8938L99.9494-55.8938C105.348-55.8938 108.428-52.966 108.428-47.3457L108.428 2.63535C108.428 8.28335 105.348 11.1835 99.9494 11.1835ZM22.9279-70.2746L104.043-70.2746C103.551-73.6685 101.854-75.6907 98.1829-75.6907L28.8153-75.6907C25.0819-75.6907 23.4129-73.6685 22.9279-70.2746ZM32.6203-82.8133L94.3433-82.8133C94.1354-85.9718 92.2931-87.8138 88.8369-87.8138L38.1266-87.8138C34.705-87.8138 32.8281-85.9718 32.6203-82.8133Z"/>
  </g>
  <g id="Thin-M" transform="matrix(1 0 0 1 793.105 1126)">
   <path d="M26.3182 13.6945L100.151 13.6945C107.974 13.6945 111.876 9.79026 111.876 1.86701L111.876-2.50554L88.3721-24.2101C86.0886-26.3307 83.6347-27.4042 80.7401-27.4042C77.7953-27.4042 75.7295-26.3931 73.2208-24.2724L51.9246-5.84676L43.8798-13.3473C41.8357-15.2548 39.9568-16.2276 37.4241-16.2276C35.028-16.2276 33.2858-15.2428 31.292-13.4097L14.5433 1.82873C14.5433 9.79026 18.4955 13.6945 26.3182 13.6945ZM49.0818-23.5555C55.1997-23.5555 60.2344-28.6142 60.2344-34.8327C60.2344-40.9265 55.1997-46.0738 49.0818-46.0738C42.9137-46.0738 37.9293-40.9265 37.9293-34.8327C37.9293-28.6142 42.9137-23.5555 49.0818-23.5555ZM25.6328 15.2543L101.002 15.2543C109.632 15.2543 114.174 10.6363 114.174 2.13048L114.174-49.1215C114.174-57.6655 109.632-62.2453 101.002-62.2453L25.6328-62.2453C16.9904-62.2453 12.4609-57.7781 12.4609-49.1215L12.4609 2.13048C12.4609 10.7368 16.9904 15.2543 25.6328 15.2543ZM25.7574 11.6135C19.4107 11.6135 16.1018 8.32861 16.1018 1.9338L16.1018-48.9751C16.1018-55.3196 19.4107-58.6547 25.7574-58.6547L100.877-58.6547C107.023-58.6547 110.533-55.3196 110.533-48.9751L110.533 1.9338C110.533 8.32861 107.023 11.6135 100.877 11.6135ZM23.1315-71.293L103.477-71.293C103.347-73.2838 102.148-74.7176 100.061-74.7176L26.5975-74.7176C24.4483-74.7176 23.2997-73.2838 23.1315-71.293ZM32.3939-82.5191L94.2527-82.5191C94.1807-84.3876 92.9721-85.7996 90.9189-85.7996L35.7278-85.7996C33.6866-85.7996 32.466-84.3876 32.3939-82.5191Z"/>
  </g>
  <g id="Ultralight-M" transform="matrix(1 0 0 1 496.469 1126)">
   <path d="M25.6923 12.6281L100.545 12.6281C107.974 12.6281 111.598 8.9441 111.598 1.39177L111.598-3.27056L88.3489-24.5927C85.9843-26.7712 83.5535-27.891 80.5663-27.891C77.5171-27.891 75.5209-26.8335 72.9078-24.655L51.6001-6.33359L43.6827-13.811C41.6271-15.7416 39.8177-16.7376 37.2039-16.7376C34.7151-16.7376 33.0307-15.7412 31.037-13.8733L14.578 1.3303C14.578 8.9441 18.2637 12.6281 25.6923 12.6281ZM49.0355-24.0887C55.1418-24.0887 60.188-29.1358 60.188-35.3659C60.188-41.4713 55.1418-46.6418 49.0355-46.6418C42.8673-46.6418 37.8829-41.4713 37.8829-35.3659C37.8829-29.1358 42.8673-24.0887 49.0355-24.0887ZM25.0069 14.2459L101.477 14.2459C109.655 14.2459 114.023 9.75532 114.023 1.70161L114.023-49.8749C114.023-57.9901 109.655-62.4192 101.477-62.4192L25.0069-62.4192C16.8282-62.4192 12.4609-58.1143 12.4609-49.8749L12.4609 1.70161C12.4609 9.87909 16.8282 14.2459 25.0069 14.2459ZM25.1315 11.8337C18.3559 11.8337 14.8731 8.3518 14.8731 1.57447L14.8731-49.8096C14.8731-56.5251 18.3559-60.0689 25.1315-60.0689L101.352-60.0689C107.881-60.0689 111.611-56.5251 111.611-49.8096L111.611 1.57447C111.611 8.3518 107.881 11.8337 101.352 11.8337ZM23.2359-71.8146L103.187-71.8146C103.243-73.0867 102.299-74.2192 101.023-74.2192L25.4616-74.2192C24.1237-74.2192 23.2418-73.0867 23.2359-71.8146ZM32.278-82.3685L94.2064-82.3685C94.2038-83.5762 93.3198-84.768 91.9853-84.768L34.4991-84.768C33.165-84.768 32.2806-83.5762 32.278-82.3685Z"/>
  </g>
  <g id="Black-S" transform="matrix(1 0 0 1 2881.45 696)">
   <path d="M28.9551 6.68945L75.0488 6.68945C81.543 6.68945 84.4727 3.4668 84.4727-3.51562L84.4727-4.24805L66.0156-21.1914C64.7461-22.3633 63.2812-22.9492 61.5723-22.9492C60.0586-22.9492 58.4961-22.3633 57.1777-21.1914L43.5059-9.17969L38.0371-14.1602C36.8652-15.2344 35.4492-15.7227 34.0332-15.7227C32.6172-15.7227 31.1523-15.2344 30.0293-14.209L19.4824-4.39453C19.4824 3.51562 22.168 6.68945 28.9551 6.68945ZM42.041-20.5566C46.3867-20.5566 50-24.1699 50-28.5645C50-32.959 46.3867-36.5234 42.041-36.5234C37.5977-36.5234 34.0332-32.959 34.0332-28.5645C34.0332-24.1699 37.5977-20.5566 42.041-20.5566ZM25 12.9395L78.9062 12.9395C88.4766 12.9395 94.1406 7.27539 94.1406-2.29492L94.1406-41.9434C94.1406-51.5137 88.4766-57.1777 78.9062-57.1777L25-57.1777C15.4297-57.1777 9.76562-51.5137 9.76562-41.9434L9.76562-2.29492C9.76562 7.27539 15.4297 12.9395 25 12.9395ZM27.2461-1.2207C25-1.2207 23.9258-2.09961 23.9258-4.54102L23.9258-39.6973C23.9258-42.1387 25-43.0176 27.2461-43.0176L76.6602-43.0176C78.9062-43.0176 79.9805-42.1387 79.9805-39.6973L79.9805-4.54102C79.9805-2.09961 78.9062-1.2207 76.6602-1.2207ZM19.9219-63.7695L83.9844-63.7695C83.5938-68.0664 80.957-70.8496 75.7812-70.8496L28.125-70.8496C22.9492-70.8496 20.3125-68.0664 19.9219-63.7695ZM27.2461-76.9531L76.6602-76.9531C76.2695-81.0547 73.4375-83.4961 69.1406-83.4961L34.7656-83.4961C30.4688-83.4961 27.6367-81.0547 27.2461-76.9531Z"/>
  </g>
  <g id="Heavy-S" transform="matrix(1 0 0 1 2585.23 696)">
   <path d="M27.4915 6.70098L75.5444 6.70098C82.269 6.70098 85.4522 3.34003 85.4522-3.75764L85.4522-4.89342L66.7993-22.1595C65.4721-23.4005 63.8805-24.0095 62.1139-24.0095C60.4965-24.0095 58.8649-23.412 57.4774-22.171L43.1025-9.50237L37.3341-14.7133C36.07-15.8682 34.5849-16.4026 33.0997-16.4026C31.6491-16.4026 30.1612-15.8567 28.9345-14.7622L17.5463-4.41758C17.5463 3.37733 20.543 6.70098 27.4915 6.70098ZM41.2343-21.4325C45.6953-21.4325 49.3777-25.138 49.3777-29.6362C49.3777-34.1114 45.6953-37.7681 41.2343-37.7681C36.6987-37.7681 33.0536-34.1114 33.0536-29.6362C33.0536-25.138 36.6987-21.4325 41.2343-21.4325ZM24.3431 11.7179L78.5836 11.7179C87.8542 11.7179 93.161 6.4341 93.161-2.81352L93.161-42.3237C93.161-51.5598 87.8542-56.855 78.5836-56.855L24.3431-56.855C15.0609-56.855 9.76562-51.5713 9.76562-42.3237L9.76562-2.81352C9.76562 6.4341 15.0609 11.7179 24.3431 11.7179ZM26.0821-0.759725C23.5364-0.759725 22.2432-1.88064 22.2432-4.62169L22.2432-40.5155C22.2432-43.2565 23.5364-44.3775 26.0821-44.3775L76.8445-44.3775C79.3903-44.3775 80.6835-43.2565 80.6835-40.5155L80.6835-4.62169C80.6835-1.88064 79.3903-0.759725 76.8445-0.759725ZM19.4148-63.2855L83.5349-63.2855C83.0636-67.5132 80.6228-70.1466 75.6314-70.1466L27.3183-70.1466C22.3154-70.1466 19.8746-67.5132 19.4148-63.2855ZM26.9004-75.9735L76.0378-75.9735C75.6703-79.9829 73.0226-82.286 68.7834-82.286L34.1548-82.286C29.9271-82.286 27.2679-79.9829 26.9004-75.9735Z"/>
  </g>
  <g id="Bold-S" transform="matrix(1 0 0 1 2289.06 696)">
   <path d="M25.8545 6.71387L76.0986 6.71387C83.0811 6.71387 86.5479 3.19824 86.5479-4.02832L86.5479-5.61523L67.6758-23.2422C66.2842-24.5605 64.5508-25.1953 62.7197-25.1953C60.9863-25.1953 59.2773-24.585 57.8125-23.2666L42.6514-9.86328L36.5479-15.332C35.1807-16.5771 33.6182-17.1631 32.0557-17.1631C30.5664-17.1631 29.0527-16.5527 27.71-15.3809L15.3809-4.44336C15.3809 3.22266 18.7256 6.71387 25.8545 6.71387ZM40.332-22.4121C44.9219-22.4121 48.6816-26.2207 48.6816-30.835C48.6816-35.4004 44.9219-39.1602 40.332-39.1602C35.6934-39.1602 31.958-35.4004 31.958-30.835C31.958-26.2207 35.6934-22.4121 40.332-22.4121ZM23.6084 10.3516L78.2227 10.3516C87.1582 10.3516 92.0654 5.49316 92.0654-3.39355L92.0654-42.749C92.0654-51.6113 87.1582-56.4941 78.2227-56.4941L23.6084-56.4941C14.6484-56.4941 9.76562-51.6357 9.76562-42.749L9.76562-3.39355C9.76562 5.49316 14.6484 10.3516 23.6084 10.3516ZM24.7803-0.244141C21.8994-0.244141 20.3613-1.63574 20.3613-4.71191L20.3613-41.4307C20.3613-44.5068 21.8994-45.8984 24.7803-45.8984L77.0508-45.8984C79.9316-45.8984 81.4697-44.5068 81.4697-41.4307L81.4697-4.71191C81.4697-1.63574 79.9316-0.244141 77.0508-0.244141ZM18.8477-62.7441L83.0322-62.7441C82.4707-66.8945 80.249-69.3604 75.4639-69.3604L26.416-69.3604C21.6064-69.3604 19.3848-66.8945 18.8477-62.7441ZM26.5137-74.8779L75.3418-74.8779C75-78.7842 72.5586-80.9326 68.3838-80.9326L33.4717-80.9326C29.3213-80.9326 26.8555-78.7842 26.5137-74.8779Z"/>
  </g>
  <g id="Semibold-S" transform="matrix(1 0 0 1 1992.73 696)">
   <path d="M24.7259 6.72275L76.4808 6.72275C83.6409 6.72275 87.3032 3.10049 87.3032-4.21494L87.3032-6.11289L68.2801-23.9887C66.844-25.3604 65.0129-26.0129 63.1374-26.0129C61.324-26.0129 59.5617-25.3937 58.0436-24.022L42.3403-10.1121L36.0058-15.7586C34.5675-17.0659 32.9517-17.6874 31.3358-17.6874C29.8199-17.6874 28.2885-17.0326 26.8657-15.8074L13.8879-4.46113C13.8879 3.11602 17.4726 6.72275 24.7259 6.72275ZM39.71-23.0875C44.3887-23.0875 48.2018-26.9672 48.2018-31.6614C48.2018-36.2891 44.3887-40.1199 39.71-40.1199C35.0002-40.1199 31.2026-36.2891 31.2026-31.6614C31.2026-26.9672 35.0002-23.0875 39.71-23.0875ZM23.1019 9.40957L77.9738 9.40957C86.6783 9.40957 91.3101 4.84443 91.3101-3.79346L91.3101-43.0423C91.3101-51.6469 86.6783-56.2453 77.9738-56.2453L23.1019-56.2453C14.3641-56.2453 9.76562-51.6802 9.76562-43.0423L9.76562-3.79346C9.76562 4.84443 14.3641 9.40957 23.1019 9.40957ZM23.8827 0.111328C20.7708 0.111328 19.0639-1.46689 19.0639-4.77412L19.0639-42.0616C19.0639-45.3688 20.7708-46.9471 23.8827-46.9471L77.193-46.9471C80.3049-46.9471 82.0118-45.3688 82.0118-42.0616L82.0118-4.77412C82.0118-1.46689 80.3049 0.111328 77.193 0.111328ZM18.4566-62.3709L82.6856-62.3709C82.0619-66.468 79.9913-68.8183 75.3483-68.8183L25.7939-68.8183C21.1177-68.8183 19.0471-66.468 18.4566-62.3709ZM26.2471-74.1226L74.8619-74.1226C74.5379-77.9577 72.2387-79.9995 68.1083-79.9995L33.0007-79.9995C28.9036-79.9995 26.5711-77.9577 26.2471-74.1226Z"/>
  </g>
  <g id="Medium-S" transform="matrix(1 0 0 1 1696.3 696)">
   <path d="M23.8701 6.72949L76.7705 6.72949C84.0654 6.72949 87.876 3.02637 87.876-4.35645L87.876-6.49023L68.7383-24.5547C67.2686-25.9668 65.3633-26.6328 63.4541-26.6328C61.5801-26.6328 59.7773-26.0068 58.2188-24.5947L42.1045-10.3008L35.5947-16.082C34.1025-17.4365 32.4463-18.085 30.79-18.085C29.2539-18.085 27.709-17.3965 26.2256-16.1309L12.7559-4.47461C12.7559 3.03516 16.5225 6.72949 23.8701 6.72949ZM39.2383-23.5996C43.9844-23.5996 47.8379-27.5332 47.8379-32.2881C47.8379-36.9629 43.9844-40.8477 39.2383-40.8477C34.4746-40.8477 30.6299-36.9629 30.6299-32.2881C30.6299-27.5332 34.4746-23.5996 39.2383-23.5996ZM22.7178 8.69531L77.7852 8.69531C86.3145 8.69531 90.7373 4.35254 90.7373-4.09668L90.7373-43.2646C90.7373-51.6738 86.3145-56.0566 77.7852-56.0566L22.7178-56.0566C14.1484-56.0566 9.76562-51.7139 9.76562-43.2646L9.76562-4.09668C9.76562 4.35254 14.1484 8.69531 22.7178 8.69531ZM23.2021 0.380859C19.915 0.380859 18.0801-1.33887 18.0801-4.82129L18.0801-42.54C18.0801-46.0225 19.915-47.7422 23.2021-47.7422L77.3008-47.7422C80.5879-47.7422 82.4229-46.0225 82.4229-42.54L82.4229-4.82129C82.4229-1.33887 80.5879 0.380859 77.3008 0.380859ZM18.1602-62.0879L82.4229-62.0879C81.752-66.1445 79.7959-68.4072 75.2607-68.4072L25.3223-68.4072C20.7471-68.4072 18.791-66.1445 18.1602-62.0879ZM26.0449-73.5498L74.498-73.5498C74.1875-77.3311 71.9961-79.292 67.8994-79.292L32.6436-79.292C28.5869-79.292 26.3555-77.3311 26.0449-73.5498Z"/>
  </g>
  <g id="Regular-S" transform="matrix(1 0 0 1 1399.97 696)">
   <path d="M22.7539 6.73828L77.1484 6.73828C84.6191 6.73828 88.623 2.92969 88.623-4.54102L88.623-6.98242L69.3359-25.293C67.8223-26.7578 65.8203-27.4414 63.8672-27.4414C61.9141-27.4414 60.0586-26.8066 58.4473-25.3418L41.7969-10.5469L35.0586-16.5039C33.4961-17.9199 31.7871-18.6035 30.0781-18.6035C28.5156-18.6035 26.9531-17.8711 25.3906-16.5527L11.2793-4.49219C11.2793 2.92969 15.2832 6.73828 22.7539 6.73828ZM38.623-24.2676C43.457-24.2676 47.3633-28.2715 47.3633-33.1055C47.3633-37.8418 43.457-41.7969 38.623-41.7969C33.7891-41.7969 29.8828-37.8418 29.8828-33.1055C29.8828-28.2715 33.7891-24.2676 38.623-24.2676ZM22.2168 7.76367L77.5391 7.76367C85.8398 7.76367 89.9902 3.71094 89.9902-4.49219L89.9902-43.5547C89.9902-51.709 85.8398-55.8105 77.5391-55.8105L22.2168-55.8105C13.8672-55.8105 9.76562-51.7578 9.76562-43.5547L9.76562-4.49219C9.76562 3.71094 13.8672 7.76367 22.2168 7.76367ZM22.3145 0.732422C18.7988 0.732422 16.7969-1.17188 16.7969-4.88281L16.7969-43.1641C16.7969-46.875 18.7988-48.7793 22.3145-48.7793L77.4414-48.7793C80.957-48.7793 82.959-46.875 82.959-43.1641L82.959-4.88281C82.959-1.17188 80.957 0.732422 77.4414 0.732422ZM17.7734-61.7188L82.0801-61.7188C81.3477-65.7227 79.541-67.8711 75.1465-67.8711L24.707-67.8711C20.2637-67.8711 18.457-65.7227 17.7734-61.7188ZM25.7812-72.8027L74.0234-72.8027C73.7305-76.5137 71.6797-78.3691 67.627-78.3691L32.1777-78.3691C28.1738-78.3691 26.0742-76.5137 25.7812-72.8027Z"/>
  </g>
  <g id="Light-S" transform="matrix(1 0 0 1 1103.35 696)">
   <path d="M21.9365 5.34571L77.6631 5.34571C84.6191 5.34571 88.2598 1.82472 88.2598-5.16162L88.2598-7.98144L69.3057-25.7925C67.686-27.333 65.7144-28.0771 63.6401-28.0771C61.5508-28.0771 59.7861-27.3818 58.0386-25.8413L41.3731-11.1826L34.8013-17.1094C33.2236-18.5557 31.6055-19.2695 29.7905-19.2695C28.1069-19.2695 26.6201-18.522 25.0576-17.1582L11.3247-5.14306C11.3247 1.82472 14.9805 5.34571 21.9365 5.34571ZM38.5625-24.9639C43.3813-24.9639 47.3027-28.9526 47.3027-33.8018C47.3027-38.5532 43.3813-42.5386 38.5625-42.5386C33.7285-42.5386 29.8223-38.5532 29.8223-33.8018C29.8223-28.9526 33.7285-24.9639 38.5625-24.9639ZM21.3994 6.44679L78.1597 6.44679C85.8701 6.44679 89.7935 2.56056 89.7935-5.05224L89.7935-44.5386C89.7935-52.1328 85.8701-56.0376 78.1597-56.0376L21.3994-56.0376C13.6553-56.0376 9.76562-52.1968 9.76562-44.5386L9.76562-5.05224C9.76562 2.59083 13.6553 6.44679 21.3994 6.44679ZM21.4971 1.02002C17.4214 1.02002 15.1924-1.1416 15.1924-5.35205L15.1924-44.2539C15.1924-48.4492 17.4214-50.626 21.4971-50.626L78.062-50.626C82.0771-50.626 84.3667-48.4492 84.3667-44.2539L84.3667-5.35205C84.3667-1.1416 82.0771 1.02002 78.062 1.02002ZM17.9097-62.3999L81.7017-62.3999C81.2114-65.4653 79.7378-67.2202 76.4028-67.2202L23.2236-67.2202C19.8398-67.2202 18.3813-65.4653 17.9097-62.3999ZM25.6299-72.606L73.9629-72.606C73.7607-75.4541 72.1338-77.022 69.0195-77.022L30.5733-77.022C27.4927-77.022 25.832-75.4541 25.6299-72.606Z"/>
  </g>
  <g id="Thin-S" transform="matrix(1 0 0 1 806.773 696)">
   <path d="M20.8555 3.50393L78.3437 3.50393C84.6191 3.50393 87.7793 0.363301 87.7793-5.98241L87.7793-9.30272L69.2656-26.4531C67.5059-28.0937 65.5742-28.918 63.3398-28.918C61.0703-28.918 59.4258-28.1426 57.4981-26.5019L40.8125-12.0234L34.4609-17.9101C32.8633-19.3965 31.3652-20.1504 29.4102-20.1504C27.5664-20.1504 26.1797-19.3828 24.6172-17.959L11.3848-6.00389C11.3848 0.363301 14.5801 3.50393 20.8555 3.50393ZM38.4824-25.8848C43.2813-25.8848 47.2227-29.8535 47.2227-34.7226C47.2227-39.4941 43.2813-43.5195 38.4824-43.5195C33.6484-43.5195 29.7422-39.4941 29.7422-34.7226C29.7422-29.8535 33.6484-25.8848 38.4824-25.8848ZM20.3184 4.7051L78.9805 4.7051C85.9102 4.7051 89.5332 1.03908 89.5332-5.79296L89.5332-45.8398C89.5332-52.6934 85.9102-56.3379 78.9805-56.3379L20.3184-56.3379C13.375-56.3379 9.76562-52.7773 9.76562-45.8398L9.76562-5.79296C9.76562 1.1094 13.375 4.7051 20.3184 4.7051ZM20.416 1.40039C15.5996 1.40039 13.0703-1.10156 13.0703-5.97265L13.0703-45.6953C13.0703-50.5312 15.5996-53.0683 20.416-53.0683L78.8828-53.0683C83.5586-53.0683 86.2285-50.5312 86.2285-45.6953L86.2285-5.97265C86.2285-1.10156 83.5586 1.40039 78.8828 1.40039ZM18.0898-63.3008L81.2012-63.3008C81.0313-65.125 79.998-66.3594 78.0644-66.3594L21.2617-66.3594C19.2793-66.3594 18.2813-65.125 18.0898-63.3008ZM25.4297-72.3457L73.8828-72.3457C73.8008-74.0528 72.7344-75.2403 70.8613-75.2403L28.4512-75.2403C26.5918-75.2403 25.5117-74.0528 25.4297-72.3457Z"/>
  </g>
  <g id="Ultralight-S" transform="matrix(1 0 0 1 510.128 696)">
   <path d="M20.3018 2.56058L78.6924 2.56058C84.6191 2.56058 87.5332-0.385228 87.5332-6.40282L87.5332-9.97947L69.2451-26.7915C67.4136-28.4834 65.5024-29.3486 63.186-29.3486C60.8242-29.3486 59.2412-28.5322 57.2212-26.8403L40.5254-12.4541L34.2866-18.3203C32.6787-19.8271 31.2422-20.6015 29.2153-20.6015C27.2896-20.6015 25.9541-19.8237 24.3916-18.3691L11.4155-6.44481C11.4155-0.385228 14.375 2.56058 20.3018 2.56058ZM38.4414-26.3564C43.23-26.3564 47.1816-30.3149 47.1816-35.1943C47.1816-39.9761 43.23-44.022 38.4414-44.022C33.6074-44.022 29.7012-39.9761 29.7012-35.1943C29.7012-30.3149 33.6074-26.3564 38.4414-26.3564ZM19.7647 3.81302L79.4009 3.81302C85.9307 3.81302 89.3999 0.259793 89.3999-6.17235L89.3999-46.5063C89.3999-52.9805 85.9307-56.4917 79.4009-56.4917L19.7647-56.4917C13.2315-56.4917 9.76562-53.0747 9.76562-46.5063L9.76562-6.17235C9.76562 0.350612 13.2315 3.81302 19.7647 3.81302ZM19.8623 1.59521C14.6665 1.59521 11.9834-1.08106 11.9834-6.29052L11.9834-46.4336C11.9834-51.5976 14.6665-54.3193 19.8623-54.3193L79.3032-54.3193C84.3174-54.3193 87.1821-51.5976 87.1821-46.4336L87.1821-6.29052C87.1821-1.08106 84.3174 1.59521 79.3032 1.59521ZM18.1821-63.7622L80.9448-63.7622C80.939-64.9507 80.1313-65.9185 78.9155-65.9185L20.2569-65.9185C18.9922-65.9185 18.23-64.9507 18.1821-63.7622ZM25.3272-72.2124L73.8418-72.2124C73.8213-73.335 73.042-74.3277 71.8047-74.3277L27.3643-74.3277C26.1304-74.3277 25.3477-73.335 25.3272-72.2124Z"/>
  </g>
 </g>
</svg>
