<?xml version="1.0" encoding="UTF-8" standalone="no"?>
<!-- Generator: Adobe Illustrator 15.1.0, SVG Export Plug-In . SVG Version: 6.00 Build 0)  -->

<svg
   version="1.1"
   id="Layer_1"
   x="0px"
   y="0px"
   width="64px"
   height="64px"
   viewBox="0 0 64 64"
   enable-background="new 0 0 64 64"
   xml:space="preserve"
   xmlns:inkscape="http://www.inkscape.org/namespaces/inkscape"
   xmlns:sodipodi="http://sodipodi.sourceforge.net/DTD/sodipodi-0.dtd"
   xmlns="http://www.w3.org/2000/svg"
   xmlns:svg="http://www.w3.org/2000/svg"><defs
   id="defs1163" /><sodipodi:namedview
   id="namedview1161"
   pagecolor="#ffffff"
   bordercolor="#000000"
   borderopacity="0.25"
   inkscape:showpageshadow="2"
   inkscape:pageopacity="0.0"
   inkscape:pagecheckerboard="0"
   inkscape:deskcolor="#d1d1d1"
   showgrid="false" />
<path
   d="M52,54l2,4H10l2-4H52z M26,22v14l14-7L26,22z M60,14c0,2,0,28,0,30s-2,4-4,4c-0.569,0-4.553,0-10,0  l1,2l1,1v1H16v-1l1-1l1-2c-5.447,0-9.43,0-10,0c-2,0-4-2-4-4s0-28,0-30s1-4,4-4s46,0,48,0S60,12,60,14z M10,40H8v2h2V40z M10,36H8v2  h2V36z M10,32H8v2h2V32z M10,28H8v2h2V28z M10,24H8v2h2V24z M10,20H8v2h2V20z M10,16H8v2h2V16z M32,47.774  c0.704,0,1.274-0.57,1.274-1.274s-0.57-1.274-1.274-1.274s-1.275,0.57-1.275,1.274S31.296,47.774,32,47.774z M52,16H12v26h40V16z   M56,40h-2v2h2V40z M56,36h-2v2h2V36z M56,32h-2v2h2V32z M56,28h-2v2h2V28z M56,24h-2v2h2V24z M56,20h-2v2h2V20z M56,16h-2v2h2V16z"
   id="path1158"
   style="fill:#000000" />
</svg>
