<?xml version="1.0" encoding="UTF-8" standalone="no"?>
<!-- Generator: Adobe Illustrator 15.1.0, SVG Export Plug-In . SVG Version: 6.00 Build 0)  -->

<svg
   version="1.1"
   id="Layer_1"
   x="0px"
   y="0px"
   width="48px"
   height="48px"
   viewBox="0 0 48 48"
   enable-background="new 0 0 48 48"
   xml:space="preserve"
   xmlns:inkscape="http://www.inkscape.org/namespaces/inkscape"
   xmlns:sodipodi="http://sodipodi.sourceforge.net/DTD/sodipodi-0.dtd"
   xmlns="http://www.w3.org/2000/svg"
   xmlns:svg="http://www.w3.org/2000/svg"><defs
   id="defs1421" /><sodipodi:namedview
   id="namedview1419"
   pagecolor="#ffffff"
   bordercolor="#000000"
   borderopacity="0.25"
   inkscape:showpageshadow="2"
   inkscape:pageopacity="0.0"
   inkscape:pagecheckerboard="0"
   inkscape:deskcolor="#d1d1d1"
   showgrid="false" />
<path
   fill-rule="evenodd"
   clip-rule="evenodd"
   d="M43.506,15.002c-0.816,0-3,0-3,0v-1.5c0-1.5-1.5-3-3-3  c-1.5,0-3,0-3,0s0,0,0-1.5c0-1.5-1.5-3-3-3s-25.503,0-27.004,0c-1.5,0-3,1.5-3,3c0,1.5,0,16.502,0,18.002s1.5,3,3,3h1.5  c0,0,0,1.5,0,3c0,1.5,1.5,3,3,3h1.5c0,0,0,3,0,4.5c0,1.5,1.5,3,3,3c1.5,0,28.504,0,30.004,0c1.5,0,3-1.5,3-3  c0-1.5,0-21.003,0-22.503C46.506,16.502,45.006,15.002,43.506,15.002z M6.001,13.502c0,1.5,0,13.502,0,13.502  c-0.75,0-1.5-0.75-1.5-1.5c0-0.75,0-14.252,0-15.002c0-0.75,0.75-1.5,1.5-1.5c0.75,0,23.253,0,24.003,0c0.75,0,1.5,0.75,1.5,1.5  c0,0-21.003,0-22.503,0C7.501,10.501,6.001,12.002,6.001,13.502z M10.501,18.002c0,1.5,0,15.002,0,15.002c-0.75,0-1.5-0.75-1.5-1.5  s0-15.752,0-16.502c0-0.75,0.75-1.5,1.5-1.5s24.753,0,25.503,0s1.5,0.75,1.5,1.5c0,0-22.503,0-24.003,0  C12.001,15.002,10.501,16.502,10.501,18.002z M43.506,39.033c0,0.723-0.75,1.473-1.5,1.473s-26.253,0-27.004,0  c-0.75,0-1.5-0.75-1.5-1.5c0-0.75,0-18.676,0-19.464s0.75-1.539,1.5-1.539c0.75,0,26.254,0,27.004,0s1.5,0.647,1.5,1.449  C43.506,20.253,43.506,38.31,43.506,39.033z M37.505,22.503l4.5,7.501v7.22c0,0.75-1.031,1.781-1.781,1.781l-25.222,0l5.063-7.499  l3.188,2.998l3.75-6.001l4.5,4.501L37.505,22.503z M17.259,24.003c0-2.071,1.679-3.75,3.75-3.75s3.75,1.679,3.75,3.75  s-1.679,3.75-3.75,3.75S17.259,26.075,17.259,24.003z"
   id="path1416"
   style="fill:#000000" />
</svg>
