/* XPM */
static char *hb_xpm[] = {
/* columns rows colors chars-per-pixel */
"32 32 257 2",
"   c #00044C",
".  c #180F3C",
"X  c #150C6A",
"o  c #171465",
"O  c #4E0A0D",
"+  c #470D15",
"@  c #1D1D3E",
"#  c #670501",
"$  c #5E080A",
"%  c #10320A",
"&  c #003D04",
"*  c #770105",
"=  c #0F3412",
"-  c #511412",
";  c #431733",
":  c #29281F",
">  c #880001",
",  c #33261E",
"<  c #442017",
"1  c #930000",
"2  c #372C16",
"3  c #6C1501",
"4  c #9B0200",
"5  c #52250F",
"6  c #631D13",
"7  c #542225",
"8  c #432C2A",
"9  c #005603",
"0  c #413416",
"q  c #75124B",
"w  c #81161A",
"e  c #A6070B",
"r  c #2D4034",
"t  c #3C3837",
"y  c #144F2E",
"u  c #443B1C",
"i  c #961219",
"p  c #8F161C",
"a  c #015C2A",
"s  c #473B23",
"d  c #393E41",
"f  c #901B11",
"g  c #56362E",
"h  c #195629",
"j  c #4A3A3C",
"k  c #4F3E1F",
"l  c #6D311F",
"z  c #514118",
"x  c #3E3B71",
"c  c #45452D",
"v  c #403E62",
"b  c #792F18",
"n  c #006B27",
"m  c #3C4652",
"M  c #5B4215",
"N  c #424648",
"B  c #52452C",
"V  c #634117",
"C  c #096B33",
"Z  c #545004",
"A  c #00732E",
"S  c #57482A",
"D  c #146D1C",
"F  c #524A2F",
"G  c #007D02",
"H  c #23623A",
"J  c #41552E",
"K  c #644916",
"L  c #5F4A22",
"P  c #5D4C28",
"I  c #B92312",
"U  c #644C1E",
"Y  c #007C2F",
"T  c #59512B",
"R  c #157139",
"E  c #5F4C37",
"W  c #2D654D",
"Q  c #58523E",
"!  c #2E6744",
"~  c #724D16",
"^  c #515350",
"/  c #6E501C",
"(  c #675229",
")  c #684865",
"_  c #0F832E",
"`  c #42634F",
"'  c #485B71",
"]  c #009500",
"[  c #685A22",
"{  c #755523",
"}  c #535B62",
"|  c #76561E",
" . c #16823A",
".. c #357337",
"X. c #CE2F03",
"o. c #725824",
"O. c #3C6B54",
"+. c #575C5E",
"@. c #71592A",
"#. c #15882C",
"$. c #7F571A",
"%. c #2B7B49",
"&. c #68595B",
"*. c #5E5E5C",
"=. c #7C5B1B",
"-. c #80514C",
";. c #00A100",
":. c #66623F",
">. c #357853",
",. c #7B620E",
"<. c #0E942C",
"1. c #6A5F4F",
"2. c #636449",
"3. c #7F5D25",
"4. c #845159",
"5. c #8F5337",
"6. c #7C6026",
"7. c #64635C",
"8. c #984D48",
"9. c #357E52",
"0. c #7D612D",
"q. c #4E7061",
"w. c #89601C",
"e. c #717103",
"r. c #626667",
"t. c #7C6334",
"y. c #7C633A",
"u. c #786442",
"i. c #746354",
"p. c #6C6469",
"a. c #856525",
"s. c #89661F",
"d. c #636B72",
"f. c #836933",
"g. c #72732F",
"h. c #86692F",
"j. c #716B5E",
"k. c #766863",
"l. c #806754",
"z. c #5F6F84",
"x. c #877302",
"c. c #527C63",
"v. c #6A6E6E",
"b. c #5C795F",
"n. c #637085",
"m. c #BC4675",
"M. c #946A26",
"N. c #597B6C",
"B. c #79714B",
"V. c #956B1F",
"C. c #8B6E2C",
"Z. c #916C2A",
"A. c #D64A27",
"S. c #925F75",
"D. c #1BAB2D",
"F. c #C14A74",
"G. c #84743B",
"H. c #717678",
"J. c #907239",
"K. c #8C6B6C",
"L. c #867452",
"P. c #757773",
"I. c #6E7882",
"U. c #87745A",
"Y. c #8C7644",
"T. c #89830E",
"R. c #867A48",
"E. c #808329",
"W. c #7F7A5E",
"Q. c #6C7B8D",
"!. c #A17522",
"~. c #9A7730",
"^. c #9F762A",
"/. c #817A75",
"(. c #6A7F99",
"). c #88891E",
"_. c #E45A2B",
"`. c #20BF2A",
"'. c #798189",
"]. c #BD6D43",
"[. c #A07F35",
"{. c #81827E",
"}. c #AA7D2A",
"|. c #8A8074",
" X c #AE7E25",
".X c #987D8D",
"XX c #AE8430",
"oX c #AB8838",
"OX c #868B8D",
"+X c #998677",
"@X c #948A7E",
"#X c #9D8D58",
"$X c #7D90AE",
"%X c #A79430",
"&X c #AC8E4A",
"*X c #B19517",
"=X c #BC8C2F",
"-X c #819A86",
";X c #7F92B7",
":X c #7995B8",
">X c #F76D38",
",X c #A08E78",
"<X c #998F8C",
"1X c #A09B42",
"2X c #929491",
"3X c #9C966D",
"4X c #919499",
"5X c #9E9476",
"6X c #809F91",
"7X c #D48829",
"8X c #FE628E",
"9X c #FA7832",
"0X c #8A99B8",
"qX c #859DBA",
"wX c #999B98",
"eX c #74B486",
"rX c #91A29B",
"tX c #A8A263",
"yX c #999FA5",
"uX c #CC9B31",
"iX c #CCA504",
"pX c #D8887F",
"aX c #FA8728",
"sX c #E18971",
"dX c #C99E42",
"fX c #C4A23B",
"gX c #CD9F3C",
"hX c #A7A9A6",
"jX c #9EA9C3",
"kX c #99ACC3",
"lX c #FB9C1A",
"zX c #DCA645",
"xX c #CFA39A",
"cX c #FAAA05",
"vX c #BAB971",
"bX c #F29C75",
"nX c #DAAD5E",
"mX c #A9B7CB",
"MX c #B1B9C1",
"NX c #FFB904",
"BX c #FBA873",
"VX c #E7BE37",
"CX c #B3C4BD",
"ZX c #B8C4D4",
"AX c #D1BFB4",
"SX c #F1B49D",
"DX c #FBBF48",
"FX c #FECC00",
"GX c #C5CACD",
"HX c #FCBE8D",
"JX c #CDCFCB",
"KX c #C8D2DD",
"LX c #C0DACB",
"PX c #FBD5C2",
"IX c #F7F698",
"UX c gray100",
"YX c None",
/* pixels */
"YXYXYXS.F.S.YXYXYXYXYXYXYXYXYX{.YXYXYXYXYXYXYXYXYXYXYXYX4XYXYXYX",
"YXYXYXm.8Xm.YXYXYXYXYXYXYXYXW.1XYXYXYXYXYXYXYXMXYXYXYX} YXYXYXYX",
"YXYXYX.Xq ) YXYXYXYXYXYXYXH.g.3XYXYXYXYXYXYXYXYXd.YXYXr YXYXYXYX",
"YXYXYX{.x v j.,X/.YXYX` G 9 & = b.YXYXYXYXYXYXYXq.6XrXO.YXO.yXYX",
"YXYX/.+X/.AX+Xj.E YXYX'.G ;.;.G ] ..YXYXYXYXH >.6XC ! 9.C q.YXYX",
"YXYX1.U.Q U.l.i.|.YXYXYX-X% n D b.YXYXYXYXYXYXR A R n n O.LXYXYX",
"YXYX/.+Xl.5.b &.YXYXYXYXYXT.YXwX/.YXYXYXYXYXYX6X_ <.A Y #.h +.MX",
"YXYXYXYX-.X.X.8 H.v.H.H.2.E.2.T *X%XYXYXYXYXN.O.C D._ `.A y N.CX",
"YXYXYXYXYX8 . <XGXyXwXwXT.c vXQ 2.FX#XYXYX6X%.D.A <.D. .a ` YXYX",
"YXYXYXYX+.k.  +.<Xv.p.*.Z t N +.x.iX5XYXYXYXv.q.#.<.<.#._ a c.LX",
"YXYXYXd.P.<Xo @ &.j 8 , e.j t s 5 7 YXYXr.u.uXgXQ J D _  .eXYXYX",
"YXYXYX7 xXp ; X 1 e p ,.V w g IX- $ p.U.gX[.V.^.gXXX&XY.:.6XYXYX",
"YXYXK.8.xX# - X p i w e.+ $ B IXtX6 < { ~.( ~.0.^.=XF }.h.&XYXYX",
"YXYX4.sXpX1 > > * * * > > 1 > l tXIXB.P [.J.=.gXP [.XX0.J.J.{.YX",
"YXYXk.bXpXI 1 4 4 1 1 e I e 1 > f B.R.f.M t.6.oX[.}.=XB XX=XN YX",
"YXYXYX].PX>X>X1 A.I A.>X_._.e 3 x.0 o.t.Z.C.Y.$.zX( f.dXt.y.U.YX",
"YXYXYX+XzXBXaXA.>X>X>X>XaX9XA.SX7Xk @.( J.V.f.XXf.J.dX| 6.o.o.YX",
"YXYXYXYXW.nXDXlXaX9XlXlXcXcXHXnXK s Z.Z.0.3.Z.P  X XP ^.[.Y.h.YX",
"YXYXYXYXYXYX5XfXFXNXFXFXFXVXG.k L =X( @.s.a. XZ.^.XX=.o.V.~.s YX",
"YXYXYXYXYXYXYXYX7.[ R.R.T d.P.=.$.f.( !.!.=.w.Z.( a.uXs.s.6.L.YX",
"YXYXYXYXYXYXYXYXYXI.wXOXI.YX1.| s s.XX{ =.0.@.h.=X3.=.K =.6.U.YX",
"YXYXYXYXYXYXYXYXYXYXH.P.YXYXd.S { Z.oXB h. X!.( w.k | /  Xs.YXYX",
"YXYXYXYXYXYXYXYXYXYXv.H.YXYX*.o.$.k 0.=Xf.Z.XXs | U uX0.w.S YXYX",
"YXYXYXYXYXYXYXYXYXYXH.H.YXYXP./ K =Xf.~ ~.T 0.f. X6.| U s.L.YXYX",
"YXYXYXYXYXYXYXYXYXYXH.{.YXYXYXS / ~ @.| t.C.!.0.w.L 0.( G.YXYXYX",
"YXYXYXYXZXmXkXkXmXYXv.4X+.YXYXL.K M.o.t.3.3.a.s h.C.}.XX'.YXYXYX",
"YXYXkX:X;X;X;X;Xn.m hX4Xr.r.YX{.3.: $.@.t.L C.f.~ @.0.2 kXYXYXYX",
"mXqX;XqX:X$Xz.+.H.4XGX<X{.4XwXd d ^.k @.L ~ L z S ~.: (.jXYXYXYX",
"0X$X;X$X:X;X} H.<X{.H.p.v.H.4X<X' P | $.k U { o.K Q ;X0XZXYXYXYX",
"mX;X$X;X;X;X$Xn.Q.'.I.I.I.n.Q.:X$X;X*.Q P 2 B } z.;XqXZXYXYXYXYX",
"YXZX0X;X$X;X;X;X;X;X:X;X;X;X;X;X$X$X0XkXjXmXmXmXZXKXYXYXYXYXYXYX",
"YXYXYXGXmXjXjX0X$XqX;X$XjXjXmXMXmXKXYXYXYXYXYXYXYXYXYXYXYXYXYXYX"
};
