<?xml version="1.0" encoding="UTF-8" standalone="no"?>
<svg
   xmlns:dc="http://purl.org/dc/elements/1.1/"
   xmlns:cc="http://creativecommons.org/ns#"
   xmlns:rdf="http://www.w3.org/1999/02/22-rdf-syntax-ns#"
   xmlns:svg="http://www.w3.org/2000/svg"
   xmlns="http://www.w3.org/2000/svg"
   xmlns:xlink="http://www.w3.org/1999/xlink"
   xmlns:sodipodi="http://sodipodi.sourceforge.net/DTD/sodipodi-0.dtd"
   xmlns:inkscape="http://www.inkscape.org/namespaces/inkscape"
   width="64"
   height="64"
   viewBox="0 0 16.933333 16.933334"
   version="1.1"
   id="svg8"
   inkscape:version="1.0 (4035a4fb49, 2020-05-01)"
   sodipodi:docname="AddQueue.svg">
  <defs
     id="defs2">
    <inkscape:path-effect
       effect="fillet_chamfer"
       id="path-effect1436"
       is_visible="true"
       lpeversion="1"
       satellites_param="F,0,1,1,0,0.28604612,0,1 @ F,0,0,1,0,0,0,1 @ F,0,1,1,0,0.28604612,0,1 @ F,0,1,1,0,0.28604612,0,1 @ F,0,0,1,0,0,0,1 @ F,0,1,1,0,0.28604612,0,1 @ F,0,1,1,0,0.28604612,0,1 @ F,0,0,1,0,0,0,1 @ F,0,1,1,0,0.28604612,0,1 @ F,0,0,1,0,0.28604612,0,1 @ F,0,0,1,0,0,0,1 @ F,0,1,1,0,0.28604612,0,1"
       unit="px"
       method="auto"
       mode="F"
       radius="1"
       chamfer_steps="1"
       flexible="false"
       use_knot_distance="true"
       apply_no_radius="true"
       apply_with_radius="true"
       only_selected="false"
       hide_knots="false" />
    <linearGradient
       id="linearGradient1430"
       inkscape:collect="always">
      <stop
         id="stop1426"
         offset="0"
         style="stop-color:#68b723;stop-opacity:1;" />
      <stop
         id="stop1428"
         offset="1"
         style="stop-color:#9bdb4d;stop-opacity:1" />
    </linearGradient>
    <inkscape:path-effect
       hide_knots="false"
       only_selected="false"
       apply_with_radius="true"
       apply_no_radius="true"
       use_knot_distance="true"
       flexible="false"
       chamfer_steps="1"
       radius="1"
       mode="F"
       method="auto"
       unit="px"
       satellites_param="F,0,1,1,0,0.28604612,0,1 @ F,0,0,1,0,0,0,1 @ F,0,1,1,0,0.28604612,0,1 @ F,0,1,1,0,0.28604612,0,1 @ F,0,0,1,0,0,0,1 @ F,0,1,1,0,0.28604612,0,1 @ F,0,1,1,0,0.28604612,0,1 @ F,0,0,1,0,0,0,1 @ F,0,1,1,0,0.28604612,0,1 @ F,0,0,1,0,0.28604612,0,1 @ F,0,0,1,0,0,0,1 @ F,0,1,1,0,0.28604612,0,1"
       lpeversion="1"
       is_visible="true"
       id="path-effect1424"
       effect="fillet_chamfer" />
    <linearGradient
       id="linearGradient978"
       inkscape:collect="always">
      <stop
         id="stop974"
         offset="0"
         style="stop-color:#f6d32d;stop-opacity:1;" />
      <stop
         style="stop-color:#f7cd34;stop-opacity:0.99215686;"
         offset="0.77525097"
         id="stop984" />
      <stop
         id="stop976"
         offset="1"
         style="stop-color:#f9c440;stop-opacity:0.98275864" />
    </linearGradient>
    <linearGradient
       id="linearGradient960-3"
       inkscape:collect="always">
      <stop
         id="stop956"
         offset="0"
         style="stop-color:#b5835a;stop-opacity:1" />
      <stop
         id="stop958"
         offset="1"
         style="stop-color:#986a44;stop-opacity:1" />
    </linearGradient>
    <linearGradient
       id="linearGradient942"
       inkscape:collect="always">
      <stop
         id="stop938"
         offset="0"
         style="stop-color:#64baff;stop-opacity:1;" />
      <stop
         style="stop-color:#76c6ff;stop-opacity:1;"
         offset="1"
         id="stop948" />
    </linearGradient>
    <linearGradient
       inkscape:collect="always"
       id="linearGradient1101">
      <stop
         style="stop-color:#ffffff;stop-opacity:0.03448276"
         offset="0"
         id="stop1097" />
      <stop
         style="stop-color:#000000;stop-opacity:0.14942528"
         offset="1"
         id="stop1099" />
    </linearGradient>
    <linearGradient
       inkscape:collect="always"
       id="linearGradient1089">
      <stop
         style="stop-color:#000000;stop-opacity:0.19540229"
         offset="0"
         id="stop1085" />
      <stop
         id="stop1093"
         offset="0.58808887"
         style="stop-color:#ffffff;stop-opacity:0.02873563" />
      <stop
         style="stop-color:#ffffff;stop-opacity:0"
         offset="1"
         id="stop1087" />
    </linearGradient>
    <linearGradient
       inkscape:collect="always"
       id="linearGradient1037">
      <stop
         style="stop-color:#f6f5f4;stop-opacity:1;"
         offset="0"
         id="stop1033" />
      <stop
         style="stop-color:#deddda;stop-opacity:1"
         offset="1"
         id="stop1035" />
    </linearGradient>
    <linearGradient
       inkscape:collect="always"
       id="linearGradient979">
      <stop
         style="stop-color:#3d3846;stop-opacity:1;"
         offset="0"
         id="stop975" />
      <stop
         style="stop-color:#241f31;stop-opacity:1"
         offset="1"
         id="stop977" />
    </linearGradient>
    <clipPath
       clipPathUnits="userSpaceOnUse"
       id="clipPath917">
      <rect
         style="fill:#f6f5f4;stroke-width:0.529169;stroke-linecap:round;stroke-linejoin:round"
         id="rect919"
         width="14.266221"
         height="2.5783157"
         x="1.3252984"
         y="286.55267"
         rx="0.26458332"
         ry="0.26458332" />
    </clipPath>
    <linearGradient
       gradientTransform="translate(-21.247927,-0.03778667)"
       inkscape:collect="always"
       xlink:href="#linearGradient979"
       id="linearGradient981"
       x1="9.0761147"
       y1="285.28455"
       x2="9.8452244"
       y2="297.54553"
       gradientUnits="userSpaceOnUse" />
    <clipPath
       clipPathUnits="userSpaceOnUse"
       id="clipPath1029">
      <rect
         style="fill:#f6f5f4;stroke:none;stroke-width:0.529169;stroke-linecap:round;stroke-linejoin:round"
         id="rect1031"
         width="14.266221"
         height="2.5783157"
         x="20.533463"
         y="284.58994"
         rx="0.26458332"
         ry="0.26458332" />
    </clipPath>
    <linearGradient
       gradientTransform="translate(-21.247927,-0.03778667)"
       inkscape:collect="always"
       xlink:href="#linearGradient1037"
       id="linearGradient1039"
       x1="8.5895281"
       y1="286.25906"
       x2="7.4768429"
       y2="292.76733"
       gradientUnits="userSpaceOnUse" />
    <linearGradient
       gradientTransform="translate(-21.247927,-0.03778667)"
       inkscape:collect="always"
       xlink:href="#linearGradient1089"
       id="linearGradient1091"
       x1="8.7757912"
       y1="290.78122"
       x2="8.8150139"
       y2="285.68951"
       gradientUnits="userSpaceOnUse" />
    <linearGradient
       gradientTransform="translate(-21.247927,-0.03778667)"
       inkscape:collect="always"
       xlink:href="#linearGradient1101"
       id="linearGradient1103"
       x1="8.8150139"
       y1="285.68951"
       x2="8.4754686"
       y2="297.87961"
       gradientUnits="userSpaceOnUse" />
    <linearGradient
       inkscape:collect="always"
       xlink:href="#linearGradient1089"
       id="linearGradient1153"
       gradientUnits="userSpaceOnUse"
       x1="8.7757912"
       y1="290.78122"
       x2="8.8150139"
       y2="285.68951"
       gradientTransform="translate(1.6391277e-7,-2.8429025)" />
    <linearGradient
       inkscape:collect="always"
       xlink:href="#linearGradient1037"
       id="linearGradient1155"
       gradientUnits="userSpaceOnUse"
       x1="8.5895281"
       y1="286.25906"
       x2="7.4768429"
       y2="292.76733"
       gradientTransform="translate(1.6391277e-7,-2.8429025)" />
    <clipPath
       id="clipPath908"
       clipPathUnits="userSpaceOnUse">
      <rect
         style="fill:#64baff;fill-opacity:1;stroke:none;stroke-width:0.264583;stroke-linecap:round;stroke-linejoin:round"
         id="rect910"
         width="12.157629"
         height="9.6913519"
         x="24.872606"
         y="286.51489"
         rx="0.26458332"
         ry="0.26458332" />
    </clipPath>
    <linearGradient
       gradientTransform="translate(-0.05413646)"
       gradientUnits="userSpaceOnUse"
       y2="286.51489"
       x2="9.9889688"
       y1="296.20624"
       x1="10.592377"
       id="linearGradient944"
       xlink:href="#linearGradient942"
       inkscape:collect="always" />
    <linearGradient
       gradientUnits="userSpaceOnUse"
       y2="299.29025"
       x2="31.972469"
       y1="290.31833"
       x1="31.236179"
       id="linearGradient962"
       xlink:href="#linearGradient960-3"
       inkscape:collect="always" />
    <linearGradient
       gradientTransform="translate(3.8666956,0.39272382)"
       gradientUnits="userSpaceOnUse"
       y2="289.9393"
       x2="8.10254"
       y1="287.40024"
       x1="8.10254"
       id="linearGradient980"
       xlink:href="#linearGradient978"
       inkscape:collect="always" />
    <linearGradient
       gradientUnits="userSpaceOnUse"
       y2="290.4964"
       x2="17.31366"
       y1="302.53592"
       x1="17.328196"
       id="linearGradient1432"
       xlink:href="#linearGradient1430"
       inkscape:collect="always" />
  </defs>
  <sodipodi:namedview
     inkscape:snap-page="true"
     inkscape:lockguides="true"
     inkscape:snap-grids="false"
     inkscape:guide-bbox="true"
     showguides="true"
     id="base"
     pagecolor="#ffffff"
     bordercolor="#666666"
     borderopacity="1.0"
     inkscape:pageopacity="0.0"
     inkscape:pageshadow="2"
     inkscape:zoom="6.0122881"
     inkscape:cx="30.685141"
     inkscape:cy="29.516806"
     inkscape:document-units="mm"
     inkscape:current-layer="layer1"
     inkscape:document-rotation="0"
     showgrid="true"
     units="px"
     inkscape:object-paths="true"
     inkscape:snap-intersection-paths="true"
     inkscape:snap-center="true"
     inkscape:snap-nodes="true"
     inkscape:snap-smooth-nodes="true"
     inkscape:snap-midpoints="false"
     inkscape:snap-bbox="true"
     inkscape:bbox-nodes="true">
    <inkscape:grid
       id="grid882"
       type="xygrid" />
    <sodipodi:guide
       inkscape:locked="true"
       id="guide884"
       orientation="0,1"
       position="15.08125,0.79375001" />
    <sodipodi:guide
       inkscape:locked="true"
       id="guide886"
       orientation="0,1"
       position="14.022916,7.9375003" />
    <sodipodi:guide
       inkscape:locked="true"
       id="guide888"
       orientation="0,1"
       position="13.998242,10.485101" />
    <sodipodi:guide
       inkscape:locked="true"
       id="guide890"
       orientation="0,1"
       position="14.620803,15.984418" />
    <sodipodi:guide
       inkscape:locked="true"
       id="guide892"
       orientation="0,1"
       position="15.205015,13.488518" />
  </sodipodi:namedview>
  <metadata
     id="metadata5">
    <rdf:RDF>
      <cc:Work
         rdf:about="">
        <dc:format>image/svg+xml</dc:format>
        <dc:type
           rdf:resource="http://purl.org/dc/dcmitype/StillImage" />
        <dc:title></dc:title>
      </cc:Work>
    </rdf:RDF>
  </metadata>
  <g
     style="display:none"
     inkscape:label="Layer 2"
     id="layer2"
     inkscape:groupmode="layer">
    <rect
       y="0"
       x="0"
       height="16.933332"
       width="16.933332"
       id="rect1397"
       style="fill:#deddda;fill-opacity:1;stroke:none;stroke-width:0.264583;stroke-linecap:round;stroke-linejoin:round;stroke-opacity:1" />
  </g>
  <g
     inkscape:label="Layer 1"
     inkscape:groupmode="layer"
     id="layer1"
     transform="translate(0,-280.06666)"
     style="display:inline">
    <rect
       style="fill:#3689e6;fill-opacity:1;stroke:none;stroke-width:0.264583;stroke-linecap:round;stroke-linejoin:round"
       id="rect918"
       width="12.157629"
       height="9.6913519"
       x="1.1611539"
       y="283.51147"
       rx="0.26458332"
       ry="0.26458332" />
    <rect
       ry="0.26458332"
       rx="0.26458332"
       y="283.51147"
       x="1.1611539"
       height="9.6913519"
       width="12.157629"
       id="rect928"
       style="fill:none;fill-opacity:1;stroke:#002e99;stroke-width:0.264583;stroke-linecap:round;stroke-linejoin:round;stroke-opacity:1" />
    <rect
       ry="0.26458332"
       rx="0.26458332"
       y="285.01318"
       x="2.3893635"
       height="9.6913519"
       width="12.157629"
       id="rect988"
       style="fill:#4da1f2;fill-opacity:1;stroke:none;stroke-width:0.264583;stroke-linecap:round;stroke-linejoin:round" />
    <rect
       style="fill:url(#linearGradient981);fill-opacity:1;stroke-width:0.529167;stroke-linecap:round;stroke-linejoin:round"
       id="rect848"
       width="14.266221"
       height="9.6913567"
       x="-19.922628"
       y="286.51489"
       rx="0.26458332"
       ry="0.26458329" />
    <rect
       style="fill:#000000;fill-opacity:0.2;stroke:none;stroke-width:0.529167;stroke-linecap:round;stroke-linejoin:round"
       id="rect995"
       width="14.266221"
       height="2.5783157"
       x="-19.922628"
       y="287.01489"
       rx="0.26458332"
       ry="0.26458332" />
    <rect
       ry="0.26458332"
       rx="0.26458332"
       y="286.51489"
       x="-19.922628"
       height="2.5783157"
       width="14.266221"
       id="rect852"
       style="fill:url(#linearGradient1039);fill-opacity:1;stroke:none;stroke-width:0.529167;stroke-linecap:round;stroke-linejoin:round" />
    <path
       style="fill:#f6f5f4;fill-opacity:1;stroke:#f6f5f4;stroke-width:0.529167;stroke-linecap:round;stroke-linejoin:miter;stroke-miterlimit:4;stroke-dasharray:none;stroke-opacity:1"
       d="M -7.3228304,290.74343 H -18.256207"
       id="path983" />
    <path
       id="path985"
       d="M -7.3228304,293.01129 H -18.256207"
       style="fill:#f6f5f4;fill-opacity:1;stroke:#f6f5f4;stroke-width:0.529167;stroke-linecap:round;stroke-linejoin:miter;stroke-miterlimit:4;stroke-dasharray:none;stroke-opacity:1" />
    <path
       style="fill:#f6f5f4;fill-opacity:1;stroke:#f6f5f4;stroke-width:0.529167;stroke-linecap:round;stroke-linejoin:miter;stroke-miterlimit:4;stroke-dasharray:none;stroke-opacity:1"
       d="m -15.107692,294.94338 v -1.93209"
       id="path989" />
    <use
       x="0"
       y="0"
       xlink:href="#path989"
       id="use993"
       transform="translate(4.6363476)"
       width="100%"
       height="100%" />
    <g
       id="g1025"
       transform="translate(-40.456091,1.9249595)"
       clip-path="url(#clipPath1029)">
      <path
         id="path1005"
         d="m 20.696684,284.38822 -2.981725,2.98173"
         style="fill:none;stroke:#3d3846;stroke-width:1.32292;stroke-linecap:round;stroke-linejoin:miter;stroke-miterlimit:4;stroke-dasharray:none;stroke-opacity:1" />
      <use
         height="100%"
         width="100%"
         transform="translate(3.1070083)"
         id="use1009"
         xlink:href="#path1005"
         y="0"
         x="0" />
      <use
         x="0"
         y="0"
         xlink:href="#path1005"
         id="use1011"
         transform="translate(6.6650339)"
         width="100%"
         height="100%" />
      <use
         height="100%"
         width="100%"
         transform="translate(10.373399)"
         id="use1013"
         xlink:href="#path1005"
         y="0"
         x="0" />
      <use
         x="0"
         y="0"
         xlink:href="#path1005"
         id="use1015"
         transform="translate(13.714268)"
         width="100%"
         height="100%" />
      <use
         height="100%"
         width="100%"
         transform="translate(16.921502)"
         id="use1017"
         xlink:href="#path1005"
         y="0"
         x="0" />
    </g>
    <rect
       style="fill:url(#linearGradient1091);fill-opacity:1;stroke:none;stroke-width:0.529167;stroke-linecap:round;stroke-linejoin:round"
       id="rect1083"
       width="14.266221"
       height="2.5783157"
       x="-19.922628"
       y="286.51489"
       rx="0.26458332"
       ry="0.26458332" />
    <rect
       ry="0.26458329"
       rx="0.26458332"
       y="286.51489"
       x="-19.922628"
       height="9.6913567"
       width="14.266221"
       id="rect1095"
       style="fill:url(#linearGradient1103);fill-opacity:1;stroke-width:0.529167;stroke-linecap:round;stroke-linejoin:round" />
    <rect
       ry="0.26458332"
       rx="0.26458332"
       y="286.51489"
       x="-19.922628"
       height="2.5783157"
       width="14.266221"
       id="rect1129"
       style="fill:none;fill-opacity:1;stroke:#000000;stroke-width:0.264583;stroke-linecap:round;stroke-linejoin:round;stroke-miterlimit:4;stroke-dasharray:none" />
    <rect
       ry="0.26458329"
       rx="0.26458332"
       y="286.51489"
       x="-19.922628"
       height="9.6913567"
       width="14.266221"
       id="rect1131"
       style="fill:none;fill-opacity:1;stroke:#000000;stroke-width:0.264583;stroke-linecap:round;stroke-linejoin:round;stroke-miterlimit:4;stroke-dasharray:none;stroke-opacity:1" />
    <g
       id="g1167"
       inkscape:transform-center-x="-6.9279897"
       inkscape:transform-center-y="-2.6095156"
       transform="rotate(-9.569589,-11.773344,413.14566)">
      <rect
         ry="0.26458332"
         rx="0.26458332"
         y="283.70978"
         x="1.3252985"
         height="2.5783157"
         width="14.266221"
         id="rect1133"
         style="fill:url(#linearGradient1155);fill-opacity:1;stroke:none;stroke-width:0.529167;stroke-linecap:round;stroke-linejoin:round" />
      <g
         id="g1147"
         transform="translate(-19.208164,-0.88015623)"
         clip-path="url(#clipPath1029)">
        <path
           id="path1135"
           d="m 20.696684,284.38822 -2.981725,2.98173"
           style="fill:none;stroke:#3d3846;stroke-width:1.32292;stroke-linecap:round;stroke-linejoin:miter;stroke-miterlimit:4;stroke-dasharray:none;stroke-opacity:1" />
        <use
           height="100%"
           width="100%"
           transform="translate(3.1070083)"
           id="use1137"
           xlink:href="#path1005"
           y="0"
           x="0" />
        <use
           x="0"
           y="0"
           xlink:href="#path1005"
           id="use1139"
           transform="translate(6.6650339)"
           width="100%"
           height="100%" />
        <use
           height="100%"
           width="100%"
           transform="translate(10.373399)"
           id="use1141"
           xlink:href="#path1005"
           y="0"
           x="0" />
        <use
           x="0"
           y="0"
           xlink:href="#path1005"
           id="use1143"
           transform="translate(13.714268)"
           width="100%"
           height="100%" />
        <use
           height="100%"
           width="100%"
           transform="translate(16.921502)"
           id="use1145"
           xlink:href="#path1005"
           y="0"
           x="0" />
      </g>
      <rect
         style="fill:url(#linearGradient1153);fill-opacity:1;stroke:none;stroke-width:0.529167;stroke-linecap:round;stroke-linejoin:round"
         id="rect1149"
         width="14.266221"
         height="2.5783157"
         x="1.3252985"
         y="283.70978"
         rx="0.26458332"
         ry="0.26458332" />
      <rect
         ry="0.26458332"
         rx="0.26458332"
         y="283.70978"
         x="1.3252985"
         height="2.5783157"
         width="14.266221"
         id="rect1151"
         style="fill:none;fill-opacity:1;stroke:#000000;stroke-width:0.264583;stroke-linecap:round;stroke-linejoin:round;stroke-miterlimit:4;stroke-dasharray:none" />
    </g>
    <rect
       style="fill:#4da1f2;fill-opacity:1;stroke:#002e99;stroke-width:0.264583;stroke-linecap:round;stroke-linejoin:round;stroke-opacity:1"
       id="rect1394"
       width="12.157629"
       height="9.6913519"
       x="2.3893635"
       y="285.01318"
       rx="0.26458332"
       ry="0.26458332" />
    <rect
       ry="0.26458332"
       rx="0.26458332"
       y="286.51489"
       x="3.6145494"
       height="9.6913519"
       width="12.157629"
       id="rect894"
       style="fill:url(#linearGradient944);fill-opacity:1;stroke:none;stroke-width:0.264583;stroke-linecap:round;stroke-linejoin:round" />
    <path
       transform="matrix(-1,0,0,1,40.644786,0)"
       clip-path="url(#clipPath908)"
       sodipodi:nodetypes="ccccccc"
       id="path902"
       d="m 37.78523,296.58238 -3.64605,-6.30542 -3.315848,4.42758 -2.909325,-2.76596 -3.45541,3.49388 -0.705018,2.87047 z"
       style="fill:url(#linearGradient962);fill-opacity:1;stroke:none;stroke-width:0.264583px;stroke-linecap:butt;stroke-linejoin:miter;stroke-opacity:1" />
    <circle
       r="1.2695302"
       cy="289.0625"
       cx="11.969235"
       id="path904"
       style="fill:url(#linearGradient980);fill-opacity:1;stroke:none;stroke-width:0.264583;stroke-linecap:round;stroke-linejoin:round" />
    <circle
       style="fill:none;fill-opacity:1;stroke:#e5a50a;stroke-width:0.264583;stroke-linecap:round;stroke-linejoin:round"
       id="circle912"
       cx="11.969235"
       cy="289.0625"
       r="1.2695302" />
    <path
       transform="matrix(-1,0,0,1,40.644786,0)"
       style="fill:none;fill-opacity:1;stroke:#715344;stroke-width:0.264583px;stroke-linecap:butt;stroke-linejoin:miter;stroke-opacity:1"
       d="m 37.78523,296.58238 -3.64605,-6.30542 -3.315848,4.42758 -2.909325,-2.76596 -3.45541,3.49388 -0.705018,2.87047 z"
       id="path914"
       sodipodi:nodetypes="ccccccc"
       clip-path="url(#clipPath908)" />
    <rect
       style="fill:none;fill-opacity:1;stroke:#002e99;stroke-width:0.264583;stroke-linecap:round;stroke-linejoin:round;stroke-opacity:1"
       id="rect916"
       width="12.157629"
       height="9.6913519"
       x="3.6145494"
       y="286.51489"
       rx="0.26458332"
       ry="0.26458332" />
    <path
       d="m -8.6468528,269.86963 h 2.6833511 c 0.1465792,0 0.2645834,0.118 0.2645834,0.26458 v 2.57334 c 0,0.14657 -0.1180042,0.26458 -0.2645834,0.26458 h -2.6833511 c -0.1465791,0 -0.2645833,-0.11801 -0.2645833,-0.26458 v -2.57334 c 0,-0.14658 0.1180042,-0.26458 0.2645833,-0.26458 z"
       style="fill:#3689e6;fill-opacity:1;stroke:none;stroke-width:0.264583;stroke-linecap:round;stroke-linejoin:round;stroke-opacity:1"
       id="rect999" />
    <path
       d="m 12.102492,269.86963 h 2.683351 c 0.146579,0 0.264583,0.118 0.264583,0.26458 v 2.57334 c 0,0.14657 -0.118004,0.26458 -0.264583,0.26458 h -2.683351 c -0.146579,0 -0.264583,-0.11801 -0.264583,-0.26458 v -2.57334 c 0,-0.14658 0.118004,-0.26458 0.264583,-0.26458 z"
       style="fill:#64baff;fill-opacity:1;stroke:none;stroke-width:0.264583;stroke-linecap:round;stroke-linejoin:round;stroke-opacity:1"
       id="rect1001" />
    <g
       id="g1248">
      <path
         style="fill:#64baff;fill-opacity:1.0;stroke:none;stroke-width:0.264583;stroke-linecap:round;stroke-linejoin:round;stroke-opacity:1;opacity:1.0"
         d="M 12.1025 269.87 L 14.7858 269.87 L 14.7858 269.87 C 14.9324 269.87 15.0504 269.988 15.0504 270.134 L 15.0504 270.135 C 15.0504 270.174 15.0504 272.708 15.0504 272.708 L 15.0504 272.708 C 15.0504 272.854 14.9324 272.972 14.7858 272.972 L 14.7854 272.972 C 14.7441 272.972 12.1025 272.972 12.1025 272.972 L 12.1025 272.972 C 11.9559 272.972 11.8379 272.854 11.8379 272.708 L 11.8379 272.707 C 11.8379 272.667 11.8379 270.134 11.8379 270.134 L 11.8379 270.134 C 11.8379 269.988 11.9559 269.87 12.1025 269.87 Z"
         id="path1234" />
      <path
         style="fill:#5cb1fa;fill-opacity:1.0;stroke:none;stroke-width:0.264583;stroke-linecap:round;stroke-linejoin:round;stroke-opacity:1;opacity:1.0"
         d="M 8.64427 269.87 L 11.3276 269.87 L 11.3278 269.87 C 11.4743 269.87 11.5922 269.988 11.5922 270.134 L 11.5922 270.135 C 11.5922 270.168 11.5922 272.708 11.5922 272.708 L 11.5922 272.708 C 11.5921 272.854 11.4742 272.972 11.3276 272.972 L 11.3272 272.972 C 11.2928 272.972 8.64427 272.972 8.64427 272.972 L 8.64412 272.972 C 8.49761 272.972 8.37968 272.854 8.37968 272.708 L 8.37968 272.707 C 8.37968 272.674 8.37968 270.134 8.37968 270.134 L 8.37969 270.134 C 8.37976 269.988 8.49774 269.87 8.64427 269.87 Z"
         id="path1236" />
      <path
         style="fill:#54a9f6;fill-opacity:1.0;stroke:none;stroke-width:0.264583;stroke-linecap:round;stroke-linejoin:round;stroke-opacity:1;opacity:1.0"
         d="M 5.18604 269.87 L 7.86939 269.87 L 7.86968 269.87 C 8.01613 269.87 8.13398 269.988 8.13398 270.134 L 8.13398 270.135 C 8.13398 270.161 8.13398 272.708 8.13398 272.708 L 8.13398 272.708 C 8.13382 272.854 8.01588 272.972 7.86939 272.972 L 7.86907 272.972 C 7.84155 272.972 5.18604 272.972 5.18604 272.972 L 5.18576 272.972 C 5.03931 272.972 4.92146 272.854 4.92146 272.708 L 4.92146 272.707 C 4.92146 272.681 4.92146 270.134 4.92146 270.134 L 4.92146 270.134 C 4.92161 269.987 5.03956 269.87 5.18604 269.87 Z"
         id="path1238" />
      <path
         style="fill:#4da1f2;fill-opacity:1.0;stroke:none;stroke-width:0.264583;stroke-linecap:round;stroke-linejoin:round;stroke-opacity:1;opacity:1.0"
         d="M 1.72782 269.87 L 4.41117 269.87 L 4.4116 269.87 C 4.55798 269.87 4.67575 269.988 4.67575 270.134 L 4.67575 270.134 C 4.67575 270.154 4.67575 272.708 4.67575 272.708 L 4.67575 272.708 C 4.67552 272.854 4.55761 272.972 4.41117 272.972 L 4.41093 272.972 C 4.39029 272.972 1.72782 272.972 1.72782 272.972 L 1.72739 272.972 C 1.58101 272.972 1.46324 272.854 1.46324 272.708 L 1.46324 272.707 C 1.46324 272.688 1.46324 270.134 1.46324 270.134 L 1.46324 270.134 C 1.46347 269.987 1.58138 269.87 1.72782 269.87 Z"
         id="path1240" />
      <path
         style="fill:#4599ee;fill-opacity:1.0;stroke:none;stroke-width:0.264583;stroke-linecap:round;stroke-linejoin:round;stroke-opacity:1;opacity:1.0"
         d="M -1.7304 269.87 L 0.952947 269.87 L 0.953519 269.87 C 1.09983 269.87 1.21753 269.988 1.21753 270.134 L 1.21753 270.134 C 1.21753 270.148 1.21753 272.708 1.21753 272.708 L 1.21753 272.708 C 1.21722 272.854 1.09933 272.972 0.952947 272.972 L 0.952784 272.972 C 0.939025 272.972 -1.7304 272.972 -1.7304 272.972 L -1.73098 272.972 C -1.87729 272.972 -1.99499 272.854 -1.99499 272.708 L -1.99499 272.707 C -1.99499 272.694 -1.99499 270.134 -1.99499 270.134 L -1.99499 270.134 C -1.99468 269.987 -1.87679 269.87 -1.7304 269.87 Z"
         id="path1242" />
      <path
         style="fill:#3d91ea;fill-opacity:1.0;stroke:none;stroke-width:0.264583;stroke-linecap:round;stroke-linejoin:round;stroke-opacity:1;opacity:1.0"
         d="M -5.18863 269.87 L -2.50528 269.87 L -2.50456 269.87 C -2.35831 269.87 -2.24069 269.988 -2.24069 270.134 L -2.24069 270.134 C -2.24069 270.141 -2.24069 272.708 -2.24069 272.708 L -2.2407 272.708 C -2.24108 272.855 -2.35894 272.972 -2.50528 272.972 L -2.50536 272.972 C -2.51224 272.972 -5.18863 272.972 -5.18863 272.972 L -5.18934 272.972 C -5.33559 272.972 -5.45321 272.854 -5.45321 272.708 L -5.45321 272.707 C -5.45321 272.701 -5.45321 270.134 -5.45321 270.134 L -5.45321 270.133 C -5.45283 269.987 -5.33497 269.87 -5.18863 269.87 Z"
         id="path1244" />
      <path
         style="fill:#3689e6;fill-opacity:1.0;stroke:none;stroke-width:0.264583;stroke-linecap:round;stroke-linejoin:round;stroke-opacity:1;opacity:1.0"
         d="M -8.64685 269.87 L -5.9635 269.87 L -5.96264 269.87 C -5.81646 269.87 -5.69892 269.988 -5.69892 270.134 L -5.69892 270.134 L -5.69892 272.708 L -5.69892 272.708 C -5.69938 272.855 -5.81721 272.972 -5.9635 272.972 L -5.9635 272.972 L -8.64685 272.972 L -8.64771 272.972 C -8.79389 272.972 -8.91144 272.854 -8.91144 272.708 L -8.91144 272.708 L -8.91144 270.134 L -8.91143 270.133 C -8.91098 269.987 -8.79315 269.87 -8.64685 269.87 Z"
         id="path1246" />
    </g>
    <use
       height="100%"
       width="100%"
       transform="rotate(90,19.609584,293.43212)"
       id="use1413"
       xlink:href="#rect1404"
       y="0"
       x="0" />
    <rect
       y="291.31122"
       x="18.754351"
       height="4.2418098"
       width="1.7104666"
       id="rect1404"
       style="fill:#68b723;fill-opacity:1;stroke:none;stroke-width:0.264582;stroke-linecap:round;stroke-linejoin:round;stroke-opacity:1" />
    <g
       transform="translate(-4.3564249,-6.9904765)"
       id="g1440">
      <path
         id="use1415"
         style="fill:url(#linearGradient1432);fill-opacity:1;stroke:none;stroke-width:0.264582;stroke-linecap:round;stroke-linejoin:round;stroke-opacity:1"
         d="m 16.375824,298.58037 v 0.97951 h -0.979509 a 0.28604612,0.28604612 135 0 0 -0.286046,0.28605 v 1.13839 a 0.28604612,0.28604612 45 0 0 0.286046,0.28605 h 0.979509 v 0.9795 a 0.28604612,0.28604612 45 0 0 0.286046,0.28605 h 1.138398 a 0.28604612,0.28604612 135 0 0 0.286046,-0.28605 v -0.9795 h 0.97951 a 0.28604612,0.28604612 135 0 0 0.286046,-0.28605 v -1.13839 a 0.28604612,0.28604612 45 0 0 -0.286046,-0.28605 h -0.97951 v -0.97951 a 0.28604612,0.28604612 45 0 0 -0.286046,-0.28605 H 16.66187 a 0.28604612,0.28604612 135 0 0 -0.286046,0.28605 z"
         inkscape:path-effect="#path-effect1424"
         inkscape:original-d="m 16.375824,298.29432 v 1.26556 h -1.265555 v 1.71049 h 1.265555 v 1.26555 h 1.71049 v -1.26555 h 1.265556 v -1.71049 h -1.265556 v -1.26556 z" />
      <path
         inkscape:original-d="m 16.375824,298.29432 v 1.26556 h -1.265555 v 1.71049 h 1.265555 v 1.26555 h 1.71049 v -1.26555 h 1.265556 v -1.71049 h -1.265556 v -1.26556 z"
         inkscape:path-effect="#path-effect1436"
         d="m 16.375824,298.58037 v 0.97951 h -0.979509 a 0.28604612,0.28604612 135 0 0 -0.286046,0.28605 v 1.13839 a 0.28604612,0.28604612 45 0 0 0.286046,0.28605 h 0.979509 v 0.9795 a 0.28604612,0.28604612 45 0 0 0.286046,0.28605 h 1.138398 a 0.28604612,0.28604612 135 0 0 0.286046,-0.28605 v -0.9795 h 0.97951 a 0.28604612,0.28604612 135 0 0 0.286046,-0.28605 v -1.13839 a 0.28604612,0.28604612 45 0 0 -0.286046,-0.28605 h -0.97951 v -0.97951 a 0.28604612,0.28604612 45 0 0 -0.286046,-0.28605 H 16.66187 a 0.28604612,0.28604612 135 0 0 -0.286046,0.28605 z"
         style="fill:none;fill-opacity:1;stroke:#206b00;stroke-width:0.265;stroke-linecap:round;stroke-linejoin:round;stroke-miterlimit:4;stroke-dasharray:none;stroke-opacity:1"
         id="path1434" />
    </g>
  </g>
</svg>
