<?xml version="1.0" encoding="utf-8"?>
<!-- Generator: Adobe Illustrator 15.1.0, SVG Export Plug-In . SVG Version: 6.00 Build 0)  -->
<!DOCTYPE svg PUBLIC "-//W3C//DTD SVG 1.1//EN" "http://www.w3.org/Graphics/SVG/1.1/DTD/svg11.dtd">
<svg version="1.1" id="Layer_1" xmlns="http://www.w3.org/2000/svg" xmlns:xlink="http://www.w3.org/1999/xlink" x="0px" y="0px"
	 width="64px" height="64px" viewBox="0 0 64 64" enable-background="new 0 0 64 64" xml:space="preserve">
<linearGradient id="SVGID_1_" gradientUnits="userSpaceOnUse" x1="33" y1="10" x2="33" y2="58">
	<stop  offset="0" style="stop-color:#595959"/>
	<stop  offset="1" style="stop-color:#333333"/>
</linearGradient>
<path fill-rule="evenodd" clip-rule="evenodd" fill="url(#SVGID_1_)" d="M48.019,38c5.521,0,10,4.478,10,10s-4.479,10-10,10
	c-5.523,0-10-4.478-10-10S42.495,38,48.019,38z M46,55h4v-8h-4V55z M45.86,43c0,1.182,0.958,2.14,2.14,2.14s2.14-0.958,2.14-2.14
	c0-1.183-0.958-2.141-2.14-2.141S45.86,41.817,45.86,43z M47.984,36c-6.628,0-12,5.373-12,12c0,3.078,1.168,5.876,3.073,8H12
	c-2,0-4-2-4-4c0,0,0-38,0-38.022C8,11.953,10,10,12,10h40c2,0,4,2,4,4v25.089C53.874,37.175,51.069,36,47.984,36z M14,16h4v-2h-4V16
	z M20,16h2v-2h-2V16z M26,16h8v-2h-8V16z M36,16h4v-2h-4V16z M14,22h4v-2h-4V22z M20,22h6v-2h-6V22z M26,26h6c0,0,0-1.334,0-2
	c-2,0-6,0-6,0V26z M14,26h6v-2h-6V26z M22,26h2v-2h-2V26z M14,36h6v-2h-6V36z M14,32h4v-2h-4V32z M20,32h8v-2h-8V32z M32,32h4v-2h-4
	V32z M30,22h6v-2h-6V22z M36,36h2v-2h-2V36z M14,42h2v-2h-2V42z M20,42h12v-2H20V42z M14,46h4v-2h-4V46z M20,46h2v-2h-2V46z M24,46
	h8v-2h-8V46z M14,52h12v-2H14V52z M38,32h10v-2H38V32z M28,36h4v-2h-4V36z M36,26h8v-2h-8V26z M24,36h2v-2h-2V36z M38,22h4v-2h-4V22
	z M44,22h4v-2h-4V22z M30,52h2v-2h-2V52z M46,26h4v-2h-4V26z M44,16h6v-2h-6V16z"/>
</svg>
